<svg xmlns="http://www.w3.org/2000/svg" xmlns:lucid="lucid" width="340" height="220"><g lucid:page-tab-id="e7jJMW1KJTRN"><path d="M40 78.06h80v63.88H40z" fill="#fff" fill-opacity="0"/><path d="M58.7 84.32L48 110.12l10.65 25.92h-2.9L44.3 110.68v-1.1L55.8 84.3h2.9M102.05 99.63v.9c-5.37.72-6.76 6.92-7.88 11.9-1.62 7.13-8.04 12.33-14.97 12.33l-2.34 9.6h-4.52l2.4-9.6h-.56c-4.36 0-8.55-2.3-8.55-9.22 0-3.12 1.8-6.48 1.8-10.22 0-2.23-.8-4.52-3.42-4.8l.3-.9c1.05-.1 2.06-.1 3.06-.1 3.2 0 4.92 3 4.92 6.2 0 3.12-1.73 7.1-1.73 10.33 0 4.18 1.8 6.64 4.63 7.03l5.6-22.84h4.5l-5.57 22.84c4.08-.78 8.1-4.35 9.5-10.44 1.56-6.7 2.85-13 11.4-13h1.45M112.88 134.7h-3.7V85.6h3.7v49.1" fill="#3a414a"/><path d="M220 20v180l100-90z" stroke="#3a414a" stroke-width="5" fill-opacity="0"/><path d="M220 78.06h80v63.88h-80z" fill="#fff" fill-opacity="0"/><path d="M230.78 134.7h-3.7V85.6h3.7v49.1M277.58 99.63v.9c-5.36.72-6.76 6.92-7.88 11.9-1.62 7.13-8.04 12.33-14.96 12.33l-2.35 9.6h-4.53l2.4-9.6h-.56c-4.35 0-8.53-2.3-8.53-9.22 0-3.12 1.78-6.48 1.78-10.22 0-2.23-.78-4.52-3.4-4.8l.28-.9c1.06-.1 2.06-.1 3.07-.1 3.18 0 4.9 3 4.9 6.2 0 3.12-1.72 7.1-1.72 10.33 0 4.18 1.8 6.64 4.64 7.03l5.58-22.84h4.52l-5.58 22.84c4.08-.78 8.1-4.35 9.5-10.44 1.56-6.7 2.84-13 11.4-13h1.44M295.67 110.74l-11.5 25.3h-2.9l10.72-25.86-10.68-25.86h2.9l11.45 25.3v1.12" fill="#3a414a"/><path d="M120 200V20L20 110z" stroke="#3a414a" stroke-width="5" fill-opacity="0"/><path d="M125 110h90" stroke="#3a414a" stroke-width="5" fill="none"/><path d="M125.06 112.5h-2.56v-5h2.56zM217.5 112.5h-2.56v-5h2.56z" stroke="#3a414a" stroke-width=".05" fill="#3a414a"/></g></svg>