<svg xmlns="http://www.w3.org/2000/svg" xmlns:lucid="lucid" width="586" height="480"><g lucid:page-tab-id="0_0"><path d="M466 20v180l100-90z" stroke="#3a414a" stroke-width="5" fill-opacity="0"/><path d="M466 74.85h75.07v70.3H466z" fill="#fff" fill-opacity="0"/><path d="M477.86 137.18h-4.05V83.16h4.06v54.02M514.92 105.28c0 10.57-3.87 21.15-13.9 21.15-10.5 0-13.88-11.44-13.88-21.52 0-10.86 4.24-20.88 14.14-20.88 8.05 0 13.64 8.66 13.64 21.26m-5.9.3c0-12.77-2.7-19.96-8.1-19.96-5.1 0-7.88 7.25-7.88 19.72 0 12.48 2.7 19.5 8 19.5 5.22 0 7.98-7.08 7.98-19.25M536.3 110.8l-12.65 27.86h-3.2l11.8-28.46-11.73-28.46h3.2l12.6 27.85v1.2" fill="#3a414a"/><path d="M266 60h100v100H266z" stroke="#3a414a" stroke-width="5" fill-opacity="0"/><path d="M284.1 80h63.8v61.54h-63.8z" fill="#fff" fill-opacity="0"/><path d="M347.88 87.52l-.28 1.1h-1.24c-5.25 0-6.7 1.94-7.33 4.36l-8.5 34.28c-.14.62-.28 1.24-.28 1.94 0 1.45 1.32 2.35 5.4 2.35h1.3l-.27 1.1h-22.74l.28-1.1h1.24c4.98 0 6.64-1.73 7.26-4.3l4.22-16.72H307.6l-4.23 16.73c-.14.42-.28 1.1-.28 1.66 0 1.66 1.24 2.63 5.3 2.63h1.4l-.28 1.1h-22.8l.27-1.1h1.23c5.2 0 6.78-1.94 7.33-4.3l8.5-34.27c.14-.4.28-1.18.28-1.66 0-1.45-1.1-2.7-5.4-2.7h-1.38l.28-1.1h22.8l-.27 1.1h-1.24c-5.46 0-6.7 1.94-7.26 4.36l-3.6 15h19.22l3.65-15c.14-.7.28-1.18.28-1.66 0-1.66-1.3-2.7-5.25-2.7h-1.4l.3-1.1h22.8" fill="#3a414a"/><path d="M466 280v180l100-90z" stroke="#3a414a" stroke-width="5" fill-opacity="0"/><path d="M466 334.85h75.07v70.3H466z" fill="#fff" fill-opacity="0"/><path d="M477.86 397.18h-4.05v-54.02h4.06v54.02M514.92 365.28c0 10.57-3.87 21.15-13.9 21.15-10.5 0-13.88-11.44-13.88-21.52 0-10.86 4.24-20.88 14.14-20.88 8.05 0 13.64 8.66 13.64 21.26m-5.9.3c0-12.77-2.7-19.96-8.1-19.96-5.1 0-7.88 7.25-7.88 19.72 0 12.48 2.7 19.5 8 19.5 5.22 0 7.98-7.08 7.98-19.25M536.3 370.8l-12.65 27.86h-3.2l11.8-28.46-11.73-28.46h3.2l12.6 27.85v1.2" fill="#3a414a"/><path d="M371 110h90" stroke="#3a414a" stroke-width="5" fill="none"/><path d="M371.06 112.5h-2.56v-5h2.56zM463.5 112.5h-2.57v-5h2.57z" stroke="#3a414a" stroke-width=".05" fill="#3a414a"/><path d="M166 110c0 5.52-4.48 10-10 10s-10-4.48-10-10 4.48-10 10-10 10 4.48 10 10z" stroke="#3a414a" stroke-width="5" fill="#3a414a"/><path d="M196 370c0 22.1-17.9 40-40 40s-40-17.9-40-40 17.9-40 40-40 40 17.9 40 40zm-80 0h80m-40-40v80" stroke="#3a414a" stroke-width="5" fill="#fff"/><path d="M461 370H201" stroke="#3a414a" stroke-width="5" fill="none"/><path d="M463.5 372.5h-2.56v-5h2.56zM201.07 372.5h-2.72l.15-2.47-.1-2.53h2.67z" stroke="#3a414a" stroke-width=".05" fill="#3a414a"/><path d="M156 125.03V325" stroke="#3a414a" stroke-width="5" fill="none"/><path d="M156 122.53l2.5-.4v2.97h-5v-2.97zM158.5 327.65l-2.47-.15-2.53.1v-2.67h5z" stroke="#3a414a" stroke-width=".05" fill="#3a414a"/><path d="M261 110h-89.98" stroke="#3a414a" stroke-width="5" fill="none"/><path d="M263.5 112.5h-2.56v-5h2.56zM171.1 112.5h-2.97l.4-2.46-.34-2.54h2.9z" stroke="#3a414a" stroke-width=".05" fill="#3a414a"/><path d="M140.98 110H28.5" stroke="#3a414a" stroke-width="5" fill="none"/><path d="M143.47 110.04l.4 2.46h-2.96v-5h2.9z" stroke="#3a414a" stroke-width=".05" fill="#3a414a"/><path d="M28.56 110H26M111 370H28.5" stroke="#3a414a" stroke-width="5" fill="none"/><path d="M113.5 369.97l.1 2.53h-2.67v-5h2.72z" stroke="#3a414a" stroke-width=".05" fill="#3a414a"/><path d="M28.56 370H26" stroke="#3a414a" stroke-width="5" fill="none"/></g></svg>