<svg xmlns="http://www.w3.org/2000/svg" xmlns:lucid="lucid" width="387.34" height="229.19"><g lucid:page-tab-id="7jcMIxutiEvq"><path d="M86 91.02h281.34V209.2H86z" fill="#fff" fill-opacity="0"/><path d="M107.78 97.63h-7.58v105.24h7.54v1.95H95.98V95.68h11.8v1.95M118.12 109.88l-.7-.18c1.28-4.22 4.07-7.2 8.7-7.2 4.1 0 6.9 2.45 6.9 6.1 0 2.12-1.14 4.34-4.12 6.1 1.96.85 2.75 1.4 3.7 2.36 1.23 1.38 1.94 3.42 1.94 5.73 0 2.34-.76 4.5-2.04 6.2-2.13 2.84-6.35 4.12-10.3 4.12-3.23 0-4.97-.93-4.97-2.52 0-.94.8-1.6 1.82-1.6.76 0 1.47.26 2.7 1.15 1.65 1.15 2.58 1.38 3.83 1.38 3.28 0 5.76-3.02 5.76-6.8 0-3.36-1.55-5.54-4.6-6.42-1-.3-2-.44-4.54-.44v-.62c1.7-.58 2.84-1.06 3.73-1.6 2.17-1.24 3.6-3.24 3.6-5.94 0-3.02-1.87-4.53-4.8-4.53-2.75 0-4.8 1.42-6.6 4.7M136.53 179.98c0 7.63-2.8 15.26-10.02 15.26-7.58 0-10.02-8.25-10.02-15.53 0-7.84 3.06-15.07 10.2-15.07 5.82 0 9.85 6.25 9.85 15.35m-4.25.22c0-9.23-1.96-14.42-5.86-14.42-3.68 0-5.68 5.23-5.68 14.24 0 9 1.95 14.07 5.77 14.07 3.78 0 5.78-5.12 5.78-13.9M201.76 102.16l.08.7c-6.96 1.16-11.93 5.95-13.13 12.65 2.2-1.68 3.7-2 5.65-2 5.2 0 8.38 3.56 8.38 9.3 0 2.83-.8 5.3-2.26 7.1-1.64 2.03-4.13 3.22-7.06 3.22-3.5 0-6.3-1.64-7.84-4.48-1.24-2.26-2.08-5.4-2.08-8.52 0-4.8 1.68-9 4.83-12.24 3.83-4 7.33-5.06 13.46-5.72m-3.02 22c0-5.68-1.87-8.6-6-8.6-2.52 0-5.14 1.06-5.14 5.14 0 6.74 2.13 11.18 6.3 11.18 3.2 0 4.84-3.2 4.84-7.72M203.1 179.98c0 7.63-2.8 15.26-10.04 15.26-7.6 0-10.03-8.25-10.03-15.53 0-7.84 3.06-15.07 10.2-15.07 5.82 0 9.86 6.25 9.86 15.35m-4.27.22c0-9.23-1.96-14.42-5.86-14.42-3.68 0-5.68 5.23-5.68 14.24 0 9 1.94 14.07 5.76 14.07 3.77 0 5.77-5.12 5.77-13.9M269.68 117.86c0 7.63-2.8 15.26-10.02 15.26-7.6 0-10.03-8.25-10.03-15.52 0-7.86 3.06-15.1 10.2-15.1 5.8 0 9.85 6.27 9.85 15.36m-4.26.22c0-9.23-1.95-14.42-5.85-14.42-3.7 0-5.68 5.24-5.68 14.25 0 9 1.94 14.07 5.76 14.07 3.77 0 5.76-5.1 5.76-13.9M269.55 187.2h-4.57v7.42h-3.46v-7.4H249.1v-2.85l13.93-19.74h1.95v19.74h4.57v2.84m-8.03-2.83v-15.22l-10.65 15.22h10.65M336.23 117.86c0 7.63-2.8 15.26-10.02 15.26-7.58 0-10.02-8.25-10.02-15.52 0-7.86 3.06-15.1 10.2-15.1 5.82 0 9.85 6.27 9.85 15.36m-4.26.22c0-9.23-1.95-14.42-5.85-14.42-3.68 0-5.68 5.24-5.68 14.25 0 9 1.95 14.07 5.77 14.07 3.78 0 5.77-5.1 5.77-13.9M334.86 187.74c0 4.57-3.42 7.5-8.74 7.5-5.02 0-8.52-3.06-8.52-7.23 0-3.05 1.02-4.78 5.77-8.1-4.57-3.78-5.5-5.47-5.5-8.35 0-4.26 3.68-6.92 8.6-6.92 4.4 0 7.46 2.88 7.46 6.34 0 3.33-1.56 4.84-5.95 7.2 5.46 3.63 6.88 6.02 6.88 9.57m-4-16.77c0-3.06-1.8-5.1-4.83-5.1-2.97 0-4.88 1.64-4.88 4.4 0 2.74 1.64 4.78 5.54 7.1 3-1.8 4.17-3.65 4.17-6.4m-3.73 11.58l-2.62-1.78c-2.62 2.13-3.55 3.95-3.55 6.84 0 4.1 2.26 6.4 5.64 6.4 2.9 0 4.9-2 4.9-4.88 0-2.75-1.34-4.53-4.36-6.57M357.3 204.82h-11.8v-1.95h7.6V97.63h-7.6v-1.95h11.8v109.14"/><path d="M101.14 46H48.5" stroke="#000" stroke-width="5" fill="none"/><path d="M117.9 46l-14.26 4.64v-9.28z" stroke="#000" stroke-width="5"/><path d="M48.56 46H46M46 101.14V48.5" stroke="#000" stroke-width="5" fill="none"/><path d="M46 117.9l-4.64-14.26h9.28z" stroke="#000" stroke-width="5"/><path d="M46 48.56V46" stroke="#000" stroke-width="5" fill="none"/><path d="M24.6 124.3h16.85v44.75H24.6z" fill="#fff" fill-opacity="0"/><path d="M38.5 131.48c0 1.4-1.2 2.5-2.6 2.5-1.56 0-2.6-1.1-2.6-2.5 0-1.36 1.04-2.7 2.6-2.7 1.4 0 2.6 1.34 2.6 2.7m-1.62 6.76l-4.98 19.7c-.05.3-.05.53-.05.74 0 .38.32.55.7.55 1.2 0 1.52-.65 3.46-2.76l.72.54c-1.9 2.44-4.6 5.7-7.25 5.7-1.52 0-2.17-1.04-2.17-2.5 0-.65 0-1.68 4.28-18.28.05-.1.1-.5.1-.65 0-.92-.43-1.2-1.67-1.2-.48 0-1.13.12-1.5.22l-.17-.87"/><path d="M129.84 24.3h21.9v51.6h-21.9z" fill="#fff" fill-opacity="0"/><path d="M150.8 31.48c0 1.4-1.2 2.5-2.6 2.5-1.56 0-2.6-1.1-2.6-2.5 0-1.36 1.04-2.7 2.6-2.7 1.4 0 2.6 1.34 2.6 2.7m-1.13 6.76l-5.84 23c-1.2 4.75-4.22 10.97-10.06 10.97-2.87 0-3.95-1.78-3.95-3.3 0-1.18.65-2.8 2.54-2.8 1.03 0 1.9.8 1.9 2.05 0 .8-.87.97-.87 1.84 0 .2.26.53.53.53 2.5 0 4.27-4.1 5.57-9.3l4.98-19.64c0-.66-.55-1.2-1.74-1.2-.43 0-1.08.1-1.46.27l-.16-.92"/></g></svg>