<svg xmlns="http://www.w3.org/2000/svg" xmlns:lucid="lucid" width="780" height="267"><g lucid:page-tab-id="oZMddNLlF0SQ"><path d="M540 133.5c0 27.6-22.4 50-50 50s-50-22.4-50-50 22.4-50 50-50 50 22.4 50 50z" stroke="#3a414a" stroke-width="5" fill-opacity="0"/><path d="M473.98 111.48h33.5v44.04h-33.5z" fill="#fff" fill-opacity="0"/><path d="M504.67 120.9l-.97.57c-1.73-2.5-4.14-3.25-8.3-3.25-4.35 0-9.6 3.04-9.6 7.8 0 2.22 2.28 3.53 5.4 3.53 1.44 0 2.55-.62 4.28-.62 1.52 0 2.62.5 2.62 1.38 0 1.2-.7 2.16-2.97 2.16-.62 0-2.76-.42-4.2-.42-3.4 0-9.2 2.28-9.2 7.12 0 4.22 4.5 5.4 8.63 5.4 3.67 0 8.16-1.8 10.44-5.05l.9.7c-2.9 4.07-6.84 7.2-14.52 7.2-8.57 0-11.47-3.47-11.47-7.06 0-5.05 3.4-8.3 8.03-9.47-2.42-.83-4-2.28-4-4.56 0-5.6 5.73-10.15 15.54-10.15 4.3 0 8.5 2.28 9.4 4.76" fill="#3a414a"/><path d="M521.25 24.75h17.5v2.5h-17.5zM521.25 239.75h17.5v2.5h-17.5zM741.25 24.75h17.5v2.5h-17.5zM741.25 239.75h17.5v2.5h-17.5z" stroke="#3a414a" stroke-width="2.5" fill="none"/><path d="M490 78.5V32a6 6 0 0 1 6-6h21.5" stroke="#3a414a" stroke-width="5" fill="none"/><path d="M492.5 81.12l-2.48-.12-2.52.1v-2.67h5zM520 28.5h-2.56v-5H520z" stroke="#3a414a" stroke-width=".05" fill="#3a414a"/><path d="M490 188.5V235a6 6 0 0 0 6 6h21.5" stroke="#3a414a" stroke-width="5" fill="none"/><path d="M489.98 186l2.52-.1v2.67h-5v-2.7zM520 243.5h-2.56v-5H520z" stroke="#3a414a" stroke-width=".05" fill="#3a414a"/><path d="M542.5 240.95h.37l2.77-.18 2.7-.3 2.6-.37 2.58-.5 2.52-.58 2.5-.7 2.46-.8 2.45-.9 2.46-1.05 2.47-1.16 2.48-1.28 2.52-1.46 2.55-1.62 2.62-1.82 2.7-2.04 2.77-2.3 2.9-2.62 3.05-2.97 3.2-3.44 3.44-3.98 3.7-4.7 4.1-5.65 4.65-6.98 5.46-9.05 7.03-12.8 12.76-25.98 24.17-50.4 7.02-12.82 5.45-9.05 4.64-6.98 4.1-5.65 3.7-4.7 3.44-3.98 3.2-3.43 3.05-2.96 2.9-2.6 2.77-2.32 2.7-2.04 2.6-1.82 2.56-1.62 2.52-1.46 2.48-1.3 2.46-1.15 2.45-1.04 2.45-.92 2.47-.8 2.5-.7 2.5-.6 2.58-.48 2.62-.38 2.7-.3 2.76-.16h.37" stroke="#3a414a" stroke-width="5" stroke-linejoin="round" fill="none"/><path d="M542.62 243.45l-5.56.1v-.05H540v-5h-.02l2.53-.05zM743 23.5h-3v5h-2.56v-5H743z" stroke="#3a414a" stroke-width=".05" fill="#3a414a"/><path d="M542.5 26.05h.37l2.77.18 2.7.3 2.6.37 2.58.5 2.52.58 2.5.7 2.46.8 2.45.9 2.46 1.05 2.47 1.16 2.48 1.28 2.52 1.46 2.55 1.62 2.62 1.82 2.7 2.04 2.77 2.3 2.9 2.62 3.05 2.97 3.2 3.44 3.44 3.98 3.7 4.7 4.1 5.65 4.65 6.98 5.46 9.05 7.03 12.8 12.76 25.98 24.17 50.4 7.02 12.82 5.45 9.05 4.64 6.98 4.1 5.65 3.7 4.7 3.44 3.98 3.2 3.43 3.05 2.96 2.9 2.6 2.77 2.32 2.7 2.04 2.6 1.82 2.56 1.62 2.52 1.46 2.48 1.3 2.46 1.15 2.45 1.04 2.45.92 2.47.8 2.5.7 2.5.6 2.58.48 2.62.38 2.7.3 2.76.16h.37" stroke="#3a414a" stroke-width="5" stroke-linejoin="round" fill="none"/><path d="M542.62 23.55l-.1 5-2.54-.05h.02v-5h-2.95v-.06zM740 238.5v5h3-5.56v-5z" stroke="#3a414a" stroke-width=".05" fill="#3a414a"/><path d="M120 133.5c0 27.6-22.4 50-50 50s-50-22.4-50-50 22.4-50 50-50 50 22.4 50 50z" stroke="#3a414a" stroke-width="5" fill-opacity="0"/><path d="M53.98 111.48h33.5v44.04h-33.5z" fill="#fff" fill-opacity="0"/><path d="M84.67 120.9l-.97.57c-1.73-2.5-4.14-3.25-8.3-3.25-4.35 0-9.6 3.04-9.6 7.8 0 2.22 2.28 3.53 5.4 3.53 1.44 0 2.55-.62 4.28-.62 1.52 0 2.62.5 2.62 1.38 0 1.2-.7 2.16-2.97 2.16-.62 0-2.76-.42-4.2-.42-3.4 0-9.2 2.28-9.2 7.12 0 4.22 4.5 5.4 8.63 5.4 3.67 0 8.16-1.8 10.44-5.05l.9.7c-2.9 4.07-6.84 7.2-14.52 7.2-8.57 0-11.47-3.47-11.47-7.06 0-5.05 3.4-8.3 8.03-9.47-2.42-.83-4-2.28-4-4.56 0-5.6 5.73-10.15 15.54-10.15 4.3 0 8.5 2.28 9.4 4.76" fill="#3a414a"/><path d="M121.25 24.75h57.5v2.5h-57.5zM121.25 239.75h57.5v2.5h-57.5z" stroke="#3a414a" stroke-width="2.5" fill="none"/><path d="M70 78.5V32a6 6 0 0 1 6-6h41.5" stroke="#3a414a" stroke-width="5" fill="none"/><path d="M72.5 81.12L70.02 81l-2.52.1v-2.67h5zM120 28.5h-2.56v-5H120z" stroke="#3a414a" stroke-width=".05" fill="#3a414a"/><path d="M70 188.5V235a6 6 0 0 0 6 6h41.5" stroke="#3a414a" stroke-width="5" fill="none"/><path d="M69.98 186l2.52-.1v2.67h-5v-2.7zM120 243.5h-2.56v-5H120z" stroke="#3a414a" stroke-width=".05" fill="#3a414a"/><path d="M256.38 115.86h47.38v39.66h-47.38z" fill="#fff" fill-opacity="0"/><path d="M300.4 128.88h-40.7v-4.56h40.7v4.56m0 13.83h-40.7v-4.56h40.7v4.57" fill="#3a414a"/><path d="M376.7 107.1h47.37v52.8H376.7z" fill="#fff" fill-opacity="0"/><path d="M419.6 135.8h-38.48v-4.56h38.5v4.56" fill="#3a414a"/></g></svg>