<svg xmlns="http://www.w3.org/2000/svg" xmlns:lucid="lucid" width="292" height="160"><g lucid:page-tab-id="Ucl9RxCfUHg2"><path d="M146 20l60 60-60 60-60-60z" stroke="#3a414a" stroke-width="5" fill-opacity="0"/><path d="M127.6 49.23h36.8v61.54h-36.8z" fill="#fff" fill-opacity="0"/><path d="M164.02 55.7l-10.3 41.34c-.07.2-.13.63-.13.83 0 .42.33.63 1.02.63 1.38 0 3.32-2.42 4.3-3.88l.75.83c-2.08 3.1-5.74 7.26-9 7.26-2.2 0-2.75-1.58-2.75-2.82 0-1.38.14-2.35.7-4.43h-.36c-5.1 6.43-9.26 7.26-11.82 7.26-5.04 0-6.08-5.1-6.08-8.77 0-7.12 7.12-22.53 17.77-22.53 3.93 0 5.52 1.8 5.6 3.46h.13l3.66-14.45c.07-.26.14-.54.14-.82 0-.9-.48-1.38-2.28-1.38-.62 0-1.38.14-1.86.2l-.28-1.03m-.55 21c0-3.24-1.05-4.9-3.88-4.9-6.85 0-12.44 13.83-12.44 20.46 0 3.4 1.93 4.57 3.87 4.57 4.83 0 9.4-6.5 11.33-12.86.76-2.42 1.1-5.1 1.1-7.26" fill="#3a414a"/><path d="M79.96 80H28.5" stroke="#3a414a" stroke-width="5" fill="none"/><path d="M82.46 80l2.5 2.5H79.9v-5h5.06z" stroke="#3a414a" stroke-width=".05" fill="#3a414a"/><path d="M28.56 80H26M212.04 80h51.46" stroke="#3a414a" stroke-width="5" fill="none"/><path d="M212.1 82.5h-5.06l2.5-2.5-2.5-2.5h5.06z" stroke="#3a414a" stroke-width=".05" fill="#3a414a"/><path d="M263.44 80H266" stroke="#3a414a" stroke-width="5" fill="none"/></g></svg>