<svg xmlns="http://www.w3.org/2000/svg" xmlns:lucid="lucid" width="632" height="138.41"><g lucid:page-tab-id="Hxo9G-Z6xhRe"><path d="M86.57 20h100v98.4h-100z" stroke="#3a414a" stroke-width="5" fill-opacity="0"/><path d="M191.57 69.2h51.93" stroke="#3a414a" stroke-width="5" fill="none"/><path d="M191.64 71.7h-2.57v-5h2.57z" stroke="#3a414a" stroke-width=".05" fill="#3a414a"/><path d="M243.44 69.2H246M81.57 50H28.5" stroke="#3a414a" stroke-width="5" fill="none"/><path d="M84.07 52.5H81.5v-5h2.57z" stroke="#3a414a" stroke-width=".05" fill="#3a414a"/><path d="M28.56 50H26M81.57 90H28.5" stroke="#3a414a" stroke-width="5" fill="none"/><path d="M84.07 92.5H81.5v-5h2.57z" stroke="#3a414a" stroke-width=".05" fill="#3a414a"/><path d="M28.56 90H26" stroke="#3a414a" stroke-width="5" fill="none"/><path d="M446.57 20h100v98.4h-100z" stroke="#3a414a" stroke-width="5" fill-opacity="0"/><path d="M292.9 34.06h47.36v70.3H292.9z" fill="#fff" fill-opacity="0"/><path d="M336.9 78.42H314.4l-8.3 19.07h-3.73l8.3-19.08H296.2v-4.56h16.45l4.08-9.27H296.2v-4.57h22.53l8.3-19.07h3.73l-8.36 19.07h14.5v4.56h-16.44l-4.08 9.26h20.53v4.56" fill="#3a414a"/><path d="M441.57 69.2H388.5" stroke="#3a414a" stroke-width="5" fill="none"/><path d="M444.07 71.7h-2.56v-5h2.57z" stroke="#3a414a" stroke-width=".05" fill="#3a414a"/><path d="M388.56 69.2H386M551.57 50.4h51.93" stroke="#3a414a" stroke-width="5" fill="none"/><path d="M551.64 52.9h-2.57v-5h2.57z" stroke="#3a414a" stroke-width=".05" fill="#3a414a"/><path d="M603.44 50.4H606M551.57 90.4h51.93" stroke="#3a414a" stroke-width="5" fill="none"/><path d="M551.64 92.9h-2.57v-5h2.57z" stroke="#3a414a" stroke-width=".05" fill="#3a414a"/><path d="M603.44 90.4H606" stroke="#3a414a" stroke-width="5" fill="none"/></g></svg>