<svg xmlns="http://www.w3.org/2000/svg" xmlns:lucid="lucid" width="272" height="138.41"><g lucid:page-tab-id=".jo9peF4f4Qn"><path d="M86.57 20h100v98.4h-100z" stroke="#3a414a" stroke-width="5" fill-opacity="0"/><path d="M113.4 38.44h46.34v61.54H113.4z" fill="#fff" fill-opacity="0"/><path d="M159.7 45.96l-3.17 12.37h-1.1c.13-1.18.34-3.04.34-4.9 0-4.57-4-4.92-6.84-4.92h-6.77l-9.2 37.2c-.14.62-.34 1.1-.34 1.73 0 1.45 1.1 2.55 5.25 2.55h1.45l-.28 1.1H116.3l.28-1.1h1.25c5.4 0 6.77-1.93 7.32-4.28l9.2-37.2h-6.3c-5.73 0-10.57 4.23-11.8 9.83h-1.12l3.18-12.37h41.4" fill="#3a414a"/><path d="M191.57 69.2h51.93" stroke="#3a414a" stroke-width="5" fill="none"/><path d="M191.64 71.7h-2.57v-5h2.57z" stroke="#3a414a" stroke-width=".05" fill="#3a414a"/><path d="M243.44 69.2H246M81.57 50H28.5" stroke="#3a414a" stroke-width="5" fill="none"/><path d="M84.07 52.5H81.5v-5h2.57z" stroke="#3a414a" stroke-width=".05" fill="#3a414a"/><path d="M28.56 50H26M81.57 90H28.5" stroke="#3a414a" stroke-width="5" fill="none"/><path d="M84.07 92.5H81.5v-5h2.57z" stroke="#3a414a" stroke-width=".05" fill="#3a414a"/><path d="M28.56 90H26" stroke="#3a414a" stroke-width="5" fill="none"/></g></svg>