<svg xmlns="http://www.w3.org/2000/svg" xmlns:lucid="lucid" width="272" height="138.41"><g lucid:page-tab-id="0_0"><path d="M86.57 20h100v98.4h-100z" stroke="#3a414a" stroke-width="5" fill-opacity="0"/><path d="M106 37.5h62.3v61.55H106z" fill="#fff" fill-opacity="0"/><path d="M168.27 45.03l-.27 1.1h-1.25c-5.18 0-6.77 1.8-7.4 4.36l-9.95 39.66h-1.65L128.8 53.8h-.4l-7.47 30.97c-.14.55-.2 1.1-.2 1.86 0 1.4 1.17 2.42 5.24 2.42h1.32l-.3 1.1h-18.37l.27-1.1h1.25c5.18 0 6.77-1.93 7.32-4.28l8.7-35.18c-1.3-2.98-4.27-3.47-6.35-3.47h-1.3l.27-1.1h13.8l16.32 32.13h.35l6.7-26.67c.14-.64.28-1.12.28-1.8 0-1.4-1.18-2.57-5.26-2.57h-1.4l.3-1.1h18.37" fill="#3a414a"/><path d="M191.57 69.2h51.93" stroke="#3a414a" stroke-width="5" fill="none"/><path d="M191.64 71.7h-2.57v-5h2.57z" stroke="#3a414a" stroke-width=".05" fill="#3a414a"/><path d="M243.44 69.2H246M81.57 50H28.5" stroke="#3a414a" stroke-width="5" fill="none"/><path d="M84.07 52.5H81.5v-5h2.57z" stroke="#3a414a" stroke-width=".05" fill="#3a414a"/><path d="M28.56 50H26M81.57 90H28.5" stroke="#3a414a" stroke-width="5" fill="none"/><path d="M84.07 92.5H81.5v-5h2.57z" stroke="#3a414a" stroke-width=".05" fill="#3a414a"/><path d="M28.56 90H26" stroke="#3a414a" stroke-width="5" fill="none"/></g></svg>