<svg xmlns="http://www.w3.org/2000/svg" xmlns:lucid="lucid" width="140" height="272"><g lucid:page-tab-id="ct~8zX.LDbM3"><path d="M20 86h100v98.4H20z" stroke="#3a414a" stroke-width="5" fill-opacity="0"/><path d="M48.15 103.5h47.03v61.55H48.15z" fill="#fff" fill-opacity="0"/><path d="M95.15 110l-3.67 15.26h-1.1c.07-.55.07-1.1.07-1.65 0-5.8-3.32-11.05-11.06-11.05-2.98 0-8.37 1.8-8.37 6.7 0 4.77 4.2 7.67 8.08 11 4.1 3.38 8.17 7.4 8.17 13.4 0 6.84-6 13.2-16.87 13.2-6.5 0-8.64-2.63-13.9-2.63-1.72 0-2.68.76-3.8 2.63h-1.1l4.15-16.3h1.1c0 .68.08 1.44.08 2.13.2 5.46 2.76 11.54 11.82 11.54 8.77 0 10.78-4.9 10.78-9.4 0-2.42-1.25-4.7-3.18-6.63-2.08-2.15-5.4-4.64-7.88-7.06-1.94-1.94-5.05-5.67-5.05-9.06 0-5.6 4.5-12.1 15.42-12.1 5.73 0 9.67 2.57 12.64 2.57 1.4 0 2.35-1.52 2.56-2.56h1.1" fill="#3a414a"/><path d="M94.9 36.24H120v36.93H94.9z" fill="#fff" fill-opacity="0"/><path d="M108.56 42.93l.68-.62c1.9-1.78 3.77-2.8 5.46-2.8 2.95 0 4.55 2.6 4.55 7.5 0 6.24-5.32 14.4-12.28 14.4-1.16 0-2.03-.18-2.95-.9l-1.16 4.83c-.15.62-.25 1.16-.25 1.7 0 1.05.55 2.07 2.96 2.07h.78l-.15.58H94.87l.14-.58c3-.15 3.34-1.6 3.92-3.82l5.66-22.44c0-.92-.05-1.6-1.5-1.6-.4 0-.97.1-1.36.2l-.1-.78 7.65-1.16-.88 3.34m-1.74 6.48L104.45 59c.68.76 1.65 1 2.23 1 4.88 0 8.5-8.36 8.5-13.78 0-3.04-1.35-4-2.46-4-2.56 0-5.08 2.94-6.04 7.1" fill="#3a414a"/><path d="M22.2 36.24h13.2v36.93H22.2z" fill="#fff" fill-opacity="0"/><path d="M33.72 40.13l-6.14 24.52s-.04.16-.04.45c0 .3.17.54.5.54.95 0 2.2-1.62 2.57-2.28l.68.5c-1.42 1.66-3.2 4.4-5.6 4.4-1.25 0-1.62-1.08-1.62-2.12 0-.5.12-1.08.25-1.5l5.32-21.15c.12-.55.12-.88.12-1 0-.5-.33-.92-1.3-.92-.28 0-.77.08-1.1.12l-.13-.62" fill="#3a414a"/><path d="M70 189.4v54.1" stroke="#3a414a" stroke-width="5" fill="none"/><path d="M72.5 189.48h-5v-2.57h5z" stroke="#3a414a" stroke-width=".05" fill="#3a414a"/><path d="M70 243.44V246M49.43 81V28.5" stroke="#3a414a" stroke-width="5" fill="none"/><path d="M51.93 83.5h-5v-2.56h5z" stroke="#3a414a" stroke-width=".05" fill="#3a414a"/><path d="M49.43 28.56V26M89.43 81V28.5" stroke="#3a414a" stroke-width="5" fill="none"/><path d="M91.93 83.5h-5v-2.56h5z" stroke="#3a414a" stroke-width=".05" fill="#3a414a"/><path d="M89.43 28.56V26" stroke="#3a414a" stroke-width="5" fill="none"/><path d="M75.6 196.87h26.23v43.06H75.6z" fill="#fff" fill-opacity="0"/><path d="M101.08 213l-.2.6c-3.23.33-4.6 1.2-6.42 2.8l-5.13 4.44 3.1 7.35c.72 1.7 1.3 2.85 2.56 2.85 1.44 0 2.5-2.08 3.57-3.53l.72.53c-.6 1.02-2.86 6.2-6.15 6.2-2.22 0-3.24-2.57-3.77-3.83l-3.05-7.1-2.7 2.36-2.18 8.03h-3.68l7.16-28.48c.1-.3.14-.63.14-.96 0-.54-.48-1.07-1.54-1.07-.44 0-.92 0-1.3.1l-.15-.7 7.64-1.2-5.47 22.06 8.08-7.2c.53-.5 1-1.12 1-1.75 0-.57-.76-.9-1.24-.9h-.6l.2-.6h9.38" fill="#3a414a"/></g></svg>