<svg xmlns="http://www.w3.org/2000/svg" xmlns:lucid="lucid" width="272" height="204.41"><g lucid:page-tab-id="Px~8qk7fxUp5"><path d="M86.57 86h100v98.4h-100z" stroke="#3a414a" stroke-width="5" fill-opacity="0"/><path d="M114.72 103.5h47.04v61.55h-47.04z" fill="#fff" fill-opacity="0"/><path d="M161.72 110l-3.66 15.26h-1.1c.06-.55.06-1.1.06-1.65 0-5.8-3.32-11.05-11.06-11.05-2.97 0-8.36 1.8-8.36 6.7 0 4.77 4.22 7.67 8.1 11 4.06 3.38 8.14 7.4 8.14 13.4 0 6.84-6 13.2-16.86 13.2-6.5 0-8.64-2.63-13.9-2.63-1.72 0-2.7.76-3.8 2.63h-1.1l4.15-16.3h1.1c0 .68.07 1.44.07 2.13.2 5.46 2.77 11.54 11.82 11.54 8.78 0 10.78-4.9 10.78-9.4 0-2.42-1.24-4.7-3.18-6.63-2.07-2.15-5.4-4.64-7.88-7.06-1.93-1.94-5.04-5.67-5.04-9.06 0-5.6 4.5-12.1 15.4-12.1 5.75 0 9.7 2.57 12.66 2.57 1.38 0 2.35-1.52 2.56-2.56h1.1" fill="#3a414a"/><path d="M146 36.24h25.1v36.93H146z" fill="#fff" fill-opacity="0"/><path d="M159.66 42.93l.68-.62c1.9-1.78 3.77-2.8 5.46-2.8 2.95 0 4.55 2.6 4.55 7.5 0 6.24-5.32 14.4-12.28 14.4-1.16 0-2.03-.18-2.95-.9l-1.16 4.83c-.15.62-.25 1.16-.25 1.7 0 1.05.55 2.07 2.96 2.07h.78l-.15.58h-11.32l.14-.58c3-.15 3.34-1.6 3.92-3.82l5.66-22.44c0-.92-.05-1.6-1.5-1.6-.4 0-.97.1-1.36.2l-.1-.78 7.65-1.16-.88 3.34m-1.74 6.48L155.55 59c.68.76 1.65 1 2.23 1 4.88 0 8.5-8.36 8.5-13.78 0-3.04-1.35-4-2.46-4-2.56 0-5.08 2.94-6.04 7.1" fill="#3a414a"/><path d="M47.15 86h15.4v43.06h-15.4z" fill="#fff" fill-opacity="0"/><path d="M60.6 90.54l-7.16 28.58s-.05.2-.05.53c0 .34.18.63.57.63 1.1 0 2.56-1.9 3-2.66l.77.58c-1.64 1.93-3.72 5.13-6.53 5.13-1.44 0-1.88-1.26-1.88-2.47 0-.58.15-1.26.3-1.74l6.2-24.67c.13-.63.13-1 .13-1.16 0-.6-.4-1.07-1.5-1.07-.34 0-.92.1-1.3.14l-.15-.72" fill="#3a414a"/><path d="M206 86h26.24v43.06H206z" fill="#fff" fill-opacity="0"/><path d="M231.5 102.14l-.2.58c-3.25.34-4.6 1.2-6.44 2.8l-5.13 4.46 3.1 7.35c.73 1.7 1.3 2.85 2.56 2.85 1.44 0 2.5-2.08 3.57-3.53l.73.53c-.58 1.02-2.86 6.2-6.14 6.2-2.23 0-3.24-2.57-3.78-3.83l-3.04-7.1-2.7 2.36-2.2 8.04h-3.66l7.15-28.48c.1-.3.15-.63.15-.97 0-.54-.48-1.07-1.55-1.07-.43 0-.92 0-1.3.1l-.15-.68 7.64-1.2-5.46 22.04 8.07-7.22c.54-.48 1.02-1.1 1.02-1.74 0-.58-.78-.92-1.26-.92h-.6l.2-.58h9.4" fill="#3a414a"/><path d="M191.57 135.2h51.93" stroke="#3a414a" stroke-width="5" fill="none"/><path d="M191.64 137.7h-2.57v-5h2.57z" stroke="#3a414a" stroke-width=".05" fill="#3a414a"/><path d="M243.44 135.2H246M81.57 135.2H28.5" stroke="#3a414a" stroke-width="5" fill="none"/><path d="M84.07 137.7H81.5v-5h2.57z" stroke="#3a414a" stroke-width=".05" fill="#3a414a"/><path d="M28.56 135.2H26M136.57 81V28.5" stroke="#3a414a" stroke-width="5" fill="none"/><path d="M139.07 83.5h-5v-2.56h5z" stroke="#3a414a" stroke-width=".05" fill="#3a414a"/><path d="M136.57 28.56V26" stroke="#3a414a" stroke-width="5" fill="none"/></g></svg>