<svg xmlns="http://www.w3.org/2000/svg" xmlns:lucid="lucid" width="1428.4" height="340"><g lucid:page-tab-id="tub9USbMXDql"><path d="M1082.4 30a10 10 0 0 1 10-10h260a10 10 0 0 1 10 10v280a10 10 0 0 1-10 10h-260a10 10 0 0 1-10-10z" fill-opacity="0"/><path d="M1118.86 20.1h18.7m18.67 0l18.68-.02m18.7 0h18.68m18.68-.02h18.7m18.67-.02H1287m18.7-.02h18.68m18.68-.02h9.34l1.57.12 1.52.37 1.44.6 1.34.8 1.2 1.03 1 1.2.83 1.33.6 1.45.38 1.54V38.5m0 20.1l.02 20.12m0 20.1l.02 20.12m0 20.1l.02 20.12m0 20.1l.02 20.13m0 20.1v20.1m.02 20.12v20.1m.02 20.12V310l-.12 1.56-.37 1.53-.6 1.44-.8 1.34-1.02 1.2-1.2 1-1.34.83-1.45.6-1.53.38h-9.34m-18.7 0l-18.67.02m-18.68 0l-18.7.02m-18.67 0h-18.67m-18.7.02h-18.67m-18.68.02h-18.68m-18.7.02h-18.67m-18.68.02h-9.35l-1.56-.12-1.53-.37-1.44-.6-1.33-.8-1.2-1.03-1.02-1.2-.8-1.33-.6-1.45-.37-1.54V301.5m-.02-20.1v-20.12m0-20.1v-20.12m-.02-20.1v-20.12m-.02-20.1V140.6m-.02-20.1v-20.1m0-20.12l-.02-20.1m0-20.12L1082.4 30l.13-1.56.36-1.53.6-1.44.8-1.34 1.03-1.2 1.2-1 1.33-.83 1.45-.6 1.54-.38h9.34" stroke="#3a414a" stroke-width="5" fill="none"/><path d="M1102.98 40h100v98.4h-100z" stroke="#3a414a" stroke-width="5" fill-opacity="0"/><path d="M1097.98 89.2h-53.08" stroke="#3a414a" stroke-width="5" fill="none"/><path d="M1100.48 91.7h-2.57v-5h2.58z" stroke="#3a414a" stroke-width=".05" fill="#3a414a"/><path d="M1044.97 89.2h-2.57" stroke="#3a414a" stroke-width="5" fill="none"/><path d="M1242.98 200h100v98.4h-100z" stroke="#3a414a" stroke-width="5" fill-opacity="0"/><path d="M1347.98 249.2h51.92" stroke="#3a414a" stroke-width="5" fill="none"/><path d="M1348.04 251.7h-2.56v-5h2.56z" stroke="#3a414a" stroke-width=".05" fill="#3a414a"/><path d="M1399.84 249.2h2.56M1207.98 89.2h79a6 6 0 0 1 6 6V195" stroke="#3a414a" stroke-width="5" fill="none"/><path d="M1208.04 91.7h-2.56v-5h2.56zM1295.48 197.5h-5v-2.56h5z" stroke="#3a414a" stroke-width=".05" fill="#3a414a"/><path d="M1102.4 160h62.3v61.54h-62.3z" fill="#fff" fill-opacity="0"/><path d="M1164.68 167.52l-.28 1.1h-1.24c-5.2 0-6.78 1.8-7.4 4.36l-9.95 39.67h-1.65l-18.94-36.35h-.4l-7.47 30.96c-.14.55-.2 1.1-.2 1.87 0 1.38 1.17 2.42 5.25 2.42h1.3l-.27 1.1h-18.37l.28-1.1h1.25c5.18 0 6.77-1.94 7.33-4.3l8.7-35.17c-1.3-2.97-4.28-3.45-6.35-3.45h-1.32l.3-1.1h13.8l16.32 32.13h.35l6.7-26.68c.14-.62.28-1.1.28-1.8 0-1.38-1.17-2.55-5.25-2.55h-1.38l.27-1.1h18.38" fill="#3a414a"/><path d="M1237.98 249.2H1040h37.5" stroke="#3a414a" stroke-width="5" fill="none"/><path d="M1240.48 251.7h-2.57v-5h2.58zM1080 251.7h-2.57v-5h2.57z" stroke="#3a414a" stroke-width=".05" fill="#3a414a"/><path d="M20 81.72h160.4V265.8H20z" fill="#fff" fill-opacity="0"/><path d="M69.14 145.72l-3.66 15.4h-1.1c.06-.54.06-1.17.06-2.9 0-4.5-2.14-9.95-10.5-9.95-13.9 0-22.05 13.9-22.05 25.7 0 7.76 4.13 14.8 13.47 14.8 6.77 0 11.8-3.38 14.92-6.77.48-.48.82-.9 1.17-1.38l1.38.9c-1.87 2.83-4.15 4.9-6.15 6.36-5.4 3.8-10.64 4.2-13.34 4.2-13.34 0-19.9-9.04-19.9-19.2 0-15.9 13.9-27.16 30.6-27.16 3.75 0 7.34 1.86 10.93 1.86.75 0 1.86-.14 2.9-1.86h1.24M84.55 173.97c0 1.27-1.07 2.25-2.34 2.25-1.4 0-2.34-.98-2.34-2.25 0-1.22.93-2.44 2.35-2.44 1.28 0 2.35 1.22 2.35 2.44m-1.02 6.1l-5.28 20.78c-1.08 4.3-3.8 9.92-9.1 9.92-2.58 0-3.56-1.6-3.56-2.98 0-1.1.58-2.55 2.3-2.55.92 0 1.7.73 1.7 1.85 0 .74-.78.88-.78 1.66 0 .2.24.5.5.5 2.24 0 3.85-3.72 5.02-8.4l4.5-17.75c0-.58-.5-1.06-1.57-1.06-.4 0-.97.1-1.32.24l-.14-.83M89.44 208.52l-.5-.93c2.7-1.82 4.07-3.62 4.07-5.24 0-.34-.3-.63-.68-.63-.4 0-.88.2-1.42.2-1.8 0-2.83-.84-2.83-2.5 0-1.66 1.17-2.78 2.93-2.78 2.2 0 3.9 1.7 3.9 4.25 0 2.93-2.1 6-5.46 7.62M109.98 183.55l.68-.63c1.9-1.8 3.8-2.84 5.52-2.84 2.98 0 4.6 2.64 4.6 7.58 0 6.3-5.38 14.56-12.4 14.56-1.2 0-2.07-.2-3-.93l-1.17 4.87c-.13.64-.23 1.18-.23 1.7 0 1.1.54 2.12 2.98 2.12h.78l-.15.57H96.15l.15-.58c3.03-.16 3.37-1.63 3.95-3.87l5.72-22.68c0-.93-.05-1.6-1.5-1.6-.4 0-1 .1-1.38.2l-.1-.8 7.7-1.17-.87 3.37m-1.76 6.55l-2.25 9.77c.7.8 1.67 1.03 2.25 1.03 4.94 0 8.6-8.45 8.6-13.93 0-3.08-1.37-4.05-2.5-4.05-2.58 0-5.12 2.98-6.1 7.18M174.6 255.68V259c-19.62-18.46-33.5-47.62-33.5-85.02 0-37.18 13.88-69.25 33.5-85V92c-12.3 12.73-25.9 40.1-25.9 81.98 0 42.37 13.6 66.5 25.9 81.7" fill="#3a414a"/><path d="M279.82 121.72h100v98.42h-100z" stroke="#3a414a" stroke-width="5" fill-opacity="0"/><path d="M307.97 139.23h46.34v61.54h-46.33z" fill="#fff" fill-opacity="0"/><path d="M354.28 146.75l-3.18 12.37H350c.13-1.17.34-3.04.34-4.9 0-4.57-4-4.9-6.85-4.9h-6.78l-9.2 37.17c-.13.6-.34 1.1-.34 1.72 0 1.45 1.1 2.56 5.26 2.56h1.45l-.3 1.1h-22.73l.28-1.1h1.24c5.38 0 6.77-1.94 7.32-4.3l9.2-37.17h-6.3c-5.73 0-10.57 4.22-11.82 9.82h-1.1l3.18-12.37h41.4" fill="#3a414a"/><path d="M274.82 170.93h-53.07" stroke="#3a414a" stroke-width="5" fill="none"/><path d="M277.32 173.43h-2.56v-5h2.56z" stroke="#3a414a" stroke-width=".05" fill="#3a414a"/><path d="M221.8 170.93h-2.55M384.82 170.93h51.93" stroke="#3a414a" stroke-width="5" fill="none"/><path d="M384.88 173.43h-2.56v-5h2.56z" stroke="#3a414a" stroke-width=".05" fill="#3a414a"/><path d="M436.68 170.93h2.57" stroke="#3a414a" stroke-width="5" fill="none"/><path d="M639.82 121.72h100v98.42h-100z" stroke="#3a414a" stroke-width="5" fill-opacity="0"/><path d="M667.97 139.23H715v61.54h-47.03z" fill="#fff" fill-opacity="0"/><path d="M714.97 145.7L711.3 161h-1.1c.07-.57.07-1.12.07-1.67 0-5.8-3.32-11.06-11.06-11.06-2.96 0-8.35 1.8-8.35 6.7 0 4.77 4.2 7.68 8.08 11 4.08 3.38 8.16 7.4 8.16 13.4 0 6.84-6.02 13.2-16.88 13.2-6.5 0-8.64-2.62-13.9-2.62-1.72 0-2.68.76-3.8 2.62h-1.1l4.15-16.3h1.1c0 .68.08 1.44.08 2.13.2 5.46 2.76 11.55 11.82 11.55 8.77 0 10.78-4.9 10.78-9.4 0-2.42-1.25-4.7-3.18-6.64-2.08-2.13-5.4-4.62-7.88-7.04-1.95-1.93-5.06-5.67-5.06-9.05 0-5.6 4.5-12.1 15.42-12.1 5.73 0 9.67 2.57 12.64 2.57 1.4 0 2.35-1.52 2.56-2.56h1.1" fill="#3a414a"/><path d="M744.82 170.93h51.92" stroke="#3a414a" stroke-width="5" fill="none"/><path d="M744.88 173.43h-2.56v-5h2.56z" stroke="#3a414a" stroke-width=".05" fill="#3a414a"/><path d="M796.68 170.93h2.56M634.82 170.93h-53.07" stroke="#3a414a" stroke-width="5" fill="none"/><path d="M637.32 173.43h-2.56v-5h2.56z" stroke="#3a414a" stroke-width=".05" fill="#3a414a"/><path d="M581.8 170.93h-2.55M689.82 116.72v-52.5" stroke="#3a414a" stroke-width="5" fill="none"/><path d="M692.32 119.22h-5v-2.56h5z" stroke="#3a414a" stroke-width=".05" fill="#3a414a"/><path d="M689.82 64.3V61.7" stroke="#3a414a" stroke-width="5" fill="none"/><path d="M479.25 140.18h58.23v61.54h-58.23z" fill="#fff" fill-opacity="0"/><path d="M533.98 171.04c0 14.17-11.47 25.65-25.64 25.65s-25.64-11.5-25.64-25.66c0-14.17 11.47-25.64 25.64-25.64s25.64 11.47 25.64 25.64m-25.64-3.24l13.2-13.2c-3.6-2.9-8.22-4.64-13.2-4.64-4.97 0-9.6 1.73-13.2 4.63m16.45 16.44l13.2 13.2c2.9-3.6 4.62-8.22 4.62-13.2 0-4.97-1.72-9.6-4.63-13.2m-19.7 13.2l-13.2-13.2c-2.9 3.6-4.64 8.23-4.64 13.2 0 4.98 1.73 9.6 4.63 13.2m29.64 3.25l-13.2-13.2-13.2 13.2c3.6 2.9 8.23 4.62 13.2 4.62 4.98 0 9.6-1.72 13.2-4.63" fill="#3a414a"/><path d="M842.17 77.96h51.87v184.08h-51.87z" fill="#fff" fill-opacity="0"/><path d="M847.9 88.53V85.2c19.63 18.47 33.52 47.36 33.52 85.02 0 36.9-13.9 69.26-33.52 85.02v-3.05c12.3-12.72 25.92-40.1 25.92-81.98 0-42.43-13.62-66.7-25.92-81.7" fill="#3a414a"/><path d="M940 151.9h47.38v39.66H940z" fill="#fff" fill-opacity="0"/><path d="M984.03 164.92h-40.7v-4.56h40.7v4.56m0 13.82h-40.7v-4.56h40.7v4.56"/><path d="M405.04 121.72h19.6v46.13h-19.6z" fill="#fff" fill-opacity="0"/><path d="M423.78 128.13c0 1.26-1.06 2.23-2.32 2.23-1.4 0-2.32-.97-2.32-2.23 0-1.2.92-2.42 2.32-2.42 1.26 0 2.32 1.22 2.32 2.43m-1.02 6.05l-5.22 20.55c-1.06 4.26-3.77 9.82-9 9.82-2.56 0-3.52-1.6-3.52-2.95 0-1.07.58-2.52 2.27-2.52.9 0 1.68.73 1.68 1.84 0 .73-.77.87-.77 1.64 0 .2.25.5.5.5 2.22 0 3.8-3.7 4.97-8.33l4.45-17.55c0-.6-.48-1.07-1.55-1.07-.38 0-.96.1-1.3.25l-.15-.82" fill="#3a414a"/><path d="M700 70.74h25.1v36.94H700z" fill="#fff" fill-opacity="0"/><path d="M713.66 77.44l.68-.63c1.9-1.78 3.77-2.8 5.46-2.8 2.95 0 4.55 2.6 4.55 7.5 0 6.24-5.32 14.4-12.28 14.4-1.16 0-2.03-.18-2.95-.9l-1.16 4.83c-.15.63-.25 1.16-.25 1.7 0 1.05.55 2.07 2.96 2.07h.78l-.15.58h-11.32l.14-.58c3-.15 3.34-1.6 3.92-3.82l5.66-22.44c0-.92-.05-1.6-1.5-1.6-.4 0-.97.1-1.36.2l-.1-.78L714.4 74l-.88 3.34m-1.74 6.48l-2.23 9.67c.68.77 1.65 1 2.23 1 4.88 0 8.5-8.36 8.5-13.78 0-3.04-1.35-4-2.46-4-2.56 0-5.08 2.94-6.04 7.1" fill="#3a414a"/></g></svg>