<svg xmlns="http://www.w3.org/2000/svg" xmlns:lucid="lucid" width="272" height="138.41"><g lucid:page-tab-id="0_0"><path d="M86.57 20h100v98.4h-100z" stroke="#3a414a" stroke-width="5" fill-opacity="0"/><path d="M114.72 37.5h46.34v61.55h-46.34z" fill="#fff" fill-opacity="0"/><path d="M161.03 45.03l-3.18 12.37h-1.1c.13-1.18.34-3.04.34-4.9 0-4.57-4.02-4.92-6.85-4.92h-6.77l-9.2 37.2c-.14.6-.34 1.1-.34 1.72 0 1.45 1.1 2.55 5.25 2.55h1.44l-.28 1.1h-22.73l.27-1.1h1.25c5.4 0 6.77-1.93 7.32-4.28l9.2-37.2h-6.3c-5.73 0-10.57 4.23-11.8 9.83h-1.12l3.18-12.37h41.4" fill="#3a414a"/><path d="M46 25.16h15.06v40H46z" fill="#fff" fill-opacity="0"/><path d="M58.43 31.57c0 1.26-1.06 2.23-2.32 2.23-1.4 0-2.3-.97-2.3-2.23 0-1.2.9-2.42 2.3-2.42 1.27 0 2.33 1.2 2.33 2.42m-1.45 6.05l-4.45 17.6c-.05.3-.05.5-.05.68 0 .34.3.48.63.48 1.07 0 1.36-.58 3.1-2.46l.63.48c-1.7 2.18-4.1 5.08-6.48 5.08-1.35 0-1.93-.92-1.93-2.23 0-.58 0-1.5 3.82-16.34.05-.1.1-.43.1-.57 0-.83-.4-1.07-1.5-1.07-.44 0-1.02.1-1.36.2l-.14-.78" fill="#3a414a"/><path d="M81.57 69.2H28.5" stroke="#3a414a" stroke-width="5" fill="none"/><path d="M84.07 71.7H81.5v-5h2.57z" stroke="#3a414a" stroke-width=".05" fill="#3a414a"/><path d="M28.56 69.2H26M191.57 69.2h51.93" stroke="#3a414a" stroke-width="5" fill="none"/><path d="M191.64 71.7h-2.57v-5h2.57z" stroke="#3a414a" stroke-width=".05" fill="#3a414a"/><path d="M243.44 69.2H246" stroke="#3a414a" stroke-width="5" fill="none"/><path d="M212.08 20h19.6v46.13h-19.6z" fill="#fff" fill-opacity="0"/><path d="M230.82 26.4c0 1.27-1.06 2.23-2.32 2.23-1.4 0-2.32-.96-2.32-2.22 0-1.2.92-2.4 2.32-2.4 1.26 0 2.32 1.2 2.32 2.4m-1 6.05L224.58 53c-1.08 4.26-3.8 9.82-9 9.82-2.57 0-3.54-1.6-3.54-2.95 0-1.06.58-2.5 2.27-2.5.92 0 1.7.7 1.7 1.83 0 .72-.78.87-.78 1.64 0 .2.24.5.48.5 2.23 0 3.83-3.7 5-8.33l4.44-17.55c0-.58-.5-1.06-1.55-1.06-.4 0-.97.08-1.3.23l-.15-.82" fill="#3a414a"/></g></svg>