<svg xmlns="http://www.w3.org/2000/svg" xmlns:lucid="lucid" width="412" height="298.41"><g lucid:page-tab-id="a7a9rR43~9nb"><path d="M86.57 20h100v98.4h-100z" stroke="#3a414a" stroke-width="5" fill-opacity="0"/><path d="M114.72 37.5h46.34v61.55h-46.34z" fill="#fff" fill-opacity="0"/><path d="M161.03 45.03l-3.18 12.37h-1.1c.13-1.18.34-3.04.34-4.9 0-4.57-4.02-4.92-6.85-4.92h-6.77l-9.2 37.2c-.14.6-.34 1.1-.34 1.72 0 1.45 1.1 2.55 5.25 2.55h1.44l-.28 1.1h-22.73l.27-1.1h1.25c5.4 0 6.77-1.93 7.32-4.28l9.2-37.2h-6.3c-5.73 0-10.57 4.23-11.8 9.83h-1.12l3.18-12.37h41.4" fill="#3a414a"/><path d="M46 25.16h15.06v40H46z" fill="#fff" fill-opacity="0"/><path d="M58.43 31.57c0 1.26-1.06 2.23-2.32 2.23-1.4 0-2.3-.97-2.3-2.23 0-1.2.9-2.42 2.3-2.42 1.27 0 2.33 1.2 2.33 2.42m-1.45 6.05l-4.45 17.6c-.05.3-.05.5-.05.68 0 .34.3.48.63.48 1.07 0 1.36-.58 3.1-2.46l.63.48c-1.7 2.18-4.1 5.08-6.48 5.08-1.35 0-1.93-.92-1.93-2.23 0-.58 0-1.5 3.82-16.34.05-.1.1-.43.1-.57 0-.83-.4-1.07-1.5-1.07-.44 0-1.02.1-1.36.2l-.14-.78" fill="#3a414a"/><path d="M81.57 69.2H28.5" stroke="#3a414a" stroke-width="5" fill="none"/><path d="M84.07 71.7H81.5v-5h2.57z" stroke="#3a414a" stroke-width=".05" fill="#3a414a"/><path d="M28.56 69.2H26M191.57 69.2h51.93" stroke="#3a414a" stroke-width="5" fill="none"/><path d="M191.64 71.7h-2.57v-5h2.57z" stroke="#3a414a" stroke-width=".05" fill="#3a414a"/><path d="M243.44 69.2H246" stroke="#3a414a" stroke-width="5" fill="none"/><path d="M212.08 20h19.6v46.13h-19.6z" fill="#fff" fill-opacity="0"/><path d="M230.82 26.4c0 1.27-1.06 2.23-2.32 2.23-1.4 0-2.32-.96-2.32-2.22 0-1.2.92-2.4 2.32-2.4 1.26 0 2.32 1.2 2.32 2.4m-1 6.05L224.58 53c-1.08 4.26-3.8 9.82-9 9.82-2.57 0-3.54-1.6-3.54-2.95 0-1.06.58-2.5 2.27-2.5.92 0 1.7.7 1.7 1.83 0 .72-.78.87-.78 1.64 0 .2.24.5.48.5 2.23 0 3.83-3.7 5-8.33l4.44-17.55c0-.58-.5-1.06-1.55-1.06-.4 0-.97.08-1.3.23l-.15-.82" fill="#3a414a"/><path d="M226.57 180h100v98.4h-100z" stroke="#3a414a" stroke-width="5" fill-opacity="0"/><path d="M254.72 197.5h47.04v61.55h-47.04z" fill="#fff" fill-opacity="0"/><path d="M301.72 204l-3.66 15.26h-1.1c.06-.55.06-1.1.06-1.65 0-5.8-3.32-11.05-11.06-11.05-2.97 0-8.36 1.8-8.36 6.7 0 4.77 4.22 7.67 8.1 11 4.06 3.38 8.14 7.4 8.14 13.4 0 6.84-6 13.2-16.86 13.2-6.5 0-8.64-2.63-13.9-2.63-1.72 0-2.7.76-3.8 2.63h-1.1l4.15-16.3h1.1c0 .68.07 1.44.07 2.13.2 5.46 2.77 11.54 11.82 11.54 8.78 0 10.78-4.9 10.78-9.4 0-2.42-1.24-4.7-3.18-6.63-2.07-2.15-5.4-4.64-7.88-7.06-1.93-1.94-5.04-5.67-5.04-9.06 0-5.6 4.5-12.1 15.4-12.1 5.75 0 9.7 2.57 12.66 2.57 1.38 0 2.35-1.52 2.56-2.56h1.1" fill="#3a414a"/><path d="M286 130.24h25.1v36.93H286z" fill="#fff" fill-opacity="0"/><path d="M299.66 136.93l.68-.62c1.9-1.78 3.77-2.8 5.46-2.8 2.95 0 4.55 2.6 4.55 7.5 0 6.24-5.32 14.4-12.28 14.4-1.16 0-2.03-.18-2.95-.9l-1.16 4.83c-.15.62-.25 1.16-.25 1.7 0 1.05.55 2.07 2.96 2.07h.78l-.15.58h-11.32l.14-.58c3-.15 3.34-1.6 3.92-3.82l5.66-22.44c0-.92-.05-1.6-1.5-1.6-.4 0-.97.1-1.36.2l-.1-.78 7.65-1.16-.88 3.34m-1.74 6.48l-2.23 9.67c.68.76 1.65 1 2.23 1 4.88 0 8.5-8.36 8.5-13.78 0-3.04-1.35-4-2.46-4-2.56 0-5.08 2.94-6.04 7.1" fill="#3a414a"/><path d="M187.15 180h15.4v43.06h-15.4z" fill="#fff" fill-opacity="0"/><path d="M200.6 184.54l-7.16 28.58s-.05.2-.05.53c0 .34.18.63.57.63 1.1 0 2.56-1.9 3-2.66l.77.58c-1.64 1.93-3.72 5.13-6.53 5.13-1.44 0-1.88-1.26-1.88-2.47 0-.58.15-1.26.3-1.74l6.2-24.67c.13-.63.13-1 .13-1.16 0-.6-.4-1.07-1.5-1.07-.34 0-.92.1-1.3.14l-.15-.72" fill="#3a414a"/><path d="M346 180h26.24v43.06H346z" fill="#fff" fill-opacity="0"/><path d="M371.5 196.14l-.2.58c-3.25.34-4.6 1.2-6.44 2.8l-5.13 4.46 3.1 7.35c.73 1.7 1.3 2.85 2.56 2.85 1.44 0 2.5-2.08 3.57-3.53l.73.53c-.58 1.02-2.86 6.2-6.14 6.2-2.23 0-3.24-2.57-3.78-3.83l-3.04-7.1-2.7 2.36-2.2 8.04h-3.66l7.15-28.48c.1-.3.15-.63.15-.97 0-.54-.48-1.07-1.55-1.07-.43 0-.92 0-1.3.1l-.15-.68 7.64-1.2-5.46 22.04 8.07-7.22c.54-.48 1.02-1.1 1.02-1.74 0-.58-.78-.92-1.26-.92h-.6l.2-.58h9.4" fill="#3a414a"/><path d="M331.57 229.2h51.93" stroke="#3a414a" stroke-width="5" fill="none"/><path d="M331.64 231.7h-2.57v-5h2.57z" stroke="#3a414a" stroke-width=".05" fill="#3a414a"/><path d="M383.44 229.2H386M221.57 229.2H168.5" stroke="#3a414a" stroke-width="5" fill="none"/><path d="M224.07 231.7h-2.56v-5h2.57z" stroke="#3a414a" stroke-width=".05" fill="#3a414a"/><path d="M168.56 229.2H166M276.57 175v-52.5" stroke="#3a414a" stroke-width="5" fill="none"/><path d="M279.07 177.5h-5v-2.56h5z" stroke="#3a414a" stroke-width=".05" fill="#3a414a"/><path d="M276.57 122.56V120" stroke="#3a414a" stroke-width="5" fill="none"/></g></svg>