<svg xmlns="http://www.w3.org/2000/svg" xmlns:lucid="lucid" width="592" height="140"><g lucid:page-tab-id="M3jcnRBtAb.J"><path d="M346 70c0 27.6-22.4 50-50 50s-50-22.4-50-50 22.4-50 50-50 50 22.4 50 50z" stroke="#3a414a" stroke-width="5" fill-opacity="0"/><path d="M279.98 39.23h32.04v61.54h-32.04z" fill="#fff" fill-opacity="0"/><path d="M311.15 49.86c0 1.45-1.03 3.18-3.18 3.18-4.63 0-.9-4.5-7.18-4.5-2.64 0-6.23 2-6.23 4.64 0 6.56 15.48 10.5 15.48 20.25 0 2.28-.35 5.46-1.25 7.74-2.42 5.94-8 11.47-15.96 11.47-6.7 0-10.1-4.5-10.1-10.02 0-8.22 6.85-17.35 16.53-18.32-3.18-3.17-7.2-5.32-7.2-9.05 0-6.63 7-9.54 11.55-9.54 3.46 0 7.53 1.12 7.53 4.16m-6.9 23.43c0-3.05-1.04-6.92-3.74-6.92-5.93 0-12.36 11.06-12.36 17.2 0 3.8 1.86 7.06 4.84 7.06 6.22 0 11.26-10.78 11.26-17.35" fill="#3a414a"/><path d="M241 70h-50" stroke="#3a414a" stroke-width="5" fill="none"/><path d="M243.5 69.98l.1 2.52h-2.67v-5h2.7zM191.06 72.5h-2.56v-5h2.56z" stroke="#3a414a" stroke-width=".05" fill="#3a414a"/><path d="M351 70h50" stroke="#3a414a" stroke-width="5" fill="none"/><path d="M351.07 72.5h-2.7l.13-2.48-.1-2.52h2.67zM403.5 72.5h-2.56v-5h2.56z" stroke="#3a414a" stroke-width=".05" fill="#3a414a"/><path d="M206 26.13h15.06v40H206z" fill="#fff" fill-opacity="0"/><path d="M218.43 32.54c0 1.25-1.06 2.22-2.32 2.22-1.4 0-2.3-.97-2.3-2.22 0-1.2.9-2.42 2.3-2.42 1.27 0 2.33 1.2 2.33 2.42m-1.45 6.04l-4.45 17.6c-.05.3-.05.5-.05.68 0 .34.3.48.63.48 1.07 0 1.36-.58 3.1-2.46l.63.48c-1.7 2.18-4.1 5.08-6.48 5.08-1.35 0-1.93-.92-1.93-2.22 0-.58 0-1.5 3.82-16.35.05-.1.1-.44.1-.58 0-.83-.4-1.08-1.5-1.08-.44 0-1.02.1-1.36.2l-.14-.78" fill="#3a414a"/><path d="M370.94 20h19.58v46.13h-19.58z" fill="#fff" fill-opacity="0"/><path d="M389.68 26.4c0 1.27-1.07 2.23-2.33 2.23-1.4 0-2.32-.96-2.32-2.22 0-1.2.92-2.4 2.32-2.4 1.26 0 2.33 1.2 2.33 2.4m-1.02 6.05L383.44 53c-1.07 4.26-3.78 9.82-9 9.82-2.56 0-3.53-1.6-3.53-2.95 0-1.06.6-2.5 2.28-2.5.92 0 1.7.7 1.7 1.83 0 .72-.78.87-.78 1.64 0 .2.24.5.5.5 2.2 0 3.8-3.7 4.97-8.33l4.45-17.55c0-.58-.5-1.06-1.55-1.06-.4 0-.97.08-1.3.23l-.15-.82" fill="#3a414a"/><path d="M406 20h100v100H406zM86 20h100v100H86z" stroke="#3a414a" stroke-width="5" fill-opacity="0"/><path d="M112.83 39.23h46.34v61.54h-46.34z" fill="#fff" fill-opacity="0"/><path d="M159.14 46.75l-3.18 12.37h-1.1c.13-1.17.34-3.04.34-4.9 0-4.57-4-4.9-6.85-4.9h-6.77l-9.2 37.17c-.13.6-.34 1.1-.34 1.72 0 1.45 1.1 2.56 5.26 2.56h1.45l-.28 1.1h-22.74l.28-1.1h1.25c5.4 0 6.78-1.94 7.33-4.3l9.2-37.17h-6.3c-5.73 0-10.57 4.22-11.82 9.82h-1.1l3.18-12.37h41.4" fill="#3a414a"/><path d="M434.74 39.23h47.04v61.54h-47.04z" fill="#fff" fill-opacity="0"/><path d="M481.74 45.7L478.08 61h-1.1c.06-.57.06-1.12.06-1.67 0-5.8-3.3-11.06-11.06-11.06-2.97 0-8.36 1.8-8.36 6.7 0 4.77 4.22 7.68 8.1 11 4.07 3.38 8.14 7.4 8.14 13.4 0 6.84-6 13.2-16.86 13.2-6.5 0-8.64-2.62-13.9-2.62-1.72 0-2.7.76-3.8 2.62h-1.1l4.15-16.3h1.1c0 .68.07 1.44.07 2.13.2 5.46 2.77 11.55 11.82 11.55 8.78 0 10.78-4.9 10.78-9.4 0-2.42-1.24-4.7-3.18-6.64-2.07-2.13-5.4-4.62-7.88-7.04-1.93-1.93-5.04-5.67-5.04-9.05 0-5.6 4.5-12.1 15.4-12.1 5.75 0 9.7 2.57 12.66 2.57 1.38 0 2.35-1.52 2.56-2.56h1.1" fill="#3a414a"/><path d="M81 70H28.5" stroke="#3a414a" stroke-width="5" fill="none"/><path d="M83.5 72.5h-2.56v-5h2.56z" stroke="#3a414a" stroke-width=".05" fill="#3a414a"/><path d="M28.56 70H26M511 70h52.5" stroke="#3a414a" stroke-width="5" fill="none"/><path d="M511.06 72.5h-2.56v-5h2.56z" stroke="#3a414a" stroke-width=".05" fill="#3a414a"/><path d="M563.44 70H566" stroke="#3a414a" stroke-width="5" fill="none"/><path d="M46 23.07h26.24v43.06H46z" fill="#fff" fill-opacity="0"/><path d="M71.5 39.2l-.2.6c-3.25.33-4.6 1.2-6.44 2.8l-5.13 4.44 3.1 7.35c.73 1.7 1.3 2.85 2.56 2.85 1.44 0 2.5-2.08 3.57-3.53l.73.53c-.58 1.02-2.86 6.2-6.14 6.2-2.23 0-3.24-2.57-3.78-3.83l-3.04-7.1-2.7 2.36-2.2 8.03H48.2l7.15-28.48c.1-.3.15-.63.15-.96 0-.54-.48-1.07-1.55-1.07-.43 0-.92 0-1.3.1l-.15-.7 7.64-1.2-5.46 22.06 8.07-7.2c.54-.5 1.02-1.12 1.02-1.75 0-.57-.78-.9-1.26-.9h-.6l.2-.6h9.4" fill="#3a414a"/><path d="M530.72 23.07h15.4v43.06h-15.4z" fill="#fff" fill-opacity="0"/><path d="M544.17 27.6L537 56.18s-.04.2-.04.54c0 .33.2.62.58.62 1.12 0 2.57-1.88 3-2.65l.78.57c-1.65 1.93-3.73 5.12-6.53 5.12-1.46 0-1.9-1.27-1.9-2.47 0-.6.15-1.26.3-1.75l6.18-24.66c.15-.63.15-1.02.15-1.16 0-.58-.4-1.06-1.5-1.06-.34 0-.92.1-1.3.14l-.15-.73" fill="#3a414a"/></g></svg>