<svg xmlns="http://www.w3.org/2000/svg" xmlns:lucid="lucid" width="1152" height="140"><g lucid:page-tab-id="aDkca47DmsJk"><path d="M346 70c0 27.6-22.4 50-50 50s-50-22.4-50-50 22.4-50 50-50 50 22.4 50 50z" stroke="#3a414a" stroke-width="5" fill-opacity="0"/><path d="M279.98 39.23h32.04v61.54h-32.04z" fill="#fff" fill-opacity="0"/><path d="M311.15 49.86c0 1.45-1.03 3.18-3.18 3.18-4.63 0-.9-4.5-7.18-4.5-2.64 0-6.23 2-6.23 4.64 0 6.56 15.48 10.5 15.48 20.25 0 2.28-.35 5.46-1.25 7.74-2.42 5.94-8 11.47-15.96 11.47-6.7 0-10.1-4.5-10.1-10.02 0-8.22 6.85-17.35 16.53-18.32-3.18-3.17-7.2-5.32-7.2-9.05 0-6.63 7-9.54 11.55-9.54 3.46 0 7.53 1.12 7.53 4.16m-6.9 23.43c0-3.05-1.04-6.92-3.74-6.92-5.93 0-12.36 11.06-12.36 17.2 0 3.8 1.86 7.06 4.84 7.06 6.22 0 11.26-10.78 11.26-17.35" fill="#3a414a"/><path d="M241 70h-50" stroke="#3a414a" stroke-width="5" fill="none"/><path d="M243.5 69.98l.1 2.52h-2.67v-5h2.7zM191.06 72.5h-2.56v-5h2.56z" stroke="#3a414a" stroke-width=".05" fill="#3a414a"/><path d="M351 70h50" stroke="#3a414a" stroke-width="5" fill="none"/><path d="M351.07 72.5h-2.7l.13-2.48-.1-2.52h2.67zM403.5 72.5h-2.56v-5h2.56z" stroke="#3a414a" stroke-width=".05" fill="#3a414a"/><path d="M406 20h100v100H406zM86 20h100v100H86z" stroke="#3a414a" stroke-width="5" fill-opacity="0"/><path d="M112.83 39.23h46.34v61.54h-46.34z" fill="#fff" fill-opacity="0"/><path d="M159.14 46.75l-3.18 12.37h-1.1c.13-1.17.34-3.04.34-4.9 0-4.57-4-4.9-6.85-4.9h-6.77l-9.2 37.17c-.13.6-.34 1.1-.34 1.72 0 1.45 1.1 2.56 5.26 2.56h1.45l-.28 1.1h-22.74l.28-1.1h1.25c5.4 0 6.78-1.94 7.33-4.3l9.2-37.17h-6.3c-5.73 0-10.57 4.22-11.82 9.82h-1.1l3.18-12.37h41.4" fill="#3a414a"/><path d="M434.74 39.23h47.04v61.54h-47.04z" fill="#fff" fill-opacity="0"/><path d="M481.74 45.7L478.08 61h-1.1c.06-.57.06-1.12.06-1.67 0-5.8-3.3-11.06-11.06-11.06-2.97 0-8.36 1.8-8.36 6.7 0 4.77 4.22 7.68 8.1 11 4.07 3.38 8.14 7.4 8.14 13.4 0 6.84-6 13.2-16.86 13.2-6.5 0-8.64-2.62-13.9-2.62-1.72 0-2.7.76-3.8 2.62h-1.1l4.15-16.3h1.1c0 .68.07 1.44.07 2.13.2 5.46 2.77 11.55 11.82 11.55 8.78 0 10.78-4.9 10.78-9.4 0-2.42-1.24-4.7-3.18-6.64-2.07-2.13-5.4-4.62-7.88-7.04-1.93-1.93-5.04-5.67-5.04-9.05 0-5.6 4.5-12.1 15.4-12.1 5.75 0 9.7 2.57 12.66 2.57 1.38 0 2.35-1.52 2.56-2.56h1.1" fill="#3a414a"/><path d="M81 70H28.5" stroke="#3a414a" stroke-width="5" fill="none"/><path d="M83.5 72.5h-2.56v-5h2.56z" stroke="#3a414a" stroke-width=".05" fill="#3a414a"/><path d="M28.56 70H26M511 70h52.5" stroke="#3a414a" stroke-width="5" fill="none"/><path d="M511.06 72.5h-2.56v-5h2.56z" stroke="#3a414a" stroke-width=".05" fill="#3a414a"/><path d="M563.44 70H566" stroke="#3a414a" stroke-width="5" fill="none"/><path d="M612.3 52.28h47.4v39.67h-47.4z" fill="#fff" fill-opacity="0"/><path d="M656.34 65.3h-40.7v-4.55h40.7v4.56m0 13.83h-40.7v-4.56h40.7v4.56" fill="#3a414a"/><path d="M966 20h100v100H966zM766 20h100v100H766z" stroke="#3a414a" stroke-width="5" fill-opacity="0"/><path d="M792.83 39.23h46.34v61.54h-46.34z" fill="#fff" fill-opacity="0"/><path d="M839.14 46.75l-3.18 12.37h-1.1c.13-1.17.34-3.04.34-4.9 0-4.57-4-4.9-6.85-4.9h-6.77l-9.2 37.17c-.13.6-.34 1.1-.34 1.72 0 1.45 1.1 2.56 5.26 2.56h1.45l-.28 1.1h-22.74l.28-1.1h1.25c5.4 0 6.78-1.94 7.33-4.3l9.2-37.17h-6.3c-5.73 0-10.57 4.22-11.82 9.82h-1.1l3.18-12.37h41.4" fill="#3a414a"/><path d="M994.74 39.23h47.04v61.54h-47.04z" fill="#fff" fill-opacity="0"/><path d="M1041.74 45.7l-3.66 15.3h-1.1c.06-.57.06-1.12.06-1.67 0-5.8-3.3-11.06-11.06-11.06-2.97 0-8.36 1.8-8.36 6.7 0 4.77 4.22 7.68 8.1 11 4.07 3.38 8.14 7.4 8.14 13.4 0 6.84-6 13.2-16.86 13.2-6.5 0-8.64-2.62-13.9-2.62-1.72 0-2.7.76-3.8 2.62h-1.1l4.15-16.3h1.1c0 .68.07 1.44.07 2.13.2 5.46 2.77 11.55 11.82 11.55 8.78 0 10.78-4.9 10.78-9.4 0-2.42-1.24-4.7-3.18-6.64-2.07-2.13-5.4-4.62-7.88-7.04-1.93-1.93-5.04-5.67-5.04-9.05 0-5.6 4.5-12.1 15.4-12.1 5.75 0 9.7 2.57 12.66 2.57 1.38 0 2.35-1.52 2.56-2.56h1.1" fill="#3a414a"/><path d="M761 70h-52.5" stroke="#3a414a" stroke-width="5" fill="none"/><path d="M763.5 72.5h-2.56v-5h2.56z" stroke="#3a414a" stroke-width=".05" fill="#3a414a"/><path d="M708.56 70H706M871 70h90" stroke="#3a414a" stroke-width="5" fill="none"/><path d="M871.06 72.5h-2.56v-5h2.56zM963.5 72.5h-2.56v-5h2.56z" stroke="#3a414a" stroke-width=".05" fill="#3a414a"/><path d="M1071 70h52.5" stroke="#3a414a" stroke-width="5" fill="none"/><path d="M1071.06 72.5h-2.56v-5h2.56z" stroke="#3a414a" stroke-width=".05" fill="#3a414a"/><path d="M1123.44 70h2.56" stroke="#3a414a" stroke-width="5" fill="none"/></g></svg>