<svg xmlns="http://www.w3.org/2000/svg" xmlns:lucid="lucid" width="272" height="140"><g lucid:page-tab-id="0_0"><path d="M186 70c0 27.6-22.4 50-50 50S86 97.6 86 70s22.4-50 50-50 50 22.4 50 50z" stroke="#3a414a" stroke-width="5" fill-opacity="0"/><path d="M119.98 39.23h32.04v61.54h-32.04z" fill="#fff" fill-opacity="0"/><path d="M151.15 49.86c0 1.45-1.03 3.18-3.18 3.18-4.63 0-.9-4.5-7.18-4.5-2.64 0-6.23 2-6.23 4.64 0 6.56 15.48 10.5 15.48 20.25 0 2.28-.35 5.46-1.25 7.74-2.42 5.94-8 11.47-15.96 11.47-6.7 0-10.1-4.5-10.1-10.02 0-8.22 6.85-17.35 16.53-18.32-3.18-3.17-7.2-5.32-7.2-9.05 0-6.63 7-9.54 11.55-9.54 3.46 0 7.53 1.12 7.53 4.16m-6.9 23.43c0-3.05-1.04-6.92-3.74-6.92-5.93 0-12.36 11.06-12.36 17.2 0 3.8 1.86 7.06 4.84 7.06 6.22 0 11.26-10.78 11.26-17.35" fill="#3a414a"/><path d="M81 70H28.5" stroke="#3a414a" stroke-width="5" fill="none"/><path d="M83.5 69.98l.1 2.52h-2.67v-5h2.7z" stroke="#3a414a" stroke-width=".05" fill="#3a414a"/><path d="M28.56 70H26M191 70h52.5" stroke="#3a414a" stroke-width="5" fill="none"/><path d="M191.07 72.5h-2.7l.13-2.48-.1-2.52h2.67z" stroke="#3a414a" stroke-width=".05" fill="#3a414a"/><path d="M243.44 70H246" stroke="#3a414a" stroke-width="5" fill="none"/><path d="M46 26.13h15.06v40H46z" fill="#fff" fill-opacity="0"/><path d="M58.43 32.54c0 1.25-1.06 2.22-2.32 2.22-1.4 0-2.3-.97-2.3-2.22 0-1.2.9-2.42 2.3-2.42 1.27 0 2.33 1.2 2.33 2.42m-1.45 6.04l-4.45 17.6c-.05.3-.05.5-.05.68 0 .34.3.48.63.48 1.07 0 1.36-.58 3.1-2.46l.63.48c-1.7 2.18-4.1 5.08-6.48 5.08-1.35 0-1.93-.92-1.93-2.22 0-.58 0-1.5 3.82-16.35.05-.1.1-.44.1-.58 0-.83-.4-1.08-1.5-1.08-.44 0-1.02.1-1.36.2l-.14-.78" fill="#3a414a"/><path d="M210.94 20h19.58v46.13h-19.58z" fill="#fff" fill-opacity="0"/><path d="M229.68 26.4c0 1.27-1.07 2.23-2.33 2.23-1.4 0-2.32-.96-2.32-2.22 0-1.2.92-2.4 2.32-2.4 1.26 0 2.33 1.2 2.33 2.4m-1.02 6.05L223.44 53c-1.07 4.26-3.78 9.82-9 9.82-2.56 0-3.53-1.6-3.53-2.95 0-1.06.6-2.5 2.28-2.5.92 0 1.7.7 1.7 1.83 0 .72-.78.87-.78 1.64 0 .2.24.5.5.5 2.2 0 3.8-3.7 4.97-8.33l4.45-17.55c0-.58-.5-1.06-1.55-1.06-.4 0-.97.08-1.3.23l-.15-.82" fill="#3a414a"/></g></svg>