<svg xmlns="http://www.w3.org/2000/svg" xmlns:lucid="lucid" width="702.93" height="220"><g lucid:page-tab-id="lnr9o~z~Q8P5"><path d="M343.5 60h100v98.4h-100z" stroke="#3a414a" stroke-width="5" fill-opacity="0"/><path d="M371.65 77.5H418v61.55h-46.35z" fill="#fff" fill-opacity="0"/><path d="M417.96 85.03l-3.18 12.37h-1.1c.13-1.18.34-3.04.34-4.9 0-4.57-4-4.92-6.85-4.92h-6.77l-9.2 37.2c-.13.6-.34 1.1-.34 1.72 0 1.45 1.1 2.55 5.26 2.55h1.45l-.28 1.1h-22.75l.28-1.1h1.24c5.4 0 6.78-1.93 7.33-4.28l9.2-37.2h-6.3c-5.74 0-10.57 4.23-11.82 9.83h-1.1l3.18-12.37h41.4" fill="#3a414a"/><path d="M602.93 20v180l80-90z" stroke="#3a414a" stroke-width="5" fill-opacity="0"/><path d="M615.52 85.8h35v48.4h-35z" fill="#fff" fill-opacity="0"/><path d="M632.6 93.94l-6.16 22.53c-.2.7-.27 1.45-.27 2.2 0 2.64 1.38 4.58 4.14 4.58 7.48 0 12.32-7.8 14.53-14.03.55-1.66 1.04-3.4 1.04-5.12 0-5.1-4.22-4.5-4.22-7.53 0-2.35 1.73-2.9 3.73-2.9 2.9 0 3.25 3.52 3.25 5.73 0 6.84-2.7 13.82-6.7 19.35-2.98 4.15-8.3 7.2-13.4 7.2-4.44 0-8.03-1.4-8.03-6.44 0-1.44.2-2.9.62-4.27l4-14.52c.15-.54.36-1.16.36-1.7 0-1.4-3.04-1.4-3.94-1.4v-1.03c3.6-.9 7.32-1.38 10.78-2.9" fill="#3a414a"/><path d="M448.5 109.2H597.92" stroke="#3a414a" stroke-width="5" fill="none"/><path d="M448.56 111.7H446v-5h2.56zM600.43 111.7h-2.57v-5h2.57z" stroke="#3a414a" stroke-width=".05" fill="#3a414a"/><path d="M86 59.07h100v98.4H86z" stroke="#3a414a" stroke-width="5" fill-opacity="0"/><path d="M114.15 79.23h47.03v61.54h-47.03z" fill="#fff" fill-opacity="0"/><path d="M161.15 85.7l-3.67 15.3h-1.1c.07-.57.07-1.12.07-1.67 0-5.8-3.32-11.06-11.06-11.06-2.98 0-8.37 1.8-8.37 6.7 0 4.77 4.2 7.68 8.08 11 4.1 3.38 8.17 7.4 8.17 13.4 0 6.84-6 13.2-16.87 13.2-6.5 0-8.64-2.62-13.9-2.62-1.72 0-2.68.76-3.8 2.62h-1.1l4.15-16.3h1.1c0 .68.08 1.44.08 2.13.2 5.46 2.76 11.55 11.82 11.55 8.77 0 10.78-4.9 10.78-9.4 0-2.42-1.25-4.7-3.18-6.64-2.08-2.13-5.4-4.62-7.88-7.04-1.94-1.93-5.05-5.67-5.05-9.05 0-5.6 4.5-12.1 15.42-12.1 5.73 0 9.67 2.57 12.64 2.57 1.4 0 2.35-1.52 2.56-2.56h1.1" fill="#3a414a"/><path d="M81 108.28H28.5" stroke="#3a414a" stroke-width="5" fill="none"/><path d="M83.5 110.78h-2.56v-5h2.56z" stroke="#3a414a" stroke-width=".05" fill="#3a414a"/><path d="M28.56 108.28H26M191 108.28h147.5" stroke="#3a414a" stroke-width="5" fill="none"/><path d="M191.06 110.78h-2.56v-5h2.56zM341 110.78h-2.56v-5H341z" stroke="#3a414a" stroke-width=".05" fill="#3a414a"/><path d="M193.72 65.06h25.1V102h-25.1z" fill="#fff" fill-opacity="0"/><path d="M207.38 71.76l.68-.63c1.88-1.8 3.77-2.8 5.46-2.8 2.95 0 4.55 2.6 4.55 7.5 0 6.23-5.32 14.4-12.3 14.4-1.15 0-2.02-.2-2.94-.92l-1.16 4.85c-.14.63-.24 1.16-.24 1.7 0 1.06.53 2.07 2.95 2.07h.77l-.14.58h-11.3l.14-.58c3-.14 3.33-1.6 3.9-3.82l5.67-22.44c0-.92-.04-1.6-1.5-1.6-.37 0-.95.1-1.34.2l-.1-.77 7.64-1.17-.87 3.33m-1.74 6.48l-2.23 9.68c.68.77 1.64 1 2.22 1 4.88 0 8.5-8.36 8.5-13.77 0-3.05-1.35-4.02-2.46-4.02-2.57 0-5.08 2.95-6.05 7.1" fill="#3a414a"/><path d="M312.28 60.47h19.6v46.13h-19.6z" fill="#fff" fill-opacity="0"/><path d="M331.02 66.88c0 1.25-1.06 2.22-2.32 2.22-1.4 0-2.32-.97-2.32-2.22 0-1.2.92-2.42 2.32-2.42 1.26 0 2.32 1.2 2.32 2.42M330 72.92l-5.22 20.56c-1.06 4.25-3.77 9.8-9 9.8-2.56 0-3.52-1.58-3.52-2.94 0-1.06.58-2.5 2.27-2.5.92 0 1.7.7 1.7 1.83 0 .72-.78.87-.78 1.64 0 .2.24.5.48.5 2.23 0 3.82-3.68 4.98-8.32l4.46-17.56c0-.58-.48-1.06-1.55-1.06-.37 0-.95.1-1.3.24l-.14-.82" fill="#3a414a"/><path d="M455.13 62h15.07v40h-15.07z" fill="#fff" fill-opacity="0"/><path d="M467.56 68.4c0 1.27-1.06 2.23-2.32 2.23-1.4 0-2.32-.96-2.32-2.22 0-1.2.92-2.4 2.32-2.4 1.26 0 2.32 1.2 2.32 2.4m-1.45 6.05l-4.44 17.6c-.05.3-.05.5-.05.68 0 .34.3.5.64.5 1.07 0 1.36-.6 3.1-2.48l.63.48c-1.7 2.18-4.1 5.08-6.48 5.08-1.37 0-1.95-.9-1.95-2.2 0-.6 0-1.5 3.82-16.36.05-.1.1-.43.1-.58 0-.82-.4-1.06-1.5-1.06-.44 0-1.02.1-1.35.2l-.15-.78" fill="#3a414a"/><path d="M566 60.47h26.24v43.06H566z" fill="#fff" fill-opacity="0"/><path d="M591.5 76.6l-.2.6c-3.25.33-4.6 1.2-6.44 2.8l-5.13 4.45 3.1 7.35c.73 1.7 1.3 2.85 2.56 2.85 1.44 0 2.5-2.08 3.57-3.53l.73.53c-.58 1.02-2.86 6.2-6.14 6.2-2.23 0-3.24-2.57-3.78-3.83l-3.04-7.1-2.7 2.36-2.2 8.03h-3.66l7.15-28.47c.1-.3.15-.63.15-.97 0-.53-.48-1.06-1.55-1.06-.43 0-.92 0-1.3.1l-.15-.7 7.64-1.2-5.46 22.06 8.07-7.2c.54-.5 1.02-1.12 1.02-1.75 0-.57-.78-.9-1.26-.9h-.6l.2-.6h9.4" fill="#3a414a"/></g></svg>