<svg xmlns="http://www.w3.org/2000/svg" xmlns:lucid="lucid" width="313.33" height="169.75"><g lucid:page-tab-id="0_0"><path d="M108.88 51.33h100v98.42h-100z" stroke="#3a414a" stroke-width="5" fill-opacity="0"/><path d="M137.03 68.84h46.34v61.54h-46.34z" fill="#fff" fill-opacity="0"/><path d="M183.33 76.36l-3.18 12.37h-1.1c.14-1.17.34-3.04.34-4.9 0-4.57-4.02-4.9-6.85-4.9h-6.77l-9.2 37.17c-.13.62-.34 1.1-.34 1.73 0 1.45 1.1 2.56 5.25 2.56h1.44l-.27 1.1h-22.74l.27-1.1h1.25c5.4 0 6.77-1.95 7.33-4.3l9.2-37.18h-6.3c-5.74 0-10.58 4.2-11.82 9.8h-1.1l3.17-12.36h41.4" fill="#3a414a"/><path d="M103.88 100.4l-32.63-1.87-13.6-1.67-7.68-1.45-5.03-1.26L41.37 93l-2.68-1.06-2.1-.97-1.66-.9-1.38-.87-1.14-.82-.98-.8-.84-.78-.73-.76-.63-.76-.57-.76-.5-.77-.43-.8-.4-.8-.33-.83-.3-.87-.24-.93-.2-1-.15-1.07-.08-1.18-.02-.94.02-.9.06-.95.1-.96.14-.97.2-1 .23-1 .28-1.02.34-1.05.4-1.06.45-1.07.52-1.1.58-1.12.66-1.14.74-1.18.83-1.2.92-1.2 1.04-1.25 1.16-1.28 1.3-1.33 1.43-1.35 1.6-1.4 1.8-1.43 2.05-1.5 2.3-1.5 2.6-1.6 2.98-1.62 3.4-1.7 3.9-1.72 4.5-1.78 5.25-1.83 6.16-1.85 7.27-1.87 8.68-1.83 10.44-1.76 12.74-1.6 15.7-1.3 19.7-.82L160.2 26l20.72.42 16.34 1 13.12 1.38 10.7 1.57 8.84 1.68 7.38 1.73 6.24 1.74 5.3 1.72 4.58 1.7 3.96 1.66 3.45 1.62 3.02 1.58 2.66 1.54 2.38 1.5 2.1 1.46 1.88 1.42 1.68 1.4 1.5 1.35 1.37 1.34 1.24 1.32 1.1 1.28 1.02 1.27.9 1.25.83 1.23.73 1.23.67 1.2.6 1.22.53 1.2.47 1.2.4 1.18.37 1.18.3 1.2.26 1.18.2 1.18.15 1.18.1 1.2.05 1.16V76l-.04 1.7-.14 1.47-.2 1.3-.26 1.18-.32 1.07-.37 1-.4.94-.48.9-.52.85-.6.84-.66.82-.75.8-.87.82-1 .82-1.16.84-1.38.87-1.7.9-2.07.95-2.65 1-3.54 1.07-4.94 1.15-7.5 1.23-12.95 1.24-28.97.78" stroke="#3a414a" stroke-width="5" stroke-linejoin="round" fill="none"/><path d="M106.38 98.04v5l-2.7-.15.28-5zM213.94 98.04v5h-2.56v-5z" stroke="#3a414a" stroke-width=".05" fill="#3a414a"/><path d="M79.9 51.33h19.58v46.13H79.9z" fill="#fff" fill-opacity="0"/><path d="M98.64 57.74c0 1.26-1.07 2.23-2.33 2.23-1.4 0-2.3-.97-2.3-2.23 0-1.2.9-2.42 2.3-2.42 1.27 0 2.34 1.2 2.34 2.42m-1.02 6.05L92.4 84.33c-1.07 4.26-3.78 9.82-9 9.82-2.56 0-3.53-1.6-3.53-2.95 0-1.06.58-2.5 2.27-2.5.92 0 1.7.72 1.7 1.83 0 .73-.78.87-.78 1.64 0 .2.24.5.5.5 2.2 0 3.8-3.7 4.97-8.33l4.45-17.56c0-.58-.5-1.06-1.55-1.06-.4 0-.97.1-1.3.24l-.15-.82" fill="#3a414a"/><path d="M216.02 51.33h15.07v40H216z" fill="#fff" fill-opacity="0"/><path d="M228.45 57.74c0 1.26-1.06 2.23-2.32 2.23-1.4 0-2.32-.97-2.32-2.23 0-1.2.93-2.42 2.33-2.42 1.26 0 2.32 1.2 2.32 2.42M227 63.8l-4.45 17.6c-.05.28-.05.47-.05.67 0 .34.3.48.63.48 1.06 0 1.35-.58 3.1-2.47l.62.5c-1.7 2.16-4.1 5.07-6.48 5.07-1.35 0-1.93-.92-1.93-2.23 0-.58 0-1.5 3.82-16.34.05-.1.1-.44.1-.6 0-.8-.4-1.05-1.5-1.05-.44 0-1.02.1-1.36.2l-.14-.78" fill="#3a414a"/></g></svg>