<svg xmlns="http://www.w3.org/2000/svg" xmlns:lucid="lucid" width="260" height="220"><g lucid:page-tab-id="EJs9dYRDr~.H"><path d="M100 200V20l-80 90z" stroke="#3a414a" stroke-width="5" fill-opacity="0"/><path d="M52.28 77.04h35v57.17h-35z" fill="#fff" fill-opacity="0"/><path d="M69.35 93.94l-6.15 22.53c-.2.7-.27 1.45-.27 2.2 0 2.64 1.38 4.58 4.14 4.58 7.47 0 12.3-7.8 14.52-14.03.54-1.66 1.02-3.4 1.02-5.12 0-5.1-4.2-4.5-4.2-7.53 0-2.35 1.72-2.9 3.72-2.9 2.9 0 3.25 3.52 3.25 5.73 0 6.84-2.7 13.82-6.7 19.35-3 4.15-8.3 7.2-13.42 7.2-4.43 0-8.02-1.4-8.02-6.44 0-1.44.2-2.9.62-4.27l4-14.52c.15-.54.36-1.16.36-1.7 0-1.4-3.05-1.4-3.94-1.4v-1.03c3.6-.9 7.32-1.38 10.78-2.9M80.48 87.03h-21.5V83.3h21.5v3.73" fill="#3a414a"/><path d="M160 20v180l80-90z" stroke="#3a414a" stroke-width="5" fill-opacity="0"/><path d="M162.52 85.8h53.6v48.4h-53.6z" fill="#fff" fill-opacity="0"/><path d="M199.22 94.22l-5.53 19.97c-.42 1.58-.84 3.17-.84 4.83 0 2.7 1.3 4.22 4.08 4.22 7.46 0 11.33-7.95 13.48-14.03.55-1.66 1.03-3.4 1.03-5.12 0-5.1-4.07-4.56-4.2-7.53-.15-2.5 2.06-2.9 3.72-2.9 2.9 0 3.25 3.52 3.25 5.73 0 10.1-7.26 26.54-19.08 26.54-4.77 0-7.67-1.93-7.67-6.9 0-2.9.83-5.88 1.6-8.65-2.77 6.14-8.44 15.54-16.18 15.54-3.88 0-5.4-2.35-5.4-6 0-2.3.76-4.44 1.3-6.58l3.26-12.23c.2-.62.34-1.3.34-2 0-1.66-2.62-1.53-3.73-1.53v-1.03c3.66-.62 7.26-1.6 10.7-3.04l.3.2-5.6 21.22c-.22.9-.77 3.1-.77 5.05 0 1.8.42 3.25 1.94 3.25 4-.07 8.9-7.88 10.57-10.44 3.67-5.6 5.47-10.98 7.6-18.58h5.82" fill="#3a414a"/><path d="M105 110h50" stroke="#3a414a" stroke-width="5" stroke-linejoin="round" fill="none"/><path d="M105.06 112.5h-2.56v-5h2.56zM157.5 112.5h-2.56v-5h2.56z" stroke="#3a414a" stroke-width=".05" fill="#3a414a"/></g></svg>