<svg xmlns="http://www.w3.org/2000/svg" xmlns:lucid="lucid" width="140" height="140"><g lucid:page-tab-id="e5w-DqTyzY1."><path d="M120 70c0 27.6-22.4 50-50 50S20 97.6 20 70s22.4-50 50-50 50 22.4 50 50z" stroke="#3a414a" stroke-width="5" fill-opacity="0"/><path d="M52.63 47.98h34.74v44.04H52.63z" fill="#fff" fill-opacity="0"/><path d="M85.26 53.54l-6.3 23.85s-.06.13-.06.75c0 .76.4 1.17.97 1.17.7 0 1.72-.13 4.42-3.73l.82.82c-2.14 3.25-5.88 7.4-9.2 7.4-2.27 0-2.9-1.6-2.9-3.8 0-.9.42-2.36.76-3.46h-.27c-4.97 6.36-9.25 7.26-11.95 7.26-4.35 0-6.15-3.8-6.15-8.23 0-9.13 9.12-22.95 19.08-22.95 2.97 0 4.42 1.65 4.56 3.17h.07l.63-2.28h5.53M78 59.56c0-2.84-.83-4.9-3.46-4.9-4.7 0-8.84 6-11.2 11.8-1.24 3.12-1.93 6.16-1.93 8.58 0 3.66 2.16 4.56 4.02 4.56 4.77 0 9.6-6.57 11.54-13.13.56-1.8 1.04-4.56 1.04-6.9" fill="#3a414a"/></g></svg>