<svg xmlns="http://www.w3.org/2000/svg" xmlns:lucid="lucid" width="646" height="251.69"><g lucid:page-tab-id="0_0"><path d="M296.3 105.64h47.4v39.66h-47.4z" fill="#fff" fill-opacity="0"/><path d="M340.34 118.66h-40.7v-4.56h40.7v4.56m0 13.83h-40.7v-4.57h40.7v4.56" fill="#3a414a"/><path d="M80 75.47h100v100H80z" stroke="#3a414a" stroke-width="5" fill-opacity="0"/><path d="M81.25 24.75h157.5v2.5H81.25z" stroke="#3a414a" stroke-width="2.5" fill="none"/><path d="M75 125.26l-1.1-.16-2.1-.54-2.38-.88-2.72-1.32-3.12-1.92-3.55-2.7-3.9-3.66-4.08-4.64-3.88-5.43-3.32-5.78-2.53-5.64-1.73-5.17-1.04-4.55-.48-3.97-.08-3.4.3-3.56.74-4.12 1.4-4.78 2.18-5.43 3.12-5.92 3.95-5.97 4.44-5.45 4.5-4.5 4.16-3.4 3.67-2.4 3.16-1.67 2.7-1.1 2.35-.66 1.83-.33" stroke="#3a414a" stroke-width="5" stroke-linejoin="round" fill="none"/><path d="M77.5 122.97v5l-2.7-.13.27-5zM82.97 23.5H80v5h.02l-2.55.03-.07-5 5.57-.07z" stroke="#3a414a" stroke-width=".05" fill="#3a414a"/><path d="M21.25 224.44h157.5v2.5H21.25z" stroke="#3a414a" stroke-width="2.5" fill="none"/><path d="M185 125.6h.04l2.6.4 2.66.7 2.77 1.02 2.88 1.4 3 1.88 3.1 2.4 3.14 3 3.1 3.64 2.97 4.27 2.68 4.84 2.25 5.25 1.72 5.48 1.14 5.54.56 5.45.05 3.93-.4 5.24-.97 5.58-1.6 5.8-2.26 5.8-2.8 5.57-3.2 5.05-3.42 4.37-3.44 3.6-3.35 2.9-3.18 2.24-3 1.7-2.8 1.24-2.65.87-2.5.56-1.6.2" stroke="#3a414a" stroke-width="5" stroke-linejoin="round" fill="none"/><path d="M185.2 123.1l-.27 5-2.43-.13v-5zM182.65 228.1l-5.56.2v-.1h2.9v-5h-.05l2.52-.1z" stroke="#3a414a" stroke-width=".05" fill="#3a414a"/><path d="M106.83 94.7h46.34v61.54h-46.34z" fill="#fff" fill-opacity="0"/><path d="M153.14 102.22l-3.18 12.37h-1.1c.13-1.2.34-3.05.34-4.92 0-4.56-4-4.9-6.85-4.9h-6.77l-9.2 37.18c-.13.62-.34 1.1-.34 1.73 0 1.44 1.1 2.54 5.26 2.54h1.45l-.28 1.1h-22.74l.28-1.1h1.25c5.4 0 6.78-1.93 7.33-4.28l9.2-37.18h-6.3c-5.73 0-10.57 4.2-11.82 9.8h-1.1l3.18-12.36h41.4" fill="#3a414a"/><path d="M460 75.47h100v100H460z" stroke="#3a414a" stroke-width="5" fill-opacity="0"/><path d="M455 125.47h-52.5" stroke="#3a414a" stroke-width="5" stroke-linejoin="round" fill="none"/><path d="M457.5 127.97h-2.56v-5h2.56z" stroke="#3a414a" stroke-width=".05" fill="#3a414a"/><path d="M402.56 125.47H400" stroke="#3a414a" stroke-width="5" fill="none"/><path d="M565 125.47h52.5" stroke="#3a414a" stroke-width="5" stroke-linejoin="round" fill="none"/><path d="M565.06 127.97h-2.56v-5h2.56z" stroke="#3a414a" stroke-width=".05" fill="#3a414a"/><path d="M617.44 125.47H620" stroke="#3a414a" stroke-width="5" fill="none"/><path d="M471.48 81.57H560v74.67h-88.52z" fill="#fff" fill-opacity="0"/><path d="M517.8 102.22l-3.2 12.37h-1.1c.14-1.2.35-3.05.35-4.92 0-4.56-4-4.9-6.84-4.9h-6.76l-9.2 37.18c-.13.62-.34 1.1-.34 1.73 0 1.44 1.1 2.54 5.25 2.54h1.45l-.27 1.1H474.4l.26-1.1h1.25c5.4 0 6.78-1.93 7.33-4.28l9.2-37.18h-6.3c-5.73 0-10.57 4.2-11.8 9.8h-1.12l3.2-12.36h41.4M553.02 90.42l-2.25 8.75H550c.1-.83.23-2.15.23-3.47 0-3.23-2.83-3.47-4.83-3.47h-4.8l-6.5 26.3c-.1.43-.24.77-.24 1.2 0 1.04.8 1.82 3.72 1.82h1.02l-.2.78h-16.07l.2-.78h.88c3.82 0 4.8-1.37 5.2-3.03l6.5-26.3h-4.46c-4.06 0-7.48 3-8.36 6.95h-.78l2.25-8.75h29.27" fill="#3a414a"/></g></svg>