<svg xmlns="http://www.w3.org/2000/svg" xmlns:lucid="lucid" width="620" height="480"><g lucid:page-tab-id="0_0" stroke="#3a414a"><path d="M120 70c0 27.6-22.4 50-50 50S20 97.6 20 70s22.4-50 50-50 50 22.4 50 50zM120 410c0 27.6-22.4 50-50 50s-50-22.4-50-50 22.4-50 50-50 50 22.4 50 50zM340 240c0 27.6-22.4 50-50 50s-50-22.4-50-50 22.4-50 50-50 50 22.4 50 50zM600 240c0 27.6-22.4 50-50 50s-50-22.4-50-50 22.4-50 50-50 50 22.4 50 50z" stroke-width="10" fill-opacity="0"/><path d="M70 130v220" stroke-width="10" fill="none"/><path d="M75 130.13H65v-5.37l4.96.24 4.02-.14 1.02-.12zM75 355.24l-4.96-.24-4.02.14-1.02.12v-5.4h10z" stroke-width=".05" fill="#3a414a"/><path d="M117.2 106.95l125.3 96.48" stroke-width="10" fill="none"/><path d="M120.35 103.07l-6.1 7.92-4.28-3.3 2.12-2.28 3.33-4.4.73-1.18zM249.7 202.66l-1.8 1.92-3.33 4.4-.98 1.6-4.24-3.27 6.1-7.9z" stroke-width=".05" fill="#3a414a"/><path d="M246.47 206.48" stroke-width="10" fill="none"/><path stroke-width=".05" fill="#3a414a" transform="translate(-180 -180)"/><path stroke-width=".05" fill="#3a414a" transform="translate(-180 -180)"/><path d="M117.46 373.33l125.08-96.66" stroke-width="10" fill="none"/><path d="M120.62 377.2l-4.22 3.26-.08-.14-3.2-4.5-2.87-3.24 4.25-3.3zM243.68 269.68l3.2 4.5 2.87 3.24-4.25 3.3-6.12-7.92 4.22-3.26z" stroke-width=".05" fill="#3a414a"/><path d="M350 240h140" stroke-width="10" fill="none"/><path d="M350.13 245h-5.37l.24-4.96-.14-4.02-.12-1.02h5.4zM495 239.96l.14 4.02.12 1.02h-5.4v-10h5.38z" stroke-width=".05" fill="#3a414a"/></g></svg>