<svg xmlns="http://www.w3.org/2000/svg" xmlns:lucid="lucid" width="620" height="480"><g lucid:page-tab-id="lvM0mVUag6Y1"><path d="M120 70c0 27.6-22.4 50-50 50S20 97.6 20 70s22.4-50 50-50 50 22.4 50 50zM120 410c0 27.6-22.4 50-50 50s-50-22.4-50-50 22.4-50 50-50 50 22.4 50 50zM340 240c0 27.6-22.4 50-50 50s-50-22.4-50-50 22.4-50 50-50 50 22.4 50 50zM600 240c0 27.6-22.4 50-50 50s-50-22.4-50-50 22.4-50 50-50 50 22.4 50 50z" stroke="#3a414a" stroke-width="10" fill-opacity="0"/><path d="M70 130v51.37" stroke="#3a414a" stroke-width="10" fill="none"/><path d="M75 130.13H65v-5.37l4.96.24 4.02-.14 1.02-.12zM75 187.73l-1.37-.8-4.03-.62-3.98.92-.62.43v-6.4h10z" stroke="#3a414a" stroke-width=".05" fill="#3a414a"/><path d="M70 298.63V350" stroke="#3a414a" stroke-width="10" fill="none"/><path d="M66.37 293.08l4.03.6 3.98-.9.62-.43v6.4H65v-6.48zM75 355.24l-4.96-.24-4.02.14-1.02.12v-5.4h10z" stroke="#3a414a" stroke-width=".05" fill="#3a414a"/><path d="M246.47 206.48" stroke="#3a414a" stroke-width="10" fill="none"/><path stroke="#3a414a" stroke-width=".05" fill="#3a414a" transform="translate(-180 -180)"/><path stroke="#3a414a" stroke-width=".05" fill="#3a414a" transform="translate(-180 -180)"/><path d="M350 240h12.47" stroke="#3a414a" stroke-width="10" fill="none"/><path d="M350.13 245h-5.37l.24-4.96-.14-4.02-.12-1.02h5.4zM367.88 236.65l-.5 3.92.9 3.88.38.55h-6.32v-10h6.4z" stroke="#3a414a" stroke-width=".05" fill="#3a414a"/><path d="M477.53 240H490" stroke="#3a414a" stroke-width="10" fill="none"/><path d="M477.66 245h-6.4l.86-1.65.5-3.92-.9-3.88-.38-.55h6.32zM495 239.96l.14 4.02.12 1.02h-5.4v-10h5.38z" stroke="#3a414a" stroke-width=".05" fill="#3a414a"/><path d="M65.8 193.17c2.32-2.37 6.08-2.37 8.4 0l41.6 42.54c2.32 2.38 2.32 6.22 0 8.6l-41.6 42.53c-2.32 2.37-6.08 2.37-8.4 0L24.2 244.3c-2.32-2.38-2.32-6.22 0-8.6z" stroke="#3a414a" stroke-width="10" fill-opacity="0"/><path d="M54.87 214.9h30.26v50.2H54.87z" fill="#fff" fill-opacity="0"/><path d="M66.24 231.82h.13l3.75-4.8c3.54-4.53 6.83-7.68 10.7-7.68 2.57 0 3.95 1.3 3.95 3.55 0 1.43-.6 3.4-1 5.1l-4.9 20.58c-1 4.14-1.53 7.43-1.53 9.47 0 .92.07 1.77.33 2.3h-5c-.58-.73-.7-1.84-.7-3.03 0-2.7.9-6.44 6.5-28.65.2-.66.52-2.04.52-3.15 0-1.12-.74-1.9-1.85-1.9-2.63 0-11.18 11.1-13.15 17.8l-2.03 6.9h-5.13l5.06-19.98c.4-1.64.85-2.96.85-3.88 0-.6-.13-.85-.85-.85-1.45 0-2.9 1.92-3.94 3.3l-.86-.66c.33-.46 1.45-2.24 3.03-3.8 1.64-1.66 4.07-3.1 5.52-3.1 2.1 0 2.7 1.12 2.7 2.7 0 2.75-1.52 7.3-2.1 9.78"/><path d="M415.8 193.17c2.32-2.37 6.08-2.37 8.4 0l41.6 42.54c2.32 2.38 2.32 6.22 0 8.6l-41.6 42.53c-2.32 2.37-6.08 2.37-8.4 0l-41.6-42.54c-2.32-2.38-2.32-6.22 0-8.6z" stroke="#3a414a" stroke-width="10" fill-opacity="0"/><path d="M404.87 214.9h30.26v50.2h-30.26z" fill="#fff" fill-opacity="0"/><path d="M416.24 231.82h.13l3.75-4.8c3.54-4.53 6.83-7.68 10.7-7.68 2.57 0 3.95 1.3 3.95 3.55 0 1.43-.6 3.4-1 5.1l-4.9 20.58c-1 4.14-1.53 7.43-1.53 9.47 0 .92.07 1.77.33 2.3h-5c-.58-.73-.7-1.84-.7-3.03 0-2.7.9-6.44 6.5-28.65.2-.66.52-2.04.52-3.15 0-1.12-.74-1.9-1.85-1.9-2.63 0-11.18 11.1-13.15 17.8l-2.03 6.9h-5.13l5.06-19.98c.4-1.64.85-2.96.85-3.88 0-.6-.13-.85-.85-.85-1.45 0-2.9 1.92-3.94 3.3l-.86-.66c.33-.46 1.45-2.24 3.03-3.8 1.64-1.66 4.07-3.1 5.52-3.1 2.1 0 2.7 1.12 2.7 2.7 0 2.75-1.52 7.3-2.1 9.78"/><path d="M175.8 104.3c2.32-2.38 6.08-2.38 8.4 0l41.6 42.53c2.32 2.37 2.32 6.2 0 8.58l-41.6 42.54c-2.32 2.37-6.08 2.37-8.4 0l-41.6-42.53c-2.32-2.36-2.32-6.2 0-8.57z" stroke="#3a414a" stroke-width="10" fill-opacity="0"/><path d="M164.87 126.02h30.26v50.2h-30.26z" fill="#fff" fill-opacity="0"/><path d="M176.24 142.94h.13l3.75-4.8c3.54-4.53 6.83-7.68 10.7-7.68 2.57 0 3.95 1.3 3.95 3.54 0 1.45-.6 3.42-1 5.13l-4.9 20.57c-1 4.14-1.53 7.43-1.53 9.46 0 .92.07 1.78.33 2.3h-5c-.58-.72-.7-1.84-.7-3.02 0-2.7.9-6.44 6.5-28.65.2-.67.52-2.05.52-3.17 0-1.1-.74-1.9-1.85-1.9-2.63 0-11.18 11.1-13.15 17.8l-2.03 6.9h-5.13l5.06-19.97c.4-1.64.85-2.96.85-3.88 0-.6-.13-.85-.85-.85-1.45 0-2.9 1.9-3.94 3.28l-.86-.64c.33-.46 1.45-2.24 3.03-3.82 1.64-1.64 4.07-3.08 5.52-3.08 2.1 0 2.7 1.1 2.7 2.7 0 2.75-1.52 7.28-2.1 9.78"/><path d="M175.8 284.3c2.32-2.38 6.08-2.38 8.4 0l41.6 42.53c2.32 2.37 2.32 6.2 0 8.58l-41.6 42.54c-2.32 2.37-6.08 2.37-8.4 0l-41.6-42.53c-2.32-2.36-2.32-6.2 0-8.57z" stroke="#3a414a" stroke-width="10" fill-opacity="0"/><path d="M164.87 306.02h30.26v50.2h-30.26z" fill="#fff" fill-opacity="0"/><path d="M176.24 322.94h.13l3.75-4.8c3.54-4.53 6.83-7.68 10.7-7.68 2.57 0 3.95 1.3 3.95 3.54 0 1.45-.6 3.42-1 5.13l-4.9 20.57c-1 4.14-1.53 7.43-1.53 9.46 0 .92.07 1.78.33 2.3h-5c-.58-.72-.7-1.84-.7-3.02 0-2.7.9-6.44 6.5-28.65.2-.67.52-2.05.52-3.17 0-1.1-.74-1.9-1.85-1.9-2.63 0-11.18 11.1-13.15 17.8l-2.03 6.9h-5.13l5.06-19.97c.4-1.64.85-2.96.85-3.88 0-.6-.13-.85-.85-.85-1.45 0-2.9 1.9-3.94 3.28l-.86-.64c.33-.46 1.45-2.24 3.03-3.82 1.64-1.64 4.07-3.08 5.52-3.08 2.1 0 2.7 1.1 2.7 2.7 0 2.75-1.52 7.28-2.1 9.78"/><path d="M54.67 380h30.46v58.5H54.67z" fill="#fff" fill-opacity="0"/><path d="M84.3 390.1c0 1.4-.98 3.03-3 3.03-4.42 0-.87-4.27-6.85-4.27-2.5 0-5.9 1.9-5.9 4.4 0 6.24 14.7 10 14.7 19.26 0 2.17-.32 5.2-1.17 7.36-2.3 5.65-7.63 10.9-15.2 10.9-6.36 0-9.58-4.27-9.58-9.52 0-7.82 6.5-16.5 15.7-17.42-3.02-3.02-6.83-5.06-6.83-8.6 0-6.32 6.64-9.08 10.98-9.08 3.28 0 7.16 1.06 7.16 3.95m-6.56 22.3c0-2.9-1-6.6-3.55-6.6-5.66 0-11.77 10.53-11.77 16.38 0 3.6 1.77 6.7 4.6 6.7 5.9 0 10.7-10.25 10.7-16.5"/><path d="M54.67 40h30.46v58.5H54.67z" fill="#fff" fill-opacity="0"/><path d="M84.3 50.1c0 1.4-.98 3.03-3 3.03-4.42 0-.87-4.27-6.85-4.27-2.5 0-5.9 1.9-5.9 4.4 0 6.24 14.7 10 14.7 19.26 0 2.17-.32 5.2-1.17 7.36-2.3 5.65-7.63 10.9-15.2 10.9-6.36 0-9.58-4.27-9.58-9.52 0-7.82 6.5-16.5 15.7-17.42-3.02-3.02-6.83-5.06-6.83-8.6 0-6.32 6.64-9.08 10.98-9.08 3.28 0 7.16 1.06 7.16 3.95m-6.56 22.3c0-2.9-1-6.6-3.55-6.6-5.66 0-11.77 10.53-11.77 16.38 0 3.6 1.77 6.7 4.6 6.7 5.9 0 10.7-10.25 10.7-16.5"/><path d="M274.77 210.74h30.46v58.52h-30.46z" fill="#fff" fill-opacity="0"/><path d="M304.4 220.85c0 1.38-.98 3.02-3 3.02-4.42 0-.87-4.27-6.85-4.27-2.5 0-5.9 1.9-5.9 4.4 0 6.25 14.7 10 14.7 19.26 0 2.17-.32 5.2-1.18 7.36-2.3 5.65-7.62 10.9-15.18 10.9-6.38 0-9.6-4.26-9.6-9.52 0-7.82 6.5-16.5 15.7-17.42-3.02-3.02-6.83-5.06-6.83-8.6 0-6.3 6.64-9.07 10.98-9.07 3.28 0 7.16 1.06 7.16 3.95m-6.56 22.28c0-2.9-1-6.57-3.55-6.57-5.66 0-11.78 10.5-11.78 16.36 0 3.6 1.78 6.7 4.6 6.7 5.92 0 10.72-10.25 10.72-16.5"/><path d="M534.77 210.74h30.46v58.52h-30.46z" fill="#fff" fill-opacity="0"/><path d="M564.4 220.85c0 1.38-.98 3.02-3 3.02-4.42 0-.87-4.27-6.85-4.27-2.5 0-5.9 1.9-5.9 4.4 0 6.25 14.7 10 14.7 19.26 0 2.17-.32 5.2-1.18 7.36-2.3 5.65-7.62 10.9-15.18 10.9-6.38 0-9.6-4.26-9.6-9.52 0-7.82 6.5-16.5 15.7-17.42-3.02-3.02-6.83-5.06-6.83-8.6 0-6.3 6.64-9.07 10.98-9.07 3.28 0 7.16 1.06 7.16 3.95m-6.56 22.28c0-2.9-1-6.57-3.55-6.57-5.66 0-11.78 10.5-11.78 16.36 0 3.6 1.78 6.7 4.6 6.7 5.92 0 10.72-10.25 10.72-16.5"/><path d="M151.77 121.7" stroke="#3a414a" stroke-width="10" fill="none"/><path stroke="#3a414a" stroke-width=".05" fill="#3a414a" transform="translate(-180 -180)"/><path stroke="#3a414a" stroke-width=".05" fill="#3a414a" transform="translate(-180 -180)"/><path d="M240.15 273.22l-26.7 26.7" stroke="#3a414a" stroke-width="10" fill="none"/><path d="M243.68 269.68l2.95 4.13-3.04 3.04-7.08-7.07 4.6-4.58zM217.1 303.35l-3.68 3.67-7-7.15 3.6-3.6z" stroke="#3a414a" stroke-width=".05" fill="#3a414a"/><path d="M122.43 381.28L144 359.72" stroke="#3a414a" stroke-width="10" fill="none"/><path d="M126.06 384.73l-4.95 4.95-2.05-4.6-2.73-4.76 2.67-2.66zM151.03 359.76l-3.6 3.6-7.06-7.08 3.66-3.67z" stroke="#3a414a" stroke-width=".05" fill="#3a414a"/><path d="M122.18 99.16l22.58 22.57" stroke="#3a414a" stroke-width="10" fill="none"/><path d="M125.8 95.7l-7.06 7.1-2.72-2.74 2.28-3.72 2.38-4.93.22-.6zM151.8 121.7l-7 7.14-3.67-3.66 7.07-7.07z" stroke="#3a414a" stroke-width=".05" fill="#3a414a"/><path d="M216.37 179.34l26.4 23.8" stroke="#3a414a" stroke-width="10" fill="none"/><path d="M219.82 175.7l-6.7 7.44-3.96-3.57 7-7.15z" stroke="#3a414a" stroke-width=".05" fill="#3a414a"/><path d="M242.66 203.05l3.8 3.43" stroke="#3a414a" stroke-width="10" fill="none"/></g></svg>