<svg xmlns="http://www.w3.org/2000/svg" xmlns:lucid="lucid" width="455.26" height="331"><g lucid:page-tab-id="iO6L_FTbgQL1"><path d="M80.64 128.3c0 .83-.67 1.5-1.5 1.5s-1.5-.67-1.5-1.5c0-.82.67-1.5 1.5-1.5s1.5.68 1.5 1.5zm5.6-2.37c0 .82-.67 1.5-1.5 1.5-.82 0-1.5-.68-1.5-1.5 0-.83.68-1.5 1.5-1.5.83 0 1.5.67 1.5 1.5zm5.6-2.38c0 .83-.67 1.5-1.5 1.5-.82 0-1.5-.67-1.5-1.5s.68-1.5 1.5-1.5c.83 0 1.5.67 1.5 1.5zm5.6-2.38c0 .83-.66 1.5-1.5 1.5-.82 0-1.5-.67-1.5-1.5s.68-1.5 1.5-1.5c.84 0 1.5.67 1.5 1.5zm5.6-2.38c0 .82-.66 1.5-1.5 1.5-.82 0-1.5-.68-1.5-1.5 0-.83.68-1.5 1.5-1.5.84 0 1.5.67 1.5 1.5zm5.6-2.38c0 .83-.66 1.5-1.5 1.5-.82 0-1.5-.67-1.5-1.5s.68-1.5 1.5-1.5c.84 0 1.5.67 1.5 1.5zm5.6-2.38c0 .83-.66 1.5-1.5 1.5-.82 0-1.5-.67-1.5-1.5s.68-1.5 1.5-1.5c.84 0 1.5.67 1.5 1.5zm5.6-2.38c0 .83-.66 1.5-1.5 1.5-.82 0-1.5-.67-1.5-1.5s.68-1.5 1.5-1.5c.84 0 1.5.67 1.5 1.5zm5.6-2.38c0 .83-.66 1.5-1.5 1.5-.82 0-1.5-.67-1.5-1.5 0-.82.68-1.5 1.5-1.5.84 0 1.5.68 1.5 1.5zm5.6-2.37c0 .84-.66 1.5-1.5 1.5-.8 0-1.5-.66-1.5-1.5 0-.82.7-1.5 1.5-1.5.84 0 1.5.68 1.5 1.5zm5.62-2.37c0 .83-.68 1.5-1.5 1.5-.83 0-1.5-.67-1.5-1.5s.67-1.5 1.5-1.5c.82 0 1.5.67 1.5 1.5zm5.6-2.38c0 .83-.67 1.5-1.5 1.5s-1.5-.67-1.5-1.5.67-1.5 1.5-1.5 1.5.67 1.5 1.5zm5.6-2.38c0 .83-.67 1.5-1.5 1.5s-1.5-.67-1.5-1.5c0-.82.67-1.5 1.5-1.5s1.5.68 1.5 1.5zm5.6-2.37c0 .83-.67 1.5-1.5 1.5s-1.5-.67-1.5-1.5.67-1.5 1.5-1.5 1.5.67 1.5 1.5zm5.6-2.38c0 .83-.67 1.5-1.5 1.5s-1.5-.67-1.5-1.5.67-1.5 1.5-1.5 1.5.67 1.5 1.5zm5.6-2.38c0 .83-.67 1.5-1.5 1.5s-1.5-.67-1.5-1.5.67-1.5 1.5-1.5 1.5.67 1.5 1.5zm5.6-2.37c0 .82-.67 1.5-1.5 1.5s-1.5-.68-1.5-1.5c0-.83.67-1.5 1.5-1.5s1.5.67 1.5 1.5zm5.6-2.38c0 .82-.67 1.5-1.5 1.5-.82 0-1.5-.68-1.5-1.5 0-.84.68-1.5 1.5-1.5.83 0 1.5.66 1.5 1.5zm5.6-2.4c0 .84-.67 1.5-1.5 1.5-.82 0-1.5-.66-1.5-1.5 0-.82.68-1.5 1.5-1.5.83 0 1.5.68 1.5 1.5zm5.6-2.37c0 .83-.67 1.5-1.5 1.5-.82 0-1.5-.67-1.5-1.5s.68-1.5 1.5-1.5c.83 0 1.5.67 1.5 1.5zm5.6-2.37c0 .82-.66 1.5-1.5 1.5-.82 0-1.5-.68-1.5-1.5 0-.83.68-1.5 1.5-1.5.84 0 1.5.67 1.5 1.5zm5.6-2.38c0 .83-.66 1.5-1.5 1.5-.82 0-1.5-.67-1.5-1.5s.68-1.5 1.5-1.5c.84 0 1.5.67 1.5 1.5zm5.6-2.38c0 .83-.66 1.5-1.5 1.5-.82 0-1.5-.67-1.5-1.5s.68-1.5 1.5-1.5c.84 0 1.5.67 1.5 1.5zm5.6-2.38c0 .83-.66 1.5-1.5 1.5-.82 0-1.5-.67-1.5-1.5s.68-1.5 1.5-1.5c.84 0 1.5.67 1.5 1.5zm5.6-2.37c0 .82-.66 1.5-1.5 1.5-.82 0-1.5-.68-1.5-1.5 0-.83.68-1.5 1.5-1.5.84 0 1.5.67 1.5 1.5zm5.6-2.38c0 .83-.66 1.5-1.5 1.5-.8 0-1.5-.67-1.5-1.5s.7-1.5 1.5-1.5c.84 0 1.5.67 1.5 1.5zm5.6-2.38c0 .82-.66 1.5-1.5 1.5-.8 0-1.5-.68-1.5-1.5 0-.84.7-1.5 1.5-1.5.84 0 1.5.66 1.5 1.5zm5.62-2.4c0 .84-.68 1.5-1.5 1.5-.83 0-1.5-.66-1.5-1.5 0-.82.67-1.5 1.5-1.5.82 0 1.5.68 1.5 1.5zm5.6-2.36c0 .82-.67 1.5-1.5 1.5s-1.5-.68-1.5-1.5c0-.83.67-1.5 1.5-1.5s1.5.67 1.5 1.5zm5.6-2.38c0 .83-.67 1.5-1.5 1.5s-1.5-.67-1.5-1.5.67-1.5 1.5-1.5 1.5.67 1.5 1.5zm5.6-2.38c0 .83-.67 1.5-1.5 1.5s-1.5-.67-1.5-1.5.67-1.5 1.5-1.5 1.5.67 1.5 1.5zm5.6-2.38c0 .83-.67 1.5-1.5 1.5s-1.5-.67-1.5-1.5c0-.82.67-1.5 1.5-1.5s1.5.68 1.5 1.5z"/><path d="M79.43 128.9h-1.67v1.62l-2.17.92-1.18-2.76 4.17-1.77zM263.02 51.64h-3.26v1.63l-.83.35-1.17-2.76 4.18-1.77z" stroke="#000" stroke-width=".05"/><path d="M96.76 130.4h17.5v17.5h-17.5z" stroke="#000" stroke-width="3" fill="#fff"/><path d="M114.26 130.4h17.5v17.5h-17.5zM131.76 130.4h17.5v17.5h-17.5zM79.26 147.9h17.5v17.5h-17.5zM114.26 147.9h17.5v17.5h-17.5zM131.76 147.9h17.5v17.5h-17.5zM79.26 165.4h17.5v17.5h-17.5zM96.76 165.4h17.5v17.5h-17.5zM131.76 165.4h17.5v17.5h-17.5zM79.26 182.9h17.5v17.5h-17.5zM96.76 182.9h17.5v17.5h-17.5z" stroke="#000" stroke-width="3" fill="#fff"/><path d="M114.26 182.9h17.5v17.5h-17.5zM189.76 91.14h17.5v17.5h-17.5zM207.26 91.14h17.5v17.5h-17.5zM224.76 91.14h17.5v17.5h-17.5zM172.26 108.64h17.5v17.5h-17.5zM207.26 108.64h17.5v17.5h-17.5zM224.76 108.64h17.5v17.5h-17.5zM172.26 126.14h17.5v17.5h-17.5zM189.76 126.14h17.5v17.5h-17.5zM224.76 126.14h17.5v17.5h-17.5zM172.26 143.64h17.5v17.5h-17.5zM189.76 143.64h17.5v17.5h-17.5zM207.26 143.64h17.5v17.5h-17.5zM278.76 53.14h17.5v17.5h-17.5zM296.26 53.14h17.5v17.5h-17.5zM313.76 53.14h17.5v17.5h-17.5zM261.26 70.64h17.5v17.5h-17.5zM296.26 70.64h17.5v17.5h-17.5zM313.76 70.64h17.5v17.5h-17.5zM261.26 88.14h17.5v17.5h-17.5zM278.76 88.14h17.5v17.5h-17.5zM313.76 88.14h17.5v17.5h-17.5zM261.26 105.64h17.5v17.5h-17.5zM278.76 105.64h17.5v17.5h-17.5zM296.26 105.64h17.5v17.5h-17.5z" stroke="#000" stroke-width="3" fill="#fff"/><path d="M153.64 128.3c0 .83-.67 1.5-1.5 1.5s-1.5-.67-1.5-1.5c0-.82.67-1.5 1.5-1.5s1.5.68 1.5 1.5zm5.6-2.37c0 .82-.67 1.5-1.5 1.5-.82 0-1.5-.68-1.5-1.5 0-.83.68-1.5 1.5-1.5.83 0 1.5.67 1.5 1.5zm5.6-2.38c0 .83-.67 1.5-1.5 1.5-.82 0-1.5-.67-1.5-1.5s.68-1.5 1.5-1.5c.83 0 1.5.67 1.5 1.5zm5.6-2.38c0 .83-.66 1.5-1.5 1.5-.82 0-1.5-.67-1.5-1.5s.68-1.5 1.5-1.5c.84 0 1.5.67 1.5 1.5zm5.6-2.38c0 .82-.66 1.5-1.5 1.5-.82 0-1.5-.68-1.5-1.5 0-.83.68-1.5 1.5-1.5.84 0 1.5.67 1.5 1.5zm5.6-2.38c0 .83-.66 1.5-1.5 1.5-.82 0-1.5-.67-1.5-1.5s.68-1.5 1.5-1.5c.84 0 1.5.67 1.5 1.5zm5.6-2.38c0 .83-.66 1.5-1.5 1.5-.82 0-1.5-.67-1.5-1.5s.68-1.5 1.5-1.5c.84 0 1.5.67 1.5 1.5zm5.6-2.38c0 .83-.66 1.5-1.5 1.5-.82 0-1.5-.67-1.5-1.5s.68-1.5 1.5-1.5c.84 0 1.5.67 1.5 1.5zm5.6-2.38c0 .83-.66 1.5-1.5 1.5-.82 0-1.5-.67-1.5-1.5 0-.82.68-1.5 1.5-1.5.84 0 1.5.68 1.5 1.5zm5.6-2.37c0 .84-.66 1.5-1.5 1.5-.8 0-1.5-.66-1.5-1.5 0-.82.7-1.5 1.5-1.5.84 0 1.5.68 1.5 1.5zm5.62-2.37c0 .83-.68 1.5-1.5 1.5-.83 0-1.5-.67-1.5-1.5s.67-1.5 1.5-1.5c.82 0 1.5.67 1.5 1.5zm5.6-2.38c0 .83-.67 1.5-1.5 1.5s-1.5-.67-1.5-1.5.67-1.5 1.5-1.5 1.5.67 1.5 1.5zm5.6-2.38c0 .83-.67 1.5-1.5 1.5s-1.5-.67-1.5-1.5c0-.82.67-1.5 1.5-1.5s1.5.68 1.5 1.5zm5.6-2.37c0 .83-.67 1.5-1.5 1.5s-1.5-.67-1.5-1.5.67-1.5 1.5-1.5 1.5.67 1.5 1.5zm5.6-2.38c0 .83-.67 1.5-1.5 1.5s-1.5-.67-1.5-1.5.67-1.5 1.5-1.5 1.5.67 1.5 1.5zm5.6-2.38c0 .83-.67 1.5-1.5 1.5s-1.5-.67-1.5-1.5.67-1.5 1.5-1.5 1.5.67 1.5 1.5zm5.6-2.37c0 .82-.67 1.5-1.5 1.5s-1.5-.68-1.5-1.5c0-.83.67-1.5 1.5-1.5s1.5.67 1.5 1.5zm5.6-2.38c0 .82-.67 1.5-1.5 1.5-.82 0-1.5-.68-1.5-1.5 0-.84.68-1.5 1.5-1.5.83 0 1.5.66 1.5 1.5zm5.6-2.4c0 .84-.67 1.5-1.5 1.5-.82 0-1.5-.66-1.5-1.5 0-.82.68-1.5 1.5-1.5.83 0 1.5.68 1.5 1.5zm5.6-2.37c0 .83-.67 1.5-1.5 1.5-.82 0-1.5-.67-1.5-1.5s.68-1.5 1.5-1.5c.83 0 1.5.67 1.5 1.5zm5.6-2.37c0 .82-.66 1.5-1.5 1.5-.82 0-1.5-.68-1.5-1.5 0-.83.68-1.5 1.5-1.5.84 0 1.5.67 1.5 1.5zm5.6-2.38c0 .83-.66 1.5-1.5 1.5-.82 0-1.5-.67-1.5-1.5s.68-1.5 1.5-1.5c.84 0 1.5.67 1.5 1.5zm5.6-2.38c0 .83-.66 1.5-1.5 1.5-.82 0-1.5-.67-1.5-1.5s.68-1.5 1.5-1.5c.84 0 1.5.67 1.5 1.5zm5.6-2.38c0 .83-.66 1.5-1.5 1.5-.82 0-1.5-.67-1.5-1.5s.68-1.5 1.5-1.5c.84 0 1.5.67 1.5 1.5zm5.6-2.37c0 .82-.66 1.5-1.5 1.5-.82 0-1.5-.68-1.5-1.5 0-.83.68-1.5 1.5-1.5.84 0 1.5.67 1.5 1.5zm5.6-2.38c0 .83-.66 1.5-1.5 1.5-.8 0-1.5-.67-1.5-1.5s.7-1.5 1.5-1.5c.84 0 1.5.67 1.5 1.5zm5.6-2.38c0 .82-.66 1.5-1.5 1.5-.8 0-1.5-.68-1.5-1.5 0-.84.7-1.5 1.5-1.5.84 0 1.5.66 1.5 1.5zm5.62-2.4c0 .84-.68 1.5-1.5 1.5-.83 0-1.5-.66-1.5-1.5 0-.82.67-1.5 1.5-1.5.82 0 1.5.68 1.5 1.5zm5.6-2.36c0 .82-.67 1.5-1.5 1.5s-1.5-.68-1.5-1.5c0-.83.67-1.5 1.5-1.5s1.5.67 1.5 1.5zm5.6-2.38c0 .83-.67 1.5-1.5 1.5s-1.5-.67-1.5-1.5.67-1.5 1.5-1.5 1.5.67 1.5 1.5zm5.6-2.38c0 .83-.67 1.5-1.5 1.5s-1.5-.67-1.5-1.5.67-1.5 1.5-1.5 1.5.67 1.5 1.5zm5.6-2.38c0 .83-.67 1.5-1.5 1.5s-1.5-.67-1.5-1.5c0-.82.67-1.5 1.5-1.5s1.5.68 1.5 1.5z"/><path d="M152.76 129.67l-2 .85v-1.63h-3.26l-.08-.22 4.17-1.77zM336.1 51.85l-3.34 1.42v-1.63h-1.67l-.34-.78 4.18-1.77z" stroke="#000" stroke-width=".05"/><path d="M153.64 201.3c0 .83-.67 1.5-1.5 1.5s-1.5-.67-1.5-1.5c0-.82.67-1.5 1.5-1.5s1.5.68 1.5 1.5zm5.6-2.37c0 .82-.67 1.5-1.5 1.5-.82 0-1.5-.68-1.5-1.5 0-.83.68-1.5 1.5-1.5.83 0 1.5.67 1.5 1.5zm5.6-2.38c0 .83-.67 1.5-1.5 1.5-.82 0-1.5-.67-1.5-1.5s.68-1.5 1.5-1.5c.83 0 1.5.67 1.5 1.5zm5.6-2.38c0 .83-.66 1.5-1.5 1.5-.82 0-1.5-.67-1.5-1.5s.68-1.5 1.5-1.5c.84 0 1.5.67 1.5 1.5zm5.6-2.38c0 .82-.66 1.5-1.5 1.5-.82 0-1.5-.68-1.5-1.5 0-.83.68-1.5 1.5-1.5.84 0 1.5.67 1.5 1.5zm5.6-2.38c0 .83-.66 1.5-1.5 1.5-.82 0-1.5-.67-1.5-1.5s.68-1.5 1.5-1.5c.84 0 1.5.67 1.5 1.5zm5.6-2.38c0 .83-.66 1.5-1.5 1.5-.82 0-1.5-.67-1.5-1.5s.68-1.5 1.5-1.5c.84 0 1.5.67 1.5 1.5zm5.6-2.38c0 .83-.66 1.5-1.5 1.5-.82 0-1.5-.67-1.5-1.5s.68-1.5 1.5-1.5c.84 0 1.5.67 1.5 1.5zm5.6-2.38c0 .83-.66 1.5-1.5 1.5-.82 0-1.5-.67-1.5-1.5 0-.82.68-1.5 1.5-1.5.84 0 1.5.68 1.5 1.5zm5.6-2.37c0 .84-.66 1.5-1.5 1.5-.8 0-1.5-.66-1.5-1.5 0-.82.7-1.5 1.5-1.5.84 0 1.5.68 1.5 1.5zm5.62-2.37c0 .83-.68 1.5-1.5 1.5-.83 0-1.5-.67-1.5-1.5s.67-1.5 1.5-1.5c.82 0 1.5.67 1.5 1.5zm5.6-2.38c0 .83-.67 1.5-1.5 1.5s-1.5-.67-1.5-1.5.67-1.5 1.5-1.5 1.5.67 1.5 1.5zm5.6-2.38c0 .83-.67 1.5-1.5 1.5s-1.5-.67-1.5-1.5c0-.82.67-1.5 1.5-1.5s1.5.68 1.5 1.5zm5.6-2.37c0 .83-.67 1.5-1.5 1.5s-1.5-.67-1.5-1.5.67-1.5 1.5-1.5 1.5.67 1.5 1.5zm5.6-2.38c0 .83-.67 1.5-1.5 1.5s-1.5-.67-1.5-1.5.67-1.5 1.5-1.5 1.5.67 1.5 1.5zm5.6-2.38c0 .83-.67 1.5-1.5 1.5s-1.5-.67-1.5-1.5.67-1.5 1.5-1.5 1.5.67 1.5 1.5zm5.6-2.37c0 .82-.67 1.5-1.5 1.5s-1.5-.68-1.5-1.5c0-.83.67-1.5 1.5-1.5s1.5.67 1.5 1.5zm5.6-2.38c0 .82-.67 1.5-1.5 1.5-.82 0-1.5-.68-1.5-1.5 0-.84.68-1.5 1.5-1.5.83 0 1.5.66 1.5 1.5zm5.6-2.4c0 .84-.67 1.5-1.5 1.5-.82 0-1.5-.66-1.5-1.5 0-.82.68-1.5 1.5-1.5.83 0 1.5.68 1.5 1.5zm5.6-2.37c0 .83-.67 1.5-1.5 1.5-.82 0-1.5-.67-1.5-1.5s.68-1.5 1.5-1.5c.83 0 1.5.67 1.5 1.5zm5.6-2.37c0 .82-.66 1.5-1.5 1.5-.82 0-1.5-.68-1.5-1.5 0-.83.68-1.5 1.5-1.5.84 0 1.5.67 1.5 1.5zm5.6-2.38c0 .83-.66 1.5-1.5 1.5-.82 0-1.5-.67-1.5-1.5s.68-1.5 1.5-1.5c.84 0 1.5.67 1.5 1.5zm5.6-2.38c0 .83-.66 1.5-1.5 1.5-.82 0-1.5-.67-1.5-1.5s.68-1.5 1.5-1.5c.84 0 1.5.67 1.5 1.5zm5.6-2.38c0 .83-.66 1.5-1.5 1.5-.82 0-1.5-.67-1.5-1.5s.68-1.5 1.5-1.5c.84 0 1.5.67 1.5 1.5zm5.6-2.37c0 .82-.66 1.5-1.5 1.5-.82 0-1.5-.68-1.5-1.5 0-.83.68-1.5 1.5-1.5.84 0 1.5.67 1.5 1.5zm5.6-2.38c0 .83-.66 1.5-1.5 1.5-.8 0-1.5-.67-1.5-1.5s.7-1.5 1.5-1.5c.84 0 1.5.67 1.5 1.5zm5.6-2.38c0 .82-.66 1.5-1.5 1.5-.8 0-1.5-.68-1.5-1.5 0-.84.7-1.5 1.5-1.5.84 0 1.5.66 1.5 1.5zm5.62-2.4c0 .84-.68 1.5-1.5 1.5-.83 0-1.5-.66-1.5-1.5 0-.82.67-1.5 1.5-1.5.82 0 1.5.68 1.5 1.5zm5.6-2.36c0 .82-.67 1.5-1.5 1.5s-1.5-.68-1.5-1.5c0-.83.67-1.5 1.5-1.5s1.5.67 1.5 1.5zm5.6-2.38c0 .83-.67 1.5-1.5 1.5s-1.5-.67-1.5-1.5.67-1.5 1.5-1.5 1.5.67 1.5 1.5zm5.6-2.38c0 .83-.67 1.5-1.5 1.5s-1.5-.67-1.5-1.5.67-1.5 1.5-1.5 1.5.67 1.5 1.5zm5.6-2.38c0 .83-.67 1.5-1.5 1.5s-1.5-.67-1.5-1.5c0-.82.67-1.5 1.5-1.5s1.5.68 1.5 1.5z"/><path d="M152.76 202.67l-4.17 1.77-1.1-2.55h3.26v-1.64l.83-.35zM336.1 124.85l-4.17 1.77-.84-1.98h1.66V123l2.18-.9z" stroke="#000" stroke-width=".05"/><path d="M79.26 130.4h17.5v17.5h-17.5zM96.76 147.9h17.5v17.5h-17.5zM114.26 165.4h17.5v17.5h-17.5zM131.76 182.9h17.5v17.5h-17.5zM172.26 91.14h17.5v17.5h-17.5zM189.76 108.64h17.5v17.5h-17.5zM207.26 126.14h17.5v17.5h-17.5zM224.76 143.64h17.5v17.5h-17.5zM278.76 70.64h17.5v17.5h-17.5zM296.26 88.14h17.5v17.5h-17.5zM313.76 105.64h17.5v17.5h-17.5zM261.26 53.14h17.5v17.5h-17.5zM217.76 280.4h17.5v17.5h-17.5zM317.76 240.4h17.5v17.5h-17.5zM417.76 200.4h17.5v17.5h-17.5z" stroke="#c92d39" stroke-width="3" fill="#c92d39"/><path d="M158.82 221.45l24.36 24.36M158.85 221.48l-1.1-1.1" stroke="#000" stroke-width="3" fill="none"/><path d="M194.33 256.96l-13.36-6.8 6.55-6.57z" stroke="#000" stroke-width="3"/><path d="M258.82 181.45l24.36 24.36M258.85 181.48l-1.1-1.1" stroke="#000" stroke-width="3" fill="none"/><path d="M294.33 216.96l-13.36-6.8 6.55-6.57z" stroke="#000" stroke-width="3"/><path d="M358.82 141.45l24.36 24.36M358.85 141.48l-1.1-1.1" stroke="#000" stroke-width="3" fill="none"/><path d="M394.33 176.96l-13.36-6.8 6.55-6.57z" stroke="#000" stroke-width="3"/><path d="M219.65 278.33c0 .83-.67 1.5-1.5 1.5-.82 0-1.5-.67-1.5-1.5s.68-1.5 1.5-1.5c.83 0 1.5.67 1.5 1.5zm5.63-2.25c0 .83-.68 1.5-1.5 1.5-.83 0-1.5-.67-1.5-1.5s.67-1.5 1.5-1.5c.82 0 1.5.67 1.5 1.5zm5.62-2.26c0 .83-.68 1.5-1.5 1.5-.83 0-1.5-.67-1.5-1.5 0-.82.67-1.5 1.5-1.5.82 0 1.5.68 1.5 1.5zm5.62-2.25c0 .83-.68 1.5-1.5 1.5-.83 0-1.5-.67-1.5-1.5s.67-1.5 1.5-1.5c.82 0 1.5.67 1.5 1.5zm5.62-2.25c0 .82-.67 1.5-1.5 1.5s-1.5-.68-1.5-1.5c0-.83.67-1.5 1.5-1.5s1.5.67 1.5 1.5zm5.62-2.26c0 .83-.67 1.5-1.5 1.5s-1.5-.67-1.5-1.5.67-1.5 1.5-1.5 1.5.67 1.5 1.5zm5.62-2.25c0 .84-.67 1.5-1.5 1.5s-1.5-.66-1.5-1.5c0-.82.67-1.5 1.5-1.5s1.5.68 1.5 1.5zm5.62-2.24c0 .82-.67 1.5-1.5 1.5s-1.5-.68-1.5-1.5c0-.83.67-1.5 1.5-1.5s1.5.67 1.5 1.5zm5.62-2.26c0 .83-.67 1.5-1.5 1.5s-1.5-.67-1.5-1.5.67-1.5 1.5-1.5 1.5.67 1.5 1.5zm5.62-2.25c0 .83-.67 1.5-1.5 1.5s-1.5-.67-1.5-1.5.67-1.5 1.5-1.5 1.5.67 1.5 1.5zm5.62-2.26c0 .82-.67 1.5-1.5 1.5s-1.5-.68-1.5-1.5c0-.83.67-1.5 1.5-1.5s1.5.67 1.5 1.5zm5.62-2.26c0 .83-.67 1.5-1.5 1.5s-1.5-.67-1.5-1.5.67-1.5 1.5-1.5 1.5.67 1.5 1.5zm5.62-2.25c0 .8-.67 1.5-1.5 1.5s-1.5-.7-1.5-1.5c0-.84.67-1.5 1.5-1.5s1.5.66 1.5 1.5zm5.62-2.27c0 .83-.67 1.5-1.5 1.5s-1.5-.67-1.5-1.5.67-1.5 1.5-1.5 1.5.67 1.5 1.5zm5.62-2.25c0 .83-.67 1.5-1.5 1.5s-1.5-.67-1.5-1.5.67-1.5 1.5-1.5 1.5.67 1.5 1.5zm5.62-2.26c0 .83-.67 1.5-1.5 1.5s-1.5-.67-1.5-1.5c0-.82.67-1.5 1.5-1.5s1.5.68 1.5 1.5zm5.62-2.25c0 .83-.67 1.5-1.5 1.5s-1.5-.67-1.5-1.5.67-1.5 1.5-1.5 1.5.67 1.5 1.5zm5.62-2.25c0 .83-.67 1.5-1.5 1.5s-1.5-.67-1.5-1.5.67-1.5 1.5-1.5 1.5.67 1.5 1.5zm5.62-2.26c0 .83-.67 1.5-1.5 1.5s-1.5-.67-1.5-1.5.67-1.5 1.5-1.5 1.5.67 1.5 1.5zm5.62-2.25c0 .84-.67 1.5-1.5 1.5s-1.5-.66-1.5-1.5c0-.82.67-1.5 1.5-1.5s1.5.68 1.5 1.5zm5.62-2.24c0 .82-.67 1.5-1.5 1.5-.82 0-1.5-.68-1.5-1.5 0-.83.68-1.5 1.5-1.5.83 0 1.5.67 1.5 1.5zm5.62-2.26c0 .83-.67 1.5-1.5 1.5-.82 0-1.5-.67-1.5-1.5s.68-1.5 1.5-1.5c.83 0 1.5.67 1.5 1.5zm5.62-2.25c0 .83-.67 1.5-1.5 1.5-.82 0-1.5-.67-1.5-1.5s.68-1.5 1.5-1.5c.83 0 1.5.67 1.5 1.5zm5.63-2.26c0 .82-.68 1.5-1.5 1.5-.83 0-1.5-.68-1.5-1.5 0-.83.67-1.5 1.5-1.5.82 0 1.5.67 1.5 1.5zm5.62-2.26c0 .83-.68 1.5-1.5 1.5-.83 0-1.5-.67-1.5-1.5s.67-1.5 1.5-1.5c.82 0 1.5.67 1.5 1.5zm5.62-2.25c0 .8-.68 1.5-1.5 1.5-.83 0-1.5-.7-1.5-1.5 0-.84.67-1.5 1.5-1.5.82 0 1.5.66 1.5 1.5zm5.62-2.27c0 .83-.7 1.5-1.5 1.5-.84 0-1.5-.67-1.5-1.5s.66-1.5 1.5-1.5c.8 0 1.5.67 1.5 1.5zm5.6-2.25c0 .83-.66 1.5-1.5 1.5-.82 0-1.5-.67-1.5-1.5s.68-1.5 1.5-1.5c.84 0 1.5.67 1.5 1.5zm5.63-2.25c0 .82-.67 1.5-1.5 1.5s-1.5-.68-1.5-1.5c0-.83.67-1.5 1.5-1.5s1.5.67 1.5 1.5zm5.62-2.26c0 .83-.67 1.5-1.5 1.5s-1.5-.67-1.5-1.5.67-1.5 1.5-1.5 1.5.67 1.5 1.5zm5.62-2.25c0 .83-.67 1.5-1.5 1.5s-1.5-.67-1.5-1.5.67-1.5 1.5-1.5 1.5.67 1.5 1.5zm5.62-2.26c0 .83-.68 1.5-1.5 1.5-.84 0-1.5-.67-1.5-1.5 0-.82.66-1.5 1.5-1.5.82 0 1.5.68 1.5 1.5zm5.6-2.25c0 .84-.66 1.5-1.5 1.5-.82 0-1.5-.66-1.5-1.5 0-.82.68-1.5 1.5-1.5.84 0 1.5.68 1.5 1.5zm5.63-2.24c0 .82-.67 1.5-1.5 1.5s-1.5-.68-1.5-1.5c0-.83.67-1.5 1.5-1.5s1.5.67 1.5 1.5zm5.62-2.26c0 .83-.67 1.5-1.5 1.5s-1.5-.67-1.5-1.5.67-1.5 1.5-1.5 1.5.67 1.5 1.5zm5.62-2.25c0 .83-.67 1.5-1.5 1.5s-1.5-.67-1.5-1.5.67-1.5 1.5-1.5 1.5.67 1.5 1.5z"/><path d="M218.42 278.9h-2.16v1.8l-1.72.7-1.12-2.8 4.2-1.67zM419.5 198.9h-3.24v1.6l-.87.35-1.12-2.78 4.2-1.7z" stroke="#000" stroke-width=".05"/><path d="M239.66 298.83c0 .83-.68 1.5-1.5 1.5-.83 0-1.5-.67-1.5-1.5s.67-1.5 1.5-1.5c.82 0 1.5.67 1.5 1.5zm5.63-2.25c0 .83-.68 1.5-1.5 1.5-.84 0-1.5-.67-1.5-1.5s.66-1.5 1.5-1.5c.82 0 1.5.67 1.5 1.5zm5.62-2.25c0 .82-.67 1.5-1.5 1.5-.82 0-1.5-.68-1.5-1.5 0-.83.68-1.5 1.5-1.5.83 0 1.5.67 1.5 1.5zm5.64-2.26c0 .83-.67 1.5-1.5 1.5s-1.5-.67-1.5-1.5.67-1.5 1.5-1.5 1.5.67 1.5 1.5zm5.63-2.25c0 .83-.68 1.5-1.5 1.5-.83 0-1.5-.67-1.5-1.5s.67-1.5 1.5-1.5c.82 0 1.5.67 1.5 1.5zm5.63-2.26c0 .83-.67 1.5-1.5 1.5s-1.5-.67-1.5-1.5c0-.82.67-1.5 1.5-1.5s1.5.68 1.5 1.5zm5.63-2.25c0 .84-.67 1.5-1.5 1.5-.82 0-1.5-.66-1.5-1.5 0-.82.68-1.5 1.5-1.5.83 0 1.5.68 1.5 1.5zm5.64-2.24c0 .82-.67 1.5-1.5 1.5s-1.5-.68-1.5-1.5c0-.83.67-1.5 1.5-1.5s1.5.67 1.5 1.5zm5.63-2.26c0 .83-.67 1.5-1.5 1.5s-1.5-.67-1.5-1.5.67-1.5 1.5-1.5 1.5.67 1.5 1.5zm5.64-2.25c0 .83-.67 1.5-1.5 1.5s-1.5-.67-1.5-1.5.67-1.5 1.5-1.5 1.5.67 1.5 1.5zm5.63-2.26c0 .82-.67 1.5-1.5 1.5s-1.5-.68-1.5-1.5c0-.83.67-1.5 1.5-1.5s1.5.67 1.5 1.5zm5.64-2.26c0 .83-.67 1.5-1.5 1.5s-1.5-.67-1.5-1.5.67-1.5 1.5-1.5 1.5.67 1.5 1.5zm5.63-2.25c0 .8-.67 1.5-1.5 1.5s-1.5-.7-1.5-1.5c0-.84.67-1.5 1.5-1.5s1.5.66 1.5 1.5zm5.64-2.27c0 .83-.67 1.5-1.5 1.5-.82 0-1.5-.67-1.5-1.5s.68-1.5 1.5-1.5c.83 0 1.5.67 1.5 1.5zm5.64-2.25c0 .83-.67 1.5-1.5 1.5s-1.5-.67-1.5-1.5.67-1.5 1.5-1.5 1.5.67 1.5 1.5zm5.64-2.26c0 .83-.68 1.5-1.5 1.5-.83 0-1.5-.67-1.5-1.5 0-.82.67-1.5 1.5-1.5.82 0 1.5.68 1.5 1.5zm5.63-2.25c0 .83-.66 1.5-1.5 1.5-.82 0-1.5-.67-1.5-1.5s.68-1.5 1.5-1.5c.84 0 1.5.67 1.5 1.5zm5.65-2.25c0 .83-.68 1.5-1.5 1.5-.83 0-1.5-.67-1.5-1.5s.67-1.5 1.5-1.5c.82 0 1.5.67 1.5 1.5zm5.63-2.26c0 .83-.67 1.5-1.5 1.5s-1.5-.67-1.5-1.5.67-1.5 1.5-1.5 1.5.67 1.5 1.5zm5.63-2.25c0 .84-.66 1.5-1.5 1.5-.8 0-1.5-.66-1.5-1.5 0-.82.7-1.5 1.5-1.5.84 0 1.5.68 1.5 1.5zm5.65-2.24c0 .82-.67 1.5-1.5 1.5s-1.5-.68-1.5-1.5c0-.83.67-1.5 1.5-1.5s1.5.67 1.5 1.5zm5.63-2.26c0 .83-.67 1.5-1.5 1.5-.82 0-1.5-.67-1.5-1.5s.68-1.5 1.5-1.5c.83 0 1.5.67 1.5 1.5zm5.64-2.25c0 .83-.67 1.5-1.5 1.5s-1.5-.67-1.5-1.5.67-1.5 1.5-1.5 1.5.67 1.5 1.5zm5.63-2.26c0 .82-.67 1.5-1.5 1.5-.82 0-1.5-.68-1.5-1.5 0-.83.68-1.5 1.5-1.5.83 0 1.5.67 1.5 1.5zm5.64-2.26c0 .83-.68 1.5-1.5 1.5-.84 0-1.5-.67-1.5-1.5s.66-1.5 1.5-1.5c.82 0 1.5.67 1.5 1.5zm5.62-2.25c0 .8-.67 1.5-1.5 1.5s-1.5-.7-1.5-1.5c0-.84.67-1.5 1.5-1.5s1.5.66 1.5 1.5zm5.64-2.27c0 .83-.67 1.5-1.5 1.5s-1.5-.67-1.5-1.5.67-1.5 1.5-1.5 1.5.67 1.5 1.5zm5.63-2.25c0 .83-.68 1.5-1.5 1.5-.84 0-1.5-.67-1.5-1.5s.66-1.5 1.5-1.5c.82 0 1.5.67 1.5 1.5zm5.63-2.26c0 .83-.67 1.5-1.5 1.5s-1.5-.67-1.5-1.5c0-.82.67-1.5 1.5-1.5s1.5.68 1.5 1.5zm5.63-2.25c0 .83-.67 1.5-1.5 1.5s-1.5-.67-1.5-1.5.67-1.5 1.5-1.5 1.5.67 1.5 1.5zm5.64-2.25c0 .82-.68 1.5-1.5 1.5-.83 0-1.5-.68-1.5-1.5 0-.83.67-1.5 1.5-1.5.82 0 1.5.67 1.5 1.5zm5.63-2.26c0 .83-.67 1.5-1.5 1.5s-1.5-.67-1.5-1.5.67-1.5 1.5-1.5 1.5.67 1.5 1.5zm5.64-2.25c0 .84-.68 1.5-1.5 1.5-.83 0-1.5-.66-1.5-1.5 0-.82.67-1.5 1.5-1.5.82 0 1.5.68 1.5 1.5zm5.63-2.25c0 .83-.67 1.5-1.5 1.5s-1.5-.67-1.5-1.5c0-.82.67-1.5 1.5-1.5s1.5.68 1.5 1.5zm5.64-2.25c0 .83-.68 1.5-1.5 1.5-.83 0-1.5-.67-1.5-1.5s.67-1.5 1.5-1.5c.82 0 1.5.67 1.5 1.5zm5.63-2.25c0 .83-.67 1.5-1.5 1.5s-1.5-.67-1.5-1.5.67-1.5 1.5-1.5 1.5.67 1.5 1.5z"/><path d="M238.75 300.2l-4.22 1.7-1-2.5h3.23v-1.63l.87-.34zM440.1 219.67l-4.2 1.68-.8-1.96h1.66v-1.63l2.23-.9z" stroke="#000" stroke-width=".05"/><path d="M239.66 278.83c0 .83-.68 1.5-1.5 1.5-.83 0-1.5-.67-1.5-1.5s.67-1.5 1.5-1.5c.82 0 1.5.67 1.5 1.5zm5.63-2.25c0 .83-.68 1.5-1.5 1.5-.84 0-1.5-.67-1.5-1.5s.66-1.5 1.5-1.5c.82 0 1.5.67 1.5 1.5zm5.62-2.25c0 .82-.67 1.5-1.5 1.5-.82 0-1.5-.68-1.5-1.5 0-.83.68-1.5 1.5-1.5.83 0 1.5.67 1.5 1.5zm5.64-2.26c0 .83-.67 1.5-1.5 1.5s-1.5-.67-1.5-1.5.67-1.5 1.5-1.5 1.5.67 1.5 1.5zm5.63-2.25c0 .83-.68 1.5-1.5 1.5-.83 0-1.5-.67-1.5-1.5s.67-1.5 1.5-1.5c.82 0 1.5.67 1.5 1.5zm5.63-2.26c0 .83-.67 1.5-1.5 1.5s-1.5-.67-1.5-1.5c0-.82.67-1.5 1.5-1.5s1.5.68 1.5 1.5zm5.63-2.25c0 .84-.67 1.5-1.5 1.5-.82 0-1.5-.66-1.5-1.5 0-.82.68-1.5 1.5-1.5.83 0 1.5.68 1.5 1.5zm5.64-2.24c0 .82-.67 1.5-1.5 1.5s-1.5-.68-1.5-1.5c0-.83.67-1.5 1.5-1.5s1.5.67 1.5 1.5zm5.63-2.26c0 .83-.67 1.5-1.5 1.5s-1.5-.67-1.5-1.5.67-1.5 1.5-1.5 1.5.67 1.5 1.5zm5.64-2.25c0 .83-.67 1.5-1.5 1.5s-1.5-.67-1.5-1.5.67-1.5 1.5-1.5 1.5.67 1.5 1.5zm5.63-2.26c0 .82-.67 1.5-1.5 1.5s-1.5-.68-1.5-1.5c0-.83.67-1.5 1.5-1.5s1.5.67 1.5 1.5zm5.64-2.26c0 .83-.67 1.5-1.5 1.5s-1.5-.67-1.5-1.5.67-1.5 1.5-1.5 1.5.67 1.5 1.5zm5.63-2.25c0 .8-.67 1.5-1.5 1.5s-1.5-.7-1.5-1.5c0-.84.67-1.5 1.5-1.5s1.5.66 1.5 1.5zm5.64-2.27c0 .83-.67 1.5-1.5 1.5-.82 0-1.5-.67-1.5-1.5s.68-1.5 1.5-1.5c.83 0 1.5.67 1.5 1.5zm5.64-2.25c0 .83-.67 1.5-1.5 1.5s-1.5-.67-1.5-1.5.67-1.5 1.5-1.5 1.5.67 1.5 1.5zm5.64-2.26c0 .83-.68 1.5-1.5 1.5-.83 0-1.5-.67-1.5-1.5 0-.82.67-1.5 1.5-1.5.82 0 1.5.68 1.5 1.5zm5.63-2.25c0 .83-.66 1.5-1.5 1.5-.82 0-1.5-.67-1.5-1.5s.68-1.5 1.5-1.5c.84 0 1.5.67 1.5 1.5zm5.65-2.25c0 .83-.68 1.5-1.5 1.5-.83 0-1.5-.67-1.5-1.5s.67-1.5 1.5-1.5c.82 0 1.5.67 1.5 1.5zm5.63-2.26c0 .83-.67 1.5-1.5 1.5s-1.5-.67-1.5-1.5.67-1.5 1.5-1.5 1.5.67 1.5 1.5zm5.63-2.25c0 .84-.66 1.5-1.5 1.5-.8 0-1.5-.66-1.5-1.5 0-.82.7-1.5 1.5-1.5.84 0 1.5.68 1.5 1.5zm5.65-2.24c0 .82-.67 1.5-1.5 1.5s-1.5-.68-1.5-1.5c0-.83.67-1.5 1.5-1.5s1.5.67 1.5 1.5zm5.63-2.26c0 .83-.67 1.5-1.5 1.5-.82 0-1.5-.67-1.5-1.5s.68-1.5 1.5-1.5c.83 0 1.5.67 1.5 1.5zm5.64-2.25c0 .83-.67 1.5-1.5 1.5s-1.5-.67-1.5-1.5.67-1.5 1.5-1.5 1.5.67 1.5 1.5zm5.63-2.26c0 .82-.67 1.5-1.5 1.5-.82 0-1.5-.68-1.5-1.5 0-.83.68-1.5 1.5-1.5.83 0 1.5.67 1.5 1.5zm5.64-2.26c0 .83-.68 1.5-1.5 1.5-.84 0-1.5-.67-1.5-1.5s.66-1.5 1.5-1.5c.82 0 1.5.67 1.5 1.5zm5.62-2.25c0 .8-.67 1.5-1.5 1.5s-1.5-.7-1.5-1.5c0-.84.67-1.5 1.5-1.5s1.5.66 1.5 1.5zm5.64-2.27c0 .83-.67 1.5-1.5 1.5s-1.5-.67-1.5-1.5.67-1.5 1.5-1.5 1.5.67 1.5 1.5zm5.63-2.25c0 .83-.68 1.5-1.5 1.5-.84 0-1.5-.67-1.5-1.5s.66-1.5 1.5-1.5c.82 0 1.5.67 1.5 1.5zm5.63-2.26c0 .83-.67 1.5-1.5 1.5s-1.5-.67-1.5-1.5c0-.82.67-1.5 1.5-1.5s1.5.68 1.5 1.5zm5.63-2.25c0 .83-.67 1.5-1.5 1.5s-1.5-.67-1.5-1.5.67-1.5 1.5-1.5 1.5.67 1.5 1.5zm5.64-2.25c0 .82-.68 1.5-1.5 1.5-.83 0-1.5-.68-1.5-1.5 0-.83.67-1.5 1.5-1.5.82 0 1.5.67 1.5 1.5zm5.63-2.26c0 .83-.67 1.5-1.5 1.5s-1.5-.67-1.5-1.5.67-1.5 1.5-1.5 1.5.67 1.5 1.5zm5.64-2.25c0 .84-.68 1.5-1.5 1.5-.83 0-1.5-.66-1.5-1.5 0-.82.67-1.5 1.5-1.5.82 0 1.5.68 1.5 1.5zm5.63-2.25c0 .83-.67 1.5-1.5 1.5s-1.5-.67-1.5-1.5c0-.82.67-1.5 1.5-1.5s1.5.68 1.5 1.5zm5.64-2.25c0 .83-.68 1.5-1.5 1.5-.83 0-1.5-.67-1.5-1.5s.67-1.5 1.5-1.5c.82 0 1.5.67 1.5 1.5zm5.63-2.25c0 .83-.67 1.5-1.5 1.5s-1.5-.67-1.5-1.5.67-1.5 1.5-1.5 1.5.67 1.5 1.5z"/><path d="M238.75 280.2l-2 .8v-2.1h-2.78l3.66-1.47zM440.1 199.67l-3.34 1.34v-2.1h-1.85l-.12-.33 4.2-1.7z" stroke="#000" stroke-width=".05"/><path d="M20 152.25h50.43v50.25H20z" fill="#fff" fill-opacity="0"/><path d="M43.06 166.9l-1.6 6.15h-.54c.07-.6.17-1.52.17-2.44 0-2.27-2-2.44-3.4-2.44H34.3l-4.58 18.52c-.07.3-.17.55-.17.86 0 .72.55 1.27 2.6 1.27h.73l-.13.56H21.45l.13-.55h.62c2.7 0 3.37-.95 3.65-2.12l4.58-18.52H27.3c-2.86 0-5.27 2.1-5.9 4.9h-.54l1.58-6.17h20.62M53.34 159.17c0 .64-.53 1.12-1.16 1.12-.7 0-1.17-.5-1.17-1.13 0-.6.47-1.2 1.18-1.2.63 0 1.16.6 1.16 1.2m-.5 3.05l-2.63 10.34c-.53 2.14-1.9 4.93-4.52 4.93-1.3 0-1.77-.8-1.77-1.5 0-.52.3-1.25 1.15-1.25.46 0 .85.36.85.92 0 .36-.4.44-.4.83 0 .1.13.24.25.24 1.12 0 1.93-1.85 2.5-4.18l2.25-8.84c0-.3-.24-.53-.78-.53-.2 0-.5.04-.66.1l-.07-.4M66.58 162.53l-.1.3c-1.63.16-2.3.6-3.23 1.4l-2.58 2.24 1.56 3.7c.36.85.65 1.44 1.28 1.44.74 0 1.28-1.04 1.8-1.77l.38.27c-.3.5-1.44 3.1-3.1 3.1-1.1 0-1.62-1.28-1.9-1.9l-1.52-3.6-1.36 1.2-1.1 4.05h-1.85l3.6-14.33c.05-.15.08-.32.08-.5 0-.26-.25-.53-.78-.53-.22 0-.46 0-.66.04l-.08-.34 3.84-.6-2.75 11.1 4.08-3.64c.26-.24.5-.56.5-.87 0-.3-.38-.48-.63-.48h-.3l.1-.3h4.73M45.18 184.96c0 .63-.53 1.12-1.17 1.12-.7 0-1.16-.5-1.16-1.12 0-.6.47-1.22 1.17-1.22.65 0 1.18.6 1.18 1.22m-.73 3.04l-2.24 8.85v.34c0 .16.13.24.3.24.54 0 .7-.3 1.56-1.24l.32.24c-.85 1.1-2.07 2.55-3.26 2.55-.68 0-.98-.47-.98-1.13 0-.3 0-.75 1.93-8.22.02-.05.05-.22.05-.3 0-.4-.2-.53-.76-.53-.22 0-.5.05-.68.1l-.07-.4"/><path d="M45.03 72.14v37.63M45.03 72.18v-1.54" stroke="#000" stroke-width="3" fill="none"/><path d="M45.03 125.54l-4.63-14.27h9.27z" stroke="#000" stroke-width="3"/><path d="M46.53 70.64h50.65M46.57 70.64h-1.54" stroke="#000" stroke-width="3" fill="none"/><path d="M112.95 70.64l-14.27 4.64V66z" stroke="#000" stroke-width="3"/><path d="M46.43 70.1l32.12-12.32M46.47 70.1l-1.44.54" stroke="#000" stroke-width="3" fill="none"/><path d="M93.27 52.13L81.6 61.57l-3.3-8.66z" stroke="#000" stroke-width="3"/><path d="M167.55 267.28h39.7V311h-39.7z" fill="#fff" fill-opacity="0"/><path d="M190.6 284.1l-1.58 6.16h-.55c.07-.58.17-1.5.17-2.44 0-2.27-2-2.45-3.4-2.45h-3.38l-4.57 18.52c-.08.3-.2.54-.2.85 0 .72.57 1.27 2.63 1.27h.72l-.14.55H169l.13-.55h.62c2.68 0 3.37-.96 3.65-2.13l4.57-18.53h-3.13c-2.85 0-5.26 2.1-5.88 4.9h-.55l1.6-6.17h20.6M185.3 277.15h1c-.72 2.6-1.72 3.65-3.6 3.65-.87 0-1.4-.14-2.8-.83-1.3-.62-1.58-.76-2.2-.76-.8 0-1.38.53-1.76 1.6h-1c.52-2.24 1.76-3.48 3.48-3.48.76 0 1.6.2 2.4.62 1.5.76 1.97.96 2.66.96.8 0 1.24-.48 1.82-1.75M203.43 276.1l-.1.28c-1.62.17-2.3.6-3.23 1.4l-2.58 2.25 1.56 3.7c.36.85.66 1.43 1.3 1.43.72 0 1.25-1.04 1.8-1.77l.35.25c-.3.5-1.43 3.12-3.1 3.12-1.1 0-1.62-1.3-1.88-1.92l-1.54-3.58-1.35 1.2-1.1 4.03h-1.84l3.6-14.33c.06-.15.08-.32.08-.5 0-.25-.24-.52-.78-.52-.22 0-.46 0-.65.05l-.08-.34 3.85-.6-2.75 11.08 4.06-3.62c.27-.25.5-.56.5-.88 0-.3-.38-.46-.62-.46h-.28l.1-.3h4.7"/><path d="M137.76 233.82h21.5v30.64h-21.5z" fill="#fff" fill-opacity="0"/><path d="M158.4 253l-.95 7.03H138.8v-.5l9.18-10.64-9.2-11.13v-.52h18.12v5.54h-.86c-.52-3.52-2.14-4.24-5.17-4.24h-7.15l7.3 8.85-8.16 9.37h10.66c2.65 0 3.58-1.14 4.1-3.76h.8"/><path d="M239.77 193.82h21.5v30.64h-21.5z" fill="#fff" fill-opacity="0"/><path d="M260.42 213l-.96 7.03H240.8v-.5l9.2-10.64-9.2-11.13v-.52h18.1v5.54h-.85c-.52-3.52-2.14-4.24-5.17-4.24h-7.15l7.3 8.85-8.16 9.37h10.66c2.65 0 3.58-1.14 4.1-3.76h.8"/><path d="M337.76 152.25h21.5v30.64h-21.5z" fill="#fff" fill-opacity="0"/><path d="M358.4 171.44l-.95 7.02H338.8v-.5l9.18-10.64-9.2-11.12v-.52h18.12v5.54h-.86c-.52-3.5-2.14-4.23-5.17-4.23h-7.15l7.3 8.84-8.16 9.36h10.66c2.65 0 3.58-1.14 4.1-3.76h.8"/><path d="M20 98.93h10.72v28.46H20z" fill="#fff" fill-opacity="0"/><path d="M28.84 103.5c0 .88-.75 1.57-1.65 1.57-1 0-1.66-.7-1.66-1.58 0-.87.65-1.73 1.65-1.73.9 0 1.64.86 1.64 1.72m-1.03 4.3l-3.15 12.52c-.04.2-.04.34-.04.48 0 .24.22.34.46.34.76 0 .96-.4 2.2-1.75l.45.33c-1.2 1.55-2.92 3.6-4.6 3.6-.97 0-1.38-.64-1.38-1.57 0-.4 0-1.07 2.72-11.63.03-.07.07-.3.07-.4 0-.6-.27-.77-1.06-.77-.3 0-.72.07-.96.14l-.1-.55"/><path d="M123.83 50.64h13.93v32.82h-13.93z" fill="#fff" fill-opacity="0"/><path d="M137.16 55.2c0 .9-.76 1.58-1.65 1.58-1 0-1.64-.7-1.64-1.58 0-.86.65-1.72 1.65-1.72.9 0 1.66.86 1.66 1.72m-.72 4.3l-3.72 14.63c-.76 3.02-2.68 6.98-6.4 6.98-1.82 0-2.5-1.12-2.5-2.1 0-.74.4-1.78 1.6-1.78.66 0 1.2.52 1.2 1.3 0 .53-.54.63-.54 1.18 0 .14.17.34.34.34 1.6 0 2.72-2.6 3.55-5.9l3.16-12.5c0-.42-.34-.76-1.1-.76-.27 0-.7.07-.93.17l-.1-.6"/><path d="M61.53 20H80.2v30.64H61.53z" fill="#fff" fill-opacity="0"/><path d="M79.67 31.5l-.14.4c-2.3.24-3.27.86-4.58 2l-3.64 3.16 2.2 5.23c.53 1.2.94 2.02 1.83 2.02 1.04 0 1.8-1.48 2.55-2.5l.52.37c-.42.7-2.03 4.4-4.37 4.4-1.6 0-2.3-1.83-2.7-2.73l-2.16-5.05-1.92 1.68-1.55 5.7h-2.62l5.1-20.25c.06-.2.1-.45.1-.7 0-.37-.35-.75-1.1-.75-.3 0-.66 0-.93.07l-.1-.48 5.43-.87-3.9 15.7 5.76-5.14c.38-.35.72-.8.72-1.25 0-.4-.55-.65-.9-.65h-.4l.13-.4h6.67"/></g></svg>