<svg xmlns="http://www.w3.org/2000/svg" xmlns:lucid="lucid" width="760" height="327.97"><g lucid:page-tab-id="tzDfQyb1wR48"><path d="M180 163.57c0 5.52-4.48 10-10 10s-10-4.48-10-10 4.48-10 10-10 10 4.48 10 10z" stroke="#3a414a" stroke-width="5" fill="#3a414a"/><path d="M240 104.57v118l80-59z" stroke="#3a414a" stroke-width="5" fill-opacity="0"/><path d="M240 137.18h62.16v52.8H240z" fill="#fff" fill-opacity="0"/><path d="M265.1 164.58l.96.9c-4.84 5.94-9.54 7.6-13.83 7.6-6.77 0-9.47-5.8-9.47-10.78 0-1.6.07-2.56.42-4.15 1.73-7.67 9.33-16.3 18.1-16.3 2.9 0 7.06.96 7.06 5.24 0 8.77-11.55 12.16-19.77 12.57v1.94c0 4.43 3.6 7.4 7.8 7.4 2.9 0 6.23-1.24 8.72-4.42m-16.53-6.84h.62c7.18 0 13.68-4.77 13.68-10.85 0-1.74-1.32-3-3.04-3-5.12 0-9.27 7.96-11.27 13.84M294.02 166.56c0 8.4-3.08 16.8-11.05 16.8-8.35 0-11.04-9.08-11.04-17.1 0-8.64 3.37-16.6 11.24-16.6 6.4 0 10.85 6.9 10.85 16.9m-4.7.25c0-10.16-2.15-15.87-6.45-15.87-4.05 0-6.25 5.76-6.25 15.68 0 9.93 2.15 15.5 6.35 15.5 4.16 0 6.35-5.62 6.35-15.3" fill="#3a414a"/><path d="M100 138.82v-118l-80 59z" stroke="#3a414a" stroke-width="5" fill-opacity="0"/><path d="M40 53.43h62.16v52.8H40z" fill="#fff" fill-opacity="0"/><path d="M65.1 80.83l.96.9c-4.84 5.95-9.54 7.6-13.83 7.6-6.77 0-9.47-5.8-9.47-10.78 0-1.6.07-2.55.42-4.14 1.73-7.67 9.33-16.3 18.1-16.3 2.9 0 7.06.96 7.06 5.25 0 8.78-11.55 12.16-19.77 12.58v1.93c0 4.42 3.6 7.4 7.8 7.4 2.9 0 6.23-1.25 8.72-4.43M48.56 74h.62c7.18 0 13.68-4.78 13.68-10.86 0-1.73-1.32-2.97-3.04-2.97-5.12 0-9.27 7.95-11.27 13.82M94.02 82.82c0 8.4-3.08 16.8-11.05 16.8-8.35 0-11.04-9.08-11.04-17.1 0-8.65 3.37-16.6 11.24-16.6 6.4 0 10.85 6.88 10.85 16.9m-4.7.24c0-10.16-2.15-15.88-6.45-15.88-4.05 0-6.25 5.77-6.25 15.7 0 9.9 2.15 15.48 6.35 15.48 4.16 0 6.35-5.62 6.35-15.3" fill="#3a414a"/><path d="M100 307.97v-118l-80 59z" stroke="#3a414a" stroke-width="5" fill-opacity="0"/><path d="M40 222.57h62.16v52.8H40z" fill="#fff" fill-opacity="0"/><path d="M65.1 249.97l.96.9c-4.84 5.95-9.54 7.6-13.83 7.6-6.77 0-9.47-5.8-9.47-10.78 0-1.6.07-2.56.42-4.15 1.73-7.68 9.33-16.3 18.1-16.3 2.9 0 7.06.95 7.06 5.24 0 8.77-11.55 12.15-19.77 12.57V247c0 4.43 3.6 7.4 7.8 7.4 2.9 0 6.23-1.25 8.72-4.43m-16.53-6.84h.62c7.18 0 13.68-4.77 13.68-10.85 0-1.73-1.32-2.97-3.04-2.97-5.12 0-9.27 7.96-11.27 13.83M94.02 251.96c0 8.4-3.08 16.8-11.05 16.8-8.35 0-11.04-9.08-11.04-17.1 0-8.64 3.37-16.6 11.24-16.6 6.4 0 10.85 6.88 10.85 16.9m-4.7.24c0-10.16-2.15-15.88-6.45-15.88-4.05 0-6.25 5.77-6.25 15.7 0 9.9 2.15 15.48 6.35 15.48 4.16 0 6.35-5.62 6.35-15.3" fill="#3a414a"/><path d="M105 79.9l2.13.2 1.94.33 1.77.4 1.6.48 1.52.57 1.42.63 1.35.7 1.3.8 1.26.9 1.23 1 1.23 1.12 1.24 1.3 1.27 1.5 1.3 1.8 1.4 2.16 1.53 2.77 1.78 3.8 2.46 6.25 9.75 27.8 2.36 5.02 2.16 3.9 2.07 3.24 2.02 2.76 2.04 2.43 2.08 2.16 1.98 1.83" stroke="#3a414a" stroke-width="5" stroke-linejoin="round" fill="none"/><path d="M105.14 77.4l-.15 5-2.5-.07v-5zM160.67 155.33l-1.52 2-1 2.4-2.57-2.1 3.16-3.87z" stroke="#3a414a" stroke-width=".05" fill="#3a414a"/><path d="M105 248.87l1.73-.17 1.78-.28 1.63-.37 1.5-.45 1.4-.5 1.3-.6 1.25-.64 1.2-.73 1.17-.8 1.15-.93 1.14-1.03 1.14-1.18 1.16-1.37 1.2-1.6 1.24-1.92 1.34-2.4 1.5-3.13 1.85-4.58 3.73-11.58 5.07-15.98 2.23-5.55 1.93-4.03 1.8-3.2 1.73-2.65 1.7-2.3 1.7-1.98 1.72-1.78 1.75-1.6 1.82-1.44 1.9-1.32.97-.6" stroke="#3a414a" stroke-width="5" stroke-linejoin="round" fill="none"/><path d="M105.14 251.38l-2.64.1v-5.02l2.5-.07zM159.9 170.97l1.83 1.84-2.9 1.6-2.4-4.4 2.3-1.25z" stroke="#3a414a" stroke-width=".05" fill="#3a414a"/><path d="M185.02 163.58H235" stroke="#3a414a" stroke-width="5" fill="none"/><path d="M185.1 166.08h-2.97l.4-2.47-.34-2.52h2.9zM237.5 166.08h-2.56v-5h2.56z" stroke="#3a414a" stroke-width=".05" fill="#3a414a"/><path d="M600 162.75c0 5.52-4.48 10-10 10s-10-4.48-10-10c0-5.53 4.48-10 10-10s10 4.47 10 10z" stroke="#3a414a" stroke-width="5" fill="#3a414a"/><path d="M660 103.75v118l80-59z" stroke="#3a414a" stroke-width="5" fill-opacity="0"/><path d="M660 136.35h62.16v52.8H660z" fill="#fff" fill-opacity="0"/><path d="M685.1 163.76l.96.9c-4.84 5.94-9.54 7.6-13.83 7.6-6.77 0-9.47-5.8-9.47-10.8 0-1.58.07-2.54.42-4.13 1.73-7.67 9.33-16.3 18.1-16.3 2.9 0 7.06.95 7.06 5.24 0 8.78-11.55 12.16-19.77 12.58v1.93c0 4.43 3.6 7.4 7.8 7.4 2.9 0 6.23-1.25 8.72-4.42m-16.53-6.85h.62c7.18 0 13.68-4.76 13.68-10.84 0-1.73-1.32-2.97-3.04-2.97-5.12 0-9.27 7.94-11.27 13.8M710 181.86h-13.48v-.73c3.62-.2 4.64-1.22 4.64-3.9v-21.95c0-1.66-.44-2.4-1.46-2.4-.5 0-1.32.25-2.2.6l-1.32.48v-.68l8.75-4.45.44.15v29.17c0 2.1.97 2.98 4.64 2.98v.73" fill="#3a414a"/><path d="M520 138V20l-80 59z" stroke="#3a414a" stroke-width="5" fill-opacity="0"/><path d="M466.77 52.6h62.16v52.8h-62.16z" fill="#fff" fill-opacity="0"/><path d="M491.86 80l.97.9c-4.84 5.95-9.54 7.6-13.83 7.6-6.77 0-9.46-5.8-9.46-10.77 0-1.6.07-2.56.4-4.15 1.74-7.67 9.34-16.3 18.12-16.3 2.9 0 7.05.96 7.05 5.24 0 8.78-11.53 12.17-19.76 12.58v1.94c0 4.42 3.6 7.4 7.8 7.4 2.9 0 6.23-1.25 8.72-4.43m-16.52-6.83h.62c7.2 0 13.7-4.77 13.7-10.85 0-1.73-1.32-2.98-3.05-2.98-5.1 0-9.25 7.95-11.26 13.83M516.78 98.12h-13.5v-.74c3.63-.2 4.66-1.22 4.66-3.9V71.54c0-1.67-.44-2.4-1.47-2.4-.5 0-1.32.25-2.2.6l-1.32.48v-.7l8.75-4.43.44.13V94.4c0 2.1.98 2.98 4.64 2.98v.74" fill="#3a414a"/><path d="M520 307.14v-118l-80 59z" stroke="#3a414a" stroke-width="5" fill-opacity="0"/><path d="M466.77 221.75h62.16v52.8h-62.16z" fill="#fff" fill-opacity="0"/><path d="M491.86 249.15l.97.9c-4.84 5.94-9.54 7.6-13.83 7.6-6.77 0-9.46-5.8-9.46-10.78 0-1.6.07-2.56.4-4.15 1.74-7.67 9.34-16.3 18.12-16.3 2.9 0 7.05.96 7.05 5.24 0 8.78-11.53 12.17-19.76 12.58v1.94c0 4.42 3.6 7.4 7.8 7.4 2.9 0 6.23-1.25 8.72-4.43m-16.52-6.84h.62c7.2 0 13.7-4.76 13.7-10.84 0-1.73-1.32-2.98-3.05-2.98-5.1 0-9.25 7.95-11.26 13.83M516.78 267.26h-13.5v-.74c3.63-.2 4.66-1.22 4.66-3.9v-21.94c0-1.67-.44-2.4-1.47-2.4-.5 0-1.32.25-2.2.6l-1.32.48v-.7l8.75-4.43.44.14v29.17c0 2.1.98 2.98 4.64 2.98v.74" fill="#3a414a"/><path d="M525 79.08l2.13.2 1.94.32 1.77.4 1.6.5 1.52.55 1.42.63 1.35.7 1.3.8 1.26.9 1.23 1 1.23 1.12 1.24 1.3 1.27 1.5 1.3 1.78 1.4 2.18 1.53 2.77 1.78 3.78 2.46 6.28 9.75 27.8 2.36 5.02 2.16 3.9 2.07 3.23 2.02 2.77 2.04 2.42 2.08 2.16 1.98 1.82" stroke="#3a414a" stroke-width="5" stroke-linejoin="round" fill="none"/><path d="M525.14 76.58l-.15 5-2.5-.08v-5zM580.67 154.5l-1.52 2-1 2.4-2.57-2.1 3.16-3.87z" stroke="#3a414a" stroke-width=".05" fill="#3a414a"/><path d="M525 248.05l1.73-.17 1.78-.3 1.63-.36 1.5-.44 1.4-.5 1.3-.6 1.25-.64 1.2-.73 1.17-.8 1.15-.92 1.14-1.04 1.14-1.17 1.16-1.37 1.2-1.6 1.24-1.92 1.34-2.4 1.5-3.13 1.85-4.58 3.73-11.58 5.07-15.98 2.23-5.55 1.93-4.02 1.8-3.2 1.73-2.66 1.7-2.3 1.7-2 1.72-1.76 1.75-1.6 1.82-1.45 1.9-1.32.97-.6" stroke="#3a414a" stroke-width="5" stroke-linejoin="round" fill="none"/><path d="M525.14 250.56l-2.64.08v-5l2.5-.08zM579.9 170.15l1.83 1.84-2.9 1.56-2.4-4.4 2.3-1.24z" stroke="#3a414a" stroke-width=".05" fill="#3a414a"/><path d="M605.02 162.75H655" stroke="#3a414a" stroke-width="5" fill="none"/><path d="M605.1 165.25h-2.97l.4-2.47-.34-2.53h2.9zM657.5 165.25h-2.56v-5h2.56z" stroke="#3a414a" stroke-width=".05" fill="#3a414a"/></g></svg>