<svg xmlns="http://www.w3.org/2000/svg" xmlns:lucid="lucid" width="200" height="350.54"><g lucid:page-tab-id="0_0"><path d="M120 170c0 27.6-22.4 50-50 50s-50-22.4-50-50 22.4-50 50-50 50 22.4 50 50z" stroke="#3a414a" stroke-width="5" fill-opacity="0"/><path d="M53.98 147.98h33.5v44.04h-33.5z" fill="#fff" fill-opacity="0"/><path d="M84.67 157.4l-.97.57c-1.73-2.5-4.14-3.25-8.3-3.25-4.35 0-9.6 3.04-9.6 7.8 0 2.22 2.28 3.53 5.4 3.53 1.44 0 2.55-.62 4.28-.62 1.52 0 2.62.5 2.62 1.38 0 1.2-.7 2.16-2.97 2.16-.62 0-2.76-.42-4.2-.42-3.4 0-9.2 2.28-9.2 7.12 0 4.22 4.5 5.4 8.63 5.4 3.67 0 8.16-1.8 10.44-5.05l.9.7c-2.9 4.07-6.84 7.2-14.52 7.2-8.57 0-11.47-3.47-11.47-7.06 0-5.05 3.4-8.3 8.03-9.47-2.42-.83-4-2.28-4-4.56 0-5.6 5.73-10.15 15.54-10.15 4.3 0 8.5 2.28 9.4 4.76" fill="#3a414a"/><path d="M160 20h15.06v40H160z" fill="#fff" fill-opacity="0"/><path d="M172.43 26.4c0 1.27-1.06 2.23-2.32 2.23-1.4 0-2.3-.96-2.3-2.22 0-1.2.9-2.4 2.3-2.4 1.27 0 2.33 1.2 2.33 2.4m-1.45 6.05l-4.45 17.6c-.05.3-.05.5-.05.68 0 .34.3.5.63.5 1.07 0 1.36-.6 3.1-2.48l.63.48c-1.7 2.18-4.1 5.08-6.48 5.08-1.35 0-1.93-.9-1.93-2.2 0-.6 0-1.5 3.82-16.36.05-.1.1-.43.1-.58 0-.82-.4-1.06-1.5-1.06-.44 0-1.02.1-1.36.2l-.14-.78" fill="#3a414a"/><path d="M160.4 284.4H180v46.14h-19.6z" fill="#fff" fill-opacity="0"/><path d="M179.15 290.82c0 1.25-1.06 2.22-2.32 2.22-1.4 0-2.32-.97-2.32-2.22 0-1.2.93-2.42 2.33-2.42 1.26 0 2.32 1.2 2.32 2.42m-1 6.04l-5.23 20.56c-1.07 4.25-3.78 9.8-9 9.8-2.56 0-3.53-1.58-3.53-2.94 0-1.06.57-2.5 2.26-2.5.92 0 1.7.7 1.7 1.83 0 .73-.78.88-.78 1.65 0 .2.24.48.48.48 2.23 0 3.83-3.67 5-8.3l4.44-17.57c0-.58-.5-1.06-1.55-1.06-.4 0-.97.1-1.3.24l-.15-.82" fill="#3a414a"/><path d="M121.25 61.25h57.5v2.5h-57.5zM121.25 276.25h57.5v2.5h-57.5z" stroke="#3a414a" stroke-width="2.5" fill="none"/><path d="M70 115V68.5a6 6 0 0 1 6-6h41.5" stroke="#3a414a" stroke-width="5" fill="none"/><path d="M72.5 117.62l-2.48-.12-2.52.1v-2.67h5zM120 65h-2.56v-5H120z" stroke="#3a414a" stroke-width=".05" fill="#3a414a"/><path d="M70 225v46.5a6 6 0 0 0 6 6h41.5" stroke="#3a414a" stroke-width="5" fill="none"/><path d="M69.98 222.5l2.52-.1v2.67h-5v-2.7zM120 280h-2.56v-5H120z" stroke="#3a414a" stroke-width=".05" fill="#3a414a"/></g></svg>