<svg xmlns="http://www.w3.org/2000/svg" xmlns:lucid="lucid" width="720" height="228.45"><g lucid:page-tab-id="-Amc4h5oqWjC"><path d="M20 20h527.1v188.45H20z" fill="#fff" fill-opacity="0"/><path d="M84.14 118.16l-3.66 20.67h-51.5l27.1-35.25-25.37-35.4h51.64v17.36h-2.07C78.82 76.2 76.2 72.76 67 72.76H44.88l20.04 27.02-23.22 30h28.62c7.74 0 10.22-4.7 11.74-11.62h2.08M32.56 155.9c0 1.26-1.08 2.24-2.35 2.24-1.4 0-2.33-.98-2.33-2.25 0-1.23.93-2.45 2.34-2.45 1.28 0 2.36 1.22 2.36 2.44M31.1 162l-4.5 17.78c-.05.3-.05.5-.05.7 0 .33.3.48.63.48 1.08 0 1.37-.6 3.13-2.5l.65.5c-1.7 2.2-4.16 5.12-6.55 5.12-1.37 0-1.96-.93-1.96-2.24 0-.6 0-1.52 3.86-16.52.05-.1.1-.44.1-.6 0-.82-.4-1.06-1.5-1.06-.45 0-1.04.1-1.38.2l-.15-.8M66.33 167.9H37.55v-3.22h28.78v3.23m0 9.78H37.55v-3.22h28.78v3.22M87.9 183.55H74.43v-.74c3.62-.18 4.64-1.2 4.64-3.9v-21.94c0-1.66-.44-2.4-1.46-2.4-.5 0-1.32.25-2.2.6l-1.32.48v-.68l8.75-4.45.44.16v29.17c0 2.1.97 2.98 4.64 2.98v.75M67.22 49.6l-.25.3c-1.37 1.67-3.7 4.8-6.25 4.8-1.57 0-2-1.13-2-2.26 0-.63.2-1.4.34-1.95l2.78-10.8c.1-.4.34-1.38.34-2.06 0-.93-.3-1.86-1.17-1.86-1.85 0-4.92 4.2-6.44 6.5-1.76 2.64-3.03 4.94-3.32 5.96l-1.6 6.06h-3.78l4.65-18.27c0-.88-.14-1.57-1.46-1.57-.5 0-1.03.1-1.37.15l-.1-.72 7.77-1.13-2.5 9.24H53c.24 0 2.64-3.43 2.73-3.58 1.96-2.44 4.9-5.67 7.82-5.67 2.15 0 2.74 1.42 2.74 3.03 0 1.22-.3 2.45-.55 3.42l-2.88 11.3c-.05.1-.05.23-.05.48.05.3.2.68.73.68 1.17 0 2.35-1.76 3.03-2.6M170.67 118.16L167 138.83h-51.48l27.1-35.25-25.38-35.4h51.63v17.36h-2.07c-1.45-9.33-4.08-12.78-13.27-12.78H131.4l20.06 27.02-23.23 30h28.62c7.74 0 10.23-4.7 11.75-11.62h2.07M122.84 155.9c0 1.26-1.07 2.24-2.34 2.24-1.42 0-2.35-.98-2.35-2.25 0-1.23.93-2.45 2.35-2.45 1.27 0 2.34 1.22 2.34 2.44m-1.02 6.1l-5.28 20.76c-1.08 4.3-3.8 9.92-9.1 9.92-2.58 0-3.56-1.6-3.56-2.98 0-1.07.6-2.54 2.3-2.54.93 0 1.7.73 1.7 1.86 0 .73-.77.88-.77 1.66 0 .2.25.5.5.5 2.24 0 3.86-3.73 5.03-8.42l4.5-17.73c0-.6-.5-1.08-1.57-1.08-.4 0-.98.1-1.32.25l-.14-.83M154.8 167.9h-28.78v-3.22h28.78v3.23m0 9.78h-28.78v-3.22h28.78v3.22M176.44 183.55h-13.48v-.74c3.6-.18 4.64-1.2 4.64-3.9v-21.94c0-1.66-.44-2.4-1.47-2.4-.48 0-1.3.25-2.2.6l-1.3.48v-.68l8.73-4.45.44.16v29.17c0 2.1.98 2.98 4.64 2.98v.75M153.82 49.6l-.25.3c-1.36 1.67-3.7 4.8-6.25 4.8-1.57 0-2-1.13-2-2.26 0-.63.2-1.4.34-1.95l2.78-10.8c.1-.4.34-1.38.34-2.06 0-.93-.3-1.86-1.17-1.86-1.85 0-4.92 4.2-6.44 6.5-1.76 2.64-3.03 4.94-3.32 5.96l-1.6 6.06h-3.78l4.65-18.27c0-.88-.14-1.57-1.46-1.57-.5 0-1.03.1-1.37.15l-.1-.72 7.77-1.13-2.5 9.24h.16c.24 0 2.64-3.43 2.73-3.58 1.96-2.44 4.9-5.67 7.82-5.67 2.15 0 2.74 1.42 2.74 3.03 0 1.22-.3 2.45-.55 3.42l-2.88 11.3c-.05.1-.05.23-.05.48.05.3.2.68.73.68 1.18 0 2.35-1.76 3.03-2.6M224.37 78.77c0 1.45-1.03 3.18-3.18 3.18-4.64 0-.9-4.5-7.2-4.5-2.62 0-6.22 2-6.22 4.64 0 6.55 15.5 10.5 15.5 20.24 0 2.28-.36 5.46-1.26 7.74-2.42 5.94-8.02 11.47-15.96 11.47-6.7 0-10.1-4.5-10.1-10.02 0-8.23 6.85-17.35 16.52-18.32-3.18-3.17-7.18-5.3-7.18-9.04 0-6.64 6.98-9.54 11.54-9.54 3.45 0 7.53 1.1 7.53 4.15m-6.9 23.43c0-3.04-1.05-6.9-3.74-6.9-5.95 0-12.37 11.04-12.37 17.2 0 3.8 1.86 7.05 4.83 7.05 6.22 0 11.26-10.8 11.26-17.35M237.76 68.8c0 1.27-1.08 2.25-2.35 2.25-1.4 0-2.33-.98-2.33-2.25 0-1.22.93-2.44 2.34-2.44 1.28 0 2.36 1.22 2.36 2.44m-1.47 6.1l-4.5 17.8c-.05.3-.05.5-.05.68 0 .35.3.5.63.5 1.08 0 1.37-.6 3.13-2.5l.65.5c-1.7 2.2-4.16 5.12-6.55 5.12-1.37 0-1.96-.93-1.96-2.25 0-.6 0-1.5 3.86-16.5.05-.1.1-.45.1-.6 0-.83-.4-1.08-1.5-1.08-.45 0-1.04.1-1.38.2l-.15-.78M243.38 111.93c0 1.27-1.08 2.25-2.35 2.25-1.4 0-2.34-.98-2.34-2.25 0-1.22.92-2.44 2.33-2.44 1.27 0 2.35 1.2 2.35 2.43m-1.03 6.1l-5.27 20.78c-1.08 4.3-3.82 9.93-9.1 9.93-2.58 0-3.56-1.62-3.56-2.98 0-1.08.6-2.55 2.3-2.55.92 0 1.7.74 1.7 1.86 0 .73-.78.88-.78 1.66 0 .2.25.5.5.5 2.24 0 3.85-3.72 5.03-8.4l4.5-17.75c0-.6-.5-1.08-1.57-1.08-.4 0-.98.1-1.32.24l-.15-.83M287.75 113.05l.97.9c-4.84 5.94-9.54 7.6-13.83 7.6-6.78 0-9.47-5.8-9.47-10.78 0-1.6.07-2.56.4-4.15 1.74-7.67 9.34-16.3 18.12-16.3 2.9 0 7.05.96 7.05 5.24 0 8.78-11.54 12.17-19.77 12.58v1.94c0 4.42 3.6 7.4 7.8 7.4 2.9 0 6.23-1.25 8.72-4.43m-16.52-6.84h.62c7.2 0 13.7-4.76 13.7-10.84 0-1.73-1.32-2.98-3.05-2.98-5.12 0-9.26 7.95-11.27 13.83M305.98 103.5c0 1.27-1.08 2.25-2.35 2.25-1.42 0-2.35-.98-2.35-2.25 0-1.22.93-2.44 2.35-2.44 1.27 0 2.35 1.22 2.35 2.44m-1.47 6.1l-4.5 17.8c-.03.3-.03.48-.03.68 0 .34.3.5.63.5 1.08 0 1.37-.6 3.13-2.5l.63.48c-1.7 2.2-4.15 5.13-6.54 5.13-1.37 0-1.96-.93-1.96-2.25 0-.6 0-1.52 3.86-16.52.05-.1.1-.44.1-.6 0-.82-.4-1.06-1.52-1.06-.44 0-1.02.1-1.36.2l-.15-.8M385.7 103.37c0 14.17-11.5 25.64-25.66 25.64s-25.64-11.46-25.64-25.63c0-14.17 11.48-25.64 25.64-25.64 14.17 0 25.65 11.47 25.65 25.64m-25.66-3.25l13.2-13.2c-3.6-2.9-8.22-4.63-13.2-4.63-4.97 0-9.6 1.72-13.2 4.62m16.45 16.45l13.2 13.2c2.9-3.6 4.62-8.22 4.62-13.2 0-4.97-1.72-9.6-4.63-13.2m-19.7 13.2l-13.2-13.2c-2.9 3.6-4.64 8.23-4.64 13.2 0 4.98 1.73 9.6 4.63 13.2m29.64 3.25l-13.2-13.2-13.2 13.2c3.6 2.9 8.23 4.63 13.2 4.63 4.98 0 9.6-1.72 13.2-4.63M429.64 113.05l.97.9c-4.83 5.94-9.53 7.6-13.8 7.6-6.8 0-9.48-5.8-9.48-10.78 0-1.6.07-2.56.4-4.15 1.74-7.67 9.34-16.3 18.12-16.3 2.9 0 7.05.96 7.05 5.24 0 8.78-11.55 12.17-19.78 12.58v1.94c0 4.42 3.6 7.4 7.8 7.4 2.92 0 6.23-1.25 8.72-4.43m-16.52-6.84h.63c7.18 0 13.68-4.76 13.68-10.84 0-1.73-1.3-2.98-3.04-2.98-5.12 0-9.27 7.95-11.28 13.83M453.5 68.1c0 1.28-1.1 2.26-2.36 2.26-1.42 0-2.34-.98-2.34-2.25 0-1.2.92-2.43 2.34-2.43 1.27 0 2.35 1.22 2.35 2.44m-1.04 6.12L447.18 95c-1.07 4.3-3.8 9.9-9.1 9.9-2.57 0-3.55-1.6-3.55-2.97 0-1.08.58-2.54 2.3-2.54.92 0 1.7.72 1.7 1.84 0 .74-.78.88-.78 1.66 0 .2.25.5.5.5 2.24 0 3.85-3.72 5.02-8.4l4.5-17.75c0-.6-.5-1.07-1.56-1.07-.38 0-.97.1-1.3.24l-.16-.83M543.75 98.67h-40.7V94.1h40.7v4.57m0 13.83h-40.7v-4.57h40.7v4.57" fill="#3a414a"/><path d="M601.25 102.04h97.5v2.5h-97.5z" stroke="#3a414a" stroke-width="2.5" fill="none"/></g></svg>