<svg xmlns="http://www.w3.org/2000/svg" xmlns:lucid="lucid" width="310.5" height="380"><g lucid:page-tab-id="oAncZDbrMBoM"><path d="M86 20h100v98.4H86z" stroke="#3a414a" stroke-width="5" fill-opacity="0"/><path d="M112.83 39.2h46.34v61.55h-46.34z" fill="#fff" fill-opacity="0"/><path d="M159.14 46.73l-3.18 12.37h-1.1c.13-1.18.34-3.04.34-4.9 0-4.57-4-4.92-6.85-4.92h-6.77l-9.2 37.2c-.13.6-.34 1.1-.34 1.72 0 1.45 1.1 2.55 5.26 2.55h1.45l-.28 1.1h-22.74l.28-1.1h1.25c5.4 0 6.78-1.93 7.33-4.28l9.2-37.2h-6.3c-5.73 0-10.57 4.23-11.82 9.83h-1.1l3.18-12.37h41.4" fill="#3a414a"/><path d="M181.96 360V180l-80 90z" stroke="#3a414a" stroke-width="5" fill-opacity="0"/><path d="M118.5 230.24H186v65.92h-67.5z" fill="#fff" fill-opacity="0"/><path d="M135.57 255.88l-6.15 22.54c-.2.7-.28 1.45-.28 2.2 0 2.63 1.38 4.57 4.15 4.57 7.45 0 12.3-7.82 14.5-14.04.55-1.66 1.04-3.4 1.04-5.12 0-5.1-4.22-4.5-4.22-7.53 0-2.34 1.73-2.9 3.73-2.9 2.9 0 3.25 3.53 3.25 5.74 0 6.85-2.7 13.83-6.7 19.36-2.97 4.14-8.3 7.18-13.4 7.18-4.43 0-8.03-1.38-8.03-6.42 0-1.45.2-2.9.62-4.3l4-14.5c.14-.56.35-1.18.35-1.73 0-1.38-3.04-1.38-3.94-1.38v-1.04c3.6-.9 7.33-1.37 10.8-2.9M175.8 245.78c0 .53-.4 1.12-1.08 1.5-1.22.74-4.05.74-7.57 2.75 3.08 1.8 6.2 1.95 7.52 2.73.7.4 1.03.98 1.03 1.57 0 .97-.68 1.9-1.9 1.9-2 0-3.23-3.42-7-5.57 0 3.37 1.42 6.4 1.42 7.92 0 1.02-.97 2.05-1.85 2.05-.93 0-1.86-1.03-1.86-2.05 0-1.52 1.43-4.55 1.43-7.92-2.54 1.47-4.84 4.55-5.9 5.13-.45.24-.9.38-1.33.38-1.18 0-1.8-.73-1.8-1.56 0-.68.28-1.47 1-1.9 1.33-.74 4.95-1.23 7.5-2.7-2.55-1.46-6.3-1.95-7.68-2.78-.64-.4-.98-.93-.98-1.46 0-1.03.73-2.06 1.76-2.06.34 0 .68.1 1.08.3 1.4.83 3.56 3.8 6.35 5.27 0-3.38-1.42-6.6-1.42-8.12 0-1.02.94-1.95 1.87-1.95.88 0 1.85.93 1.85 1.95 0 1.52-1.4 4.7-1.4 8.07 3.5-1.86 4.83-4.45 6.14-5.23.4-.2.74-.3 1.08-.3 1.03 0 1.76 1.03 1.76 2.06" fill="#3a414a"/><path d="M201.48 275.9h19.58v46.13h-19.58z" fill="#fff" fill-opacity="0"/><path d="M220.22 282.3c0 1.27-1.07 2.24-2.32 2.24-1.4 0-2.32-.97-2.32-2.23 0-1.2.9-2.4 2.32-2.4 1.25 0 2.32 1.2 2.32 2.4m-1.02 6.06l-5.22 20.55c-1.06 4.27-3.77 9.83-9 9.83-2.56 0-3.53-1.6-3.53-2.95 0-1.06.58-2.52 2.28-2.52.92 0 1.7.73 1.7 1.84 0 .73-.78.87-.78 1.65 0 .2.24.48.48.48 2.22 0 3.82-3.67 4.98-8.32l4.46-17.54c0-.58-.48-1.07-1.55-1.07-.37 0-.95.1-1.3.23l-.14-.82" fill="#3a414a"/><path d="M206 21.53h15.06v40H206z" fill="#fff" fill-opacity="0"/><path d="M218.43 27.94c0 1.26-1.06 2.22-2.32 2.22-1.4 0-2.3-.96-2.3-2.22 0-1.2.9-2.42 2.3-2.42 1.27 0 2.33 1.2 2.33 2.42m-1.45 6.04l-4.45 17.6c-.05.3-.05.5-.05.68 0 .34.3.5.63.5 1.07 0 1.36-.6 3.1-2.48l.63.5c-1.7 2.16-4.1 5.06-6.48 5.06-1.35 0-1.93-.92-1.93-2.22 0-.58 0-1.5 3.82-16.35.05-.1.1-.43.1-.58 0-.83-.4-1.07-1.5-1.07-.44 0-1.02.1-1.36.2l-.14-.78" fill="#3a414a"/><path d="M81 69.2H28.5" stroke="#3a414a" stroke-width="5" stroke-linejoin="round" fill="none"/><path d="M83.5 71.7h-2.56v-5h2.56z" stroke="#3a414a" stroke-width=".05" fill="#3a414a"/><path d="M28.56 69.2H26" stroke="#3a414a" stroke-width="5" fill="none"/><path d="M46 20h26.24v43.06H46z" fill="#fff" fill-opacity="0"/><path d="M71.5 36.14l-.2.58c-3.25.34-4.6 1.2-6.44 2.8L59.73 44l3.1 7.35c.73 1.7 1.3 2.85 2.56 2.85 1.44 0 2.5-2.08 3.57-3.53l.73.53c-.58 1.02-2.86 6.2-6.14 6.2-2.23 0-3.24-2.57-3.78-3.83l-3.04-7.1-2.7 2.36-2.2 8.04H48.2l7.15-28.48c.1-.3.15-.63.15-.97 0-.54-.48-1.07-1.55-1.07-.43 0-.92 0-1.3.1l-.15-.68 7.64-1.2-5.46 22.04 8.07-7.22c.54-.48 1.02-1.1 1.02-1.74 0-.58-.78-.92-1.26-.92h-.6l.2-.58h9.4" fill="#3a414a"/><path d="M186.96 269.94l2.68-.2 2.9-.37 3.18-.56 3.44-.77 3.73-1.05 4.03-1.36 4.37-1.7 4.68-2.12 4.98-2.55 5.23-3 5.4-3.5 5.47-3.92 5.45-4.33 5.3-4.67 5.05-4.9 4.7-5.06 4.32-5.12 3.87-5.1 3.43-5 3-4.88 2.6-4.72 2.2-4.55 1.86-4.37 1.53-4.2 1.25-4 1-3.86.75-3.7.55-3.57.36-3.43.2-3.32v-.55l-.02-3.3-.18-3.4-.37-3.5-.57-3.63-.77-3.76-1.03-3.9-1.27-4.03-1.55-4.2-1.86-4.35-2.2-4.5-2.57-4.67-2.95-4.77-3.35-4.86-3.76-4.9-4.14-4.9-4.5-4.8-4.77-4.6-5-4.38-5.1-4.04-5.13-3.65-5.05-3.23-4.9-2.8-4.7-2.38-4.42-1.97-4.15-1.6-3.87-1.3-3.6-1-3.34-.74-3.1-.53-2.87-.35-2.43-.17" stroke="#3a414a" stroke-width="5" stroke-linejoin="round" fill="none"/><path d="M187.1 272.43l-2.64.07v-5l2.5-.06zM191.12 66.77l-.1 5-2.52-.06v-5z" stroke="#3a414a" stroke-width=".05" fill="#3a414a"/></g></svg>