<svg xmlns="http://www.w3.org/2000/svg" xmlns:lucid="lucid" width="346" height="300"><g lucid:page-tab-id="Zur91cNuRUT2"><path d="M246 20v120l80-60z" stroke="#3a414a" stroke-width="5" fill-opacity="0"/><path d="M246 44.85h66.38v57.17H246z" fill="#fff" fill-opacity="0"/><path d="M263.07 53l-6.15 22.53c-.2.7-.28 1.45-.28 2.2 0 2.64 1.4 4.57 4.15 4.57 7.45 0 12.3-7.8 14.5-14.03.56-1.65 1.04-3.38 1.04-5.1 0-5.12-4.2-4.5-4.2-7.54 0-2.35 1.7-2.9 3.72-2.9 2.9 0 3.25 3.52 3.25 5.73 0 6.84-2.7 13.82-6.7 19.35-2.97 4.16-8.3 7.2-13.4 7.2-4.43 0-8.02-1.38-8.02-6.43 0-1.45.2-2.9.62-4.28l4-14.53c.15-.55.35-1.17.35-1.72 0-1.4-3.04-1.4-3.94-1.4v-1.02c3.6-.9 7.34-1.4 10.8-2.9M300.22 94.75h-13.48V94c3.6-.18 4.64-1.2 4.64-3.9V68.16c0-1.66-.44-2.4-1.47-2.4-.47 0-1.3.25-2.18.6l-1.32.48v-.68l8.74-4.45.44.16v29.17c0 2.1.98 2.98 4.64 2.98v.75" fill="#3a414a"/><path d="M246 160v120l80-60z" stroke="#3a414a" stroke-width="5" fill-opacity="0"/><path d="M246 184.85h66.38v57.17H246z" fill="#fff" fill-opacity="0"/><path d="M263.07 193l-6.15 22.53c-.2.7-.28 1.45-.28 2.2 0 2.64 1.4 4.57 4.15 4.57 7.45 0 12.3-7.8 14.5-14.03.56-1.65 1.04-3.38 1.04-5.1 0-5.12-4.2-4.5-4.2-7.54 0-2.35 1.7-2.9 3.72-2.9 2.9 0 3.25 3.52 3.25 5.73 0 6.84-2.7 13.82-6.7 19.35-2.97 4.16-8.3 7.2-13.4 7.2-4.43 0-8.02-1.38-8.02-6.43 0-1.45.2-2.9.62-4.28l4-14.53c.15-.55.35-1.17.35-1.72 0-1.4-3.04-1.4-3.94-1.4v-1.02c3.6-.9 7.34-1.4 10.8-2.9M304.13 228.05l-2.64 6.7h-19.1v-.6l8.7-9.23c4.58-4.83 6.34-8.55 6.34-12.7 0-4.45-2.64-6.9-6.8-6.9-3.5 0-5.22 1.57-7.18 6.36l-1.02-.24c1.02-5.72 4.15-9.73 10.16-9.73 5.52 0 9.04 3.78 9.04 8.6 0 3.87-1.9 7.54-6.25 12.13l-8.08 8.6h11.44c2.05 0 3.08-.54 4.7-3.27" fill="#3a414a"/><path d="M86.57 30.8h100v98.4h-100z" stroke="#3a414a" stroke-width="5" fill-opacity="0"/><path d="M106 44.85h69.42v70.3H106z" fill="#fff" fill-opacity="0"/><path d="M152.3 52.37l-3.17 12.37h-1.1c.13-1.17.34-3.04.34-4.9 0-4.57-4-4.9-6.85-4.9h-6.77l-9.2 37.17c-.13.63-.34 1.12-.34 1.74 0 1.45 1.12 2.56 5.27 2.56h1.45l-.28 1.1H108.9l.28-1.1h1.24c5.4 0 6.78-1.94 7.33-4.3l9.2-37.17h-6.3c-5.73 0-10.57 4.2-11.82 9.8h-1.1l3.18-12.36h41.4M163.27 107.87h-13.5v-.73c3.62-.2 4.65-1.22 4.65-3.9V81.28c0-1.67-.44-2.4-1.46-2.4-.5 0-1.32.24-2.2.58l-1.32.5v-.7l8.74-4.44.44.14v29.18c0 2.1.98 2.98 4.65 2.98v.73" fill="#3a414a"/><path d="M86.57 170.8h100v98.4h-100z" stroke="#3a414a" stroke-width="5" fill-opacity="0"/><path d="M106 184.85h69.42v70.3H106z" fill="#fff" fill-opacity="0"/><path d="M152.3 192.37l-3.17 12.37h-1.1c.13-1.17.34-3.04.34-4.9 0-4.57-4-4.9-6.85-4.9h-6.77l-9.2 37.17c-.13.63-.34 1.12-.34 1.74 0 1.45 1.12 2.56 5.27 2.56h1.45l-.28 1.1H108.9l.28-1.1h1.24c5.4 0 6.78-1.94 7.33-4.3l9.2-37.17h-6.3c-5.73 0-10.57 4.2-11.82 9.8h-1.1l3.18-12.36h41.4M167.17 241.18l-2.63 6.7h-19.1v-.6l8.7-9.23c4.58-4.84 6.34-8.55 6.34-12.7 0-4.45-2.64-6.9-6.8-6.9-3.5 0-5.22 1.57-7.17 6.36l-1.02-.24c1.03-5.7 4.15-9.72 10.16-9.72 5.52 0 9.04 3.76 9.04 8.6 0 3.86-1.9 7.52-6.25 12.12l-8.06 8.6h11.43c2.05 0 3.08-.54 4.7-3.28" fill="#3a414a"/><path d="M241 80h-49.43" stroke="#3a414a" stroke-width="5" fill="none"/><path d="M243.5 82.5h-2.56v-5h2.56zM191.64 82.5h-2.57v-5h2.57z" stroke="#3a414a" stroke-width=".05" fill="#3a414a"/><path d="M241 220h-49.43" stroke="#3a414a" stroke-width="5" fill="none"/><path d="M243.5 222.5h-2.56v-5h2.56zM191.64 222.5h-2.57v-5h2.57z" stroke="#3a414a" stroke-width=".05" fill="#3a414a"/><path d="M81.57 80H28.5" stroke="#3a414a" stroke-width="5" fill="none"/><path d="M84.07 82.5H81.5v-5h2.57z" stroke="#3a414a" stroke-width=".05" fill="#3a414a"/><path d="M28.56 80H26M81.57 220H28.5" stroke="#3a414a" stroke-width="5" fill="none"/><path d="M84.07 222.5H81.5v-5h2.57z" stroke="#3a414a" stroke-width=".05" fill="#3a414a"/><path d="M28.56 220H26" stroke="#3a414a" stroke-width="5" fill="none"/></g></svg>