<svg xmlns="http://www.w3.org/2000/svg" xmlns:lucid="lucid" width="620" height="480"><g lucid:page-tab-id="biK0TiNP4yJa"><path d="M120 70c0 27.6-22.4 50-50 50S20 97.6 20 70s22.4-50 50-50 50 22.4 50 50zM120 410c0 27.6-22.4 50-50 50s-50-22.4-50-50 22.4-50 50-50 50 22.4 50 50zM340 240c0 27.6-22.4 50-50 50s-50-22.4-50-50 22.4-50 50-50 50 22.4 50 50zM600 240c0 27.6-22.4 50-50 50s-50-22.4-50-50 22.4-50 50-50 50 22.4 50 50z" stroke="#3a414a" stroke-width="10" fill-opacity="0"/><path d="M70 130v220" stroke="#3a414a" stroke-width="10" fill="none"/><path d="M75 130.13H65v-5.37l4.96.24 4.02-.14 1.02-.12zM75 355.24l-4.96-.24-4.02.14-1.02.12v-5.4h10z" stroke="#3a414a" stroke-width=".05" fill="#3a414a"/><path d="M117.2 106.95l125.3 96.48" stroke="#3a414a" stroke-width="10" fill="none"/><path d="M120.35 103.07l-6.1 7.92-4.28-3.3 2.12-2.28 3.33-4.4.73-1.18zM249.7 202.66l-1.8 1.92-3.33 4.4-.98 1.6-4.24-3.27 6.1-7.9z" stroke="#3a414a" stroke-width=".05" fill="#3a414a"/><path d="M246.47 206.48" stroke="#3a414a" stroke-width="10" fill="none"/><path stroke="#3a414a" stroke-width=".05" fill="#3a414a" transform="translate(-180 -180)"/><path stroke="#3a414a" stroke-width=".05" fill="#3a414a" transform="translate(-180 -180)"/><path d="M117.46 373.33l125.08-96.66" stroke="#3a414a" stroke-width="10" fill="none"/><path d="M120.62 377.2l-4.22 3.26-.08-.14-3.2-4.5-2.87-3.24 4.25-3.3zM243.68 269.68l3.2 4.5 2.87 3.24-4.25 3.3-6.12-7.92 4.22-3.26z" stroke="#3a414a" stroke-width=".05" fill="#3a414a"/><path d="M350 240h140" stroke="#3a414a" stroke-width="10" fill="none"/><path d="M350.13 245h-5.37l.24-4.96-.14-4.02-.12-1.02h5.4zM495 239.96l.14 4.02.12 1.02h-5.4v-10h5.38z" stroke="#3a414a" stroke-width=".05" fill="#3a414a"/><path d="M40 212.82h20.47v54.36H40z" fill="#fff" fill-opacity="0"/><path d="M56.9 221.53c0 1.7-1.46 3.02-3.17 3.02-1.9 0-3.15-1.3-3.15-3.02 0-1.64 1.25-3.3 3.15-3.3 1.7 0 3.16 1.66 3.16 3.3m-1.98 8.2l-6.05 23.94c-.06.4-.06.65-.06.92 0 .45.4.64.86.64 1.45 0 1.84-.8 4.2-3.35l.86.65c-2.3 2.96-5.6 6.9-8.8 6.9-1.85 0-2.63-1.25-2.63-3.02 0-.8 0-2.04 5.18-22.22.06-.12.13-.58.13-.78 0-1.1-.52-1.44-2.03-1.44-.6 0-1.38.13-1.84.26l-.2-1.05"/><path d="M189.04 80h26.6v62.68h-26.6z" fill="#fff" fill-opacity="0"/><path d="M214.5 88.7c0 1.72-1.44 3.03-3.15 3.03-1.9 0-3.16-1.3-3.16-3.02 0-1.64 1.24-3.28 3.15-3.28 1.7 0 3.15 1.64 3.15 3.3m-1.38 8.2l-7.1 27.93c-1.44 5.8-5.12 13.34-12.22 13.34-3.48 0-4.8-2.18-4.8-4.02 0-1.44.8-3.4 3.1-3.4 1.24 0 2.3.97 2.3 2.48 0 1-1.06 1.2-1.06 2.24 0 .26.33.66.66.66 3.02 0 5.2-5 6.77-11.3L206.8 101c0-.8-.64-1.45-2.1-1.45-.52 0-1.3.13-1.76.33l-.2-1.12"/><path d="M180 320h35.65v58.5H180z" fill="#fff" fill-opacity="0"/><path d="M214.63 341.94l-.26.78c-4.4.47-6.24 1.65-8.74 3.82l-6.97 6.04 4.2 10c1 2.3 1.78 3.87 3.5 3.87 1.96 0 3.4-2.83 4.86-4.8l.98.72c-.8 1.38-3.88 8.42-8.34 8.42-3.03 0-4.4-3.5-5.13-5.2l-4.14-9.67-3.7 3.22-2.95 10.9h-5l9.73-38.7c.13-.4.2-.85.2-1.3 0-.73-.66-1.45-2.1-1.45-.6 0-1.25 0-1.78.13l-.2-.92 10.4-1.64-7.44 29.97 10.98-9.8c.72-.65 1.38-1.5 1.38-2.36 0-.78-1.05-1.25-1.7-1.25h-.8l.26-.78h12.75"/><path d="M409.76 180h34.1v50.2h-34.1z" fill="#fff" fill-opacity="0"/><path d="M428.33 189.1l.92-.85c2.56-2.43 5.13-3.8 7.43-3.8 4 0 6.17 3.53 6.17 10.17 0 8.48-7.23 19.6-16.7 19.6-1.57 0-2.75-.28-4-1.26l-1.57 6.57c-.2.85-.33 1.58-.33 2.3 0 1.44.72 2.82 4 2.82h1.06l-.2.8h-15.37l.2-.8c4.07-.2 4.53-2.16 5.32-5.2l7.7-30.48c0-1.25-.07-2.17-2.05-2.17-.52 0-1.3.13-1.84.26l-.13-1.05 10.4-1.56-1.2 4.53m-2.36 8.8l-3.03 13.15c.92 1.05 2.24 1.38 3.03 1.38 6.63 0 11.56-11.37 11.56-18.73 0-4.14-1.84-5.45-3.35-5.45-3.48 0-6.9 4-8.2 9.66"/></g></svg>