<svg xmlns="http://www.w3.org/2000/svg" xmlns:lucid="lucid" width="1532.21" height="938.94"><g lucid:page-tab-id="ZUo0BP_5TgOj"><path d="M120 321c0 27.6-22.4 50-50 50s-50-22.4-50-50 22.4-50 50-50 50 22.4 50 50z" stroke="#e81313" stroke-width="10" fill-opacity="0"/><path d="M120 621c0 27.6-22.4 50-50 50s-50-22.4-50-50 22.4-50 50-50 50 22.4 50 50zM320 161c0 27.6-22.4 50-50 50s-50-22.4-50-50 22.4-50 50-50 50 22.4 50 50z" stroke="#635dff" stroke-width="10" fill-opacity="0"/><path d="M320 781c0 27.6-22.4 50-50 50s-50-22.4-50-50 22.4-50 50-50 50 22.4 50 50zM520 321c0 27.6-22.4 50-50 50s-50-22.4-50-50 22.4-50 50-50 50 22.4 50 50z" stroke="#e81313" stroke-width="10" fill-opacity="0"/><path d="M520 621c0 27.6-22.4 50-50 50s-50-22.4-50-50 22.4-50 50-50 50 22.4 50 50z" stroke="#635dff" stroke-width="10" fill-opacity="0"/><path d="M74.05 263.06l136.9-99.13" stroke="#3a414a" stroke-width="10" fill="none"/><path d="M76.65 266.44l-1.1-.17-5.5-.27-3.66.12-1.76-2.4 6.58-4.78zM215.23 156.2l-.23 4.76.14 4.02.23 1.92-1.6 1.16-5.86-8.1 6.6-4.77z" stroke="#3a414a" stroke-width=".05" fill="#3a414a"/><path d="M329.05 163.93l136.9 99.13" stroke="#3a414a" stroke-width="10" fill="none"/><path d="M332.1 159.96l-5.88 8.1-1.55-1.13.06-.38.27-5.5-.14-4.03-.1-.8.75-1.03zM475.36 263.7l-1.78 2.47-3.54-.17-4.02.14-2.7.32 5.46-7.52z" stroke="#3a414a" stroke-width=".05" fill="#3a414a"/><path d="M70 381v180" stroke="#3a414a" stroke-width="10" fill="none"/><path d="M75 381.13H65v-5.37l4.96.24 4.02-.14 1.02-.12zM75 566.24l-4.96-.24-4.02.14-1.02.12v-5.4h10z" stroke="#3a414a" stroke-width=".05" fill="#3a414a"/><path d="M74.05 678.94l136.9 99.13" stroke="#3a414a" stroke-width="10" fill="none"/><path d="M71.22 683.06l-6.58-4.77 1.78-2.47 3.54.17 4.02-.14 2.7-.32zM215.33 775.07l-.06.38-.27 5.5.14 4.03.1.8-.75 1.03-6.6-4.76 5.88-8.1z" stroke="#3a414a" stroke-width=".05" fill="#3a414a"/><path d="M329.05 778.07l136.9-99.13" stroke="#3a414a" stroke-width="10" fill="none"/><path d="M332.1 782.04l-6.6 4.77-.73-1 .23-4.76-.14-4.02-.23-1.92 1.6-1.16zM464.45 675.73l5.5.27 3.66-.12 1.76 2.4-6.58 4.78-5.43-7.5z" stroke="#3a414a" stroke-width=".05" fill="#3a414a"/><path d="M470 561V381" stroke="#3a414a" stroke-width="10" fill="none"/><path d="M475 566.24l-4.96-.24-4.02.14-1.02.12v-5.4h10zM475 381.13h-10v-5.37l4.96.24 4.02-.14 1.02-.12z" stroke="#3a414a" stroke-width=".05" fill="#3a414a"/><path d="M128.48 324.6l283.04 292.8" stroke="#3a414a" stroke-width="10" fill="none"/><path d="M132.16 321.2l-7.2 6.96-.4-.43.17-1.18.27-5.5-.14-4.03v-.05l1.65-1.6zM415.45 614.27l-.18 1.18-.27 5.5.14 4.03v.05l-1.65 1.6-5.66-5.84 7.2-6.96z" stroke="#3a414a" stroke-width=".05" fill="#3a414a"/><path d="M128.48 617.4l283.04-292.8" stroke="#3a414a" stroke-width="10" fill="none"/><path d="M132.16 620.8l-5.65 5.83-1.7-1.65.2-3.94-.14-4.02-.33-2.73.44-.46zM415.2 317.02l-.2 3.94.14 4.02.33 2.73-.44.46-7.2-6.95 5.66-5.83z" stroke="#3a414a" stroke-width=".05" fill="#3a414a"/><path d="M270.13 101l.2-3.34.37-3.5.47-3.16.54-2.85.62-2.6.66-2.35.7-2.18.75-2 .77-1.85.8-1.72.85-1.6.86-1.5.9-1.4.92-1.32.95-1.24.97-1.2 1-1.1 1.03-1.05 1.07-1 1.1-.95 1.14-.9 1.18-.87 1.23-.8 1.27-.8 1.34-.73 1.4-.7 1.48-.64 1.54-.62 1.64-.56 1.73-.53 1.83-.47 1.95-.4 2.1-.37 2.25-.27 2.42-.2 2.62-.1h2.85l3.1.12 3.4.3 3.74.46 4.12.7 4.58.98 5.08 1.3 5.7 1.73 6.35 2.23 7.12 2.83 8.02 3.57 9 4.47 10.04 5.54 11.2 6.78 12.32 8.2 13.44 9.77 14.43 11.43 15.2 13.13 15.67 14.73 15.83 16.16 15.63 17.37 15.12 18.28 14.35 18.9 13.36 19.24 12.28 19.33 11.12 19.24 9.93 19.02 8.8 18.66 7.66 18.25 6.63 17.8 5.64 17.33 4.7 16.87 3.86 16.4 3.05 16 2.3 15.55 1.6 15.2.93 14.83.3 14.53-.3 14.5-.93 14.8-1.6 15.17-2.3 15.53-3.03 15.93-3.84 16.36-4.7 16.82-5.6 17.27-6.6 17.75-7.66 18.18-8.75 18.6-9.9 18.92-11.08 19.17-12.23 19.27-13.34 19.16-14.3 18.84-15.1 18.24-15.6 17.34-15.82 16.16-15.7 14.74-15.2 13.14-14.48 11.47-13.5 9.8-12.38 8.25-11.25 6.8-10.12 5.58-9.03 4.5-8.07 3.6-7.2 2.84-6.4 2.24-5.73 1.74-5.12 1.32-4.6.98-4.16.7-3.78.48-3.42.3-3.13.12h-2.86l-2.63-.1-2.44-.2-2.26-.3-2.1-.35-1.98-.43-1.86-.48-1.74-.53-1.64-.57-1.56-.62-1.47-.66-1.4-.7-1.35-.73-1.3-.8-1.23-.8-1.18-.88-1.15-.9-1.1-.96-1.07-1-1.04-1.06-1-1.1-.97-1.2-.95-1.24-.9-1.32-.9-1.4-.87-1.5-.83-1.62-.8-1.72-.8-1.86-.74-2-.7-2.17-.66-2.37-.6-2.6-.55-2.84-.47-3.15-.36-3.5-.22-3.32" stroke="#3a414a" stroke-width="10" fill="none"/><path d="M275.1 100.97l-.1 5.27-4.96-.24-4.02.14-1.03.12.1-5.5zM264.45 835.73l5.5.27 4.03-.14.47-.05.1 5.2-10 .2-.1-5.47z" stroke="#3a414a" stroke-width=".05" fill="#3a414a"/><path d="M40 431h20.47v54.35H40z" fill="#fff" fill-opacity="0"/><path d="M56.9 439.7c0 1.72-1.46 3.03-3.17 3.03-1.9 0-3.15-1.3-3.15-3.02 0-1.64 1.25-3.28 3.15-3.28 1.7 0 3.16 1.64 3.16 3.3m-1.98 8.2l-6.05 23.92c-.06.4-.06.66-.06.92 0 .46.4.66.86.66 1.45 0 1.84-.8 4.2-3.35l.86.66c-2.3 2.95-5.6 6.9-8.8 6.9-1.85 0-2.63-1.25-2.63-3.03 0-.8 0-2.03 5.18-22.2.06-.14.13-.6.13-.8 0-1.1-.52-1.44-2.03-1.44-.6 0-1.38.13-1.84.26l-.2-1.05"/><path d="M180 311h26.62v62.68H180z" fill="#fff" fill-opacity="0"/><path d="M205.47 319.7c0 1.72-1.45 3.03-3.16 3.03-1.9 0-3.14-1.3-3.14-3.02 0-1.64 1.25-3.28 3.15-3.28 1.72 0 3.17 1.64 3.17 3.3m-1.38 8.2l-7.1 27.93c-1.46 5.8-5.14 13.34-12.24 13.34-3.48 0-4.8-2.18-4.8-4.02 0-1.44.8-3.4 3.1-3.4 1.24 0 2.3.97 2.3 2.48 0 1-1.06 1.2-1.06 2.24 0 .26.33.66.66.66 3.02 0 5.2-5 6.77-11.3l6.05-23.86c0-.8-.66-1.45-2.1-1.45-.53 0-1.32.13-1.78.33l-.2-1.12"/><path d="M120 151h35.65v58.5H120z" fill="#fff" fill-opacity="0"/><path d="M154.63 172.94l-.26.78c-4.4.47-6.24 1.65-8.74 3.82l-6.97 6.04 4.2 10c1 2.3 1.78 3.87 3.5 3.87 1.96 0 3.4-2.83 4.86-4.8l.98.72c-.8 1.38-3.88 8.42-8.34 8.42-3.03 0-4.4-3.5-5.13-5.2l-4.14-9.67-3.7 3.22-2.95 10.9h-5l9.73-38.7c.13-.4.2-.85.2-1.3 0-.73-.66-1.45-2.1-1.45-.6 0-1.25 0-1.78.13l-.2-.92 10.4-1.64-7.44 29.97 10.98-9.8c.72-.65 1.38-1.5 1.38-2.36 0-.78-1.05-1.25-1.7-1.25h-.8l.26-.78h12.75"/><path d="M480 431h34.1v50.2H480z" fill="#fff" fill-opacity="0"/><path d="M498.57 440.1l.92-.85c2.55-2.43 5.1-3.8 7.4-3.8 4.02 0 6.2 3.53 6.2 10.17 0 8.48-7.24 19.6-16.7 19.6-1.58 0-2.76-.28-4-1.26l-1.6 6.57c-.2.85-.32 1.58-.32 2.3 0 1.44.72 2.82 4 2.82h1.06l-.2.8h-15.37l.2-.8c4.07-.2 4.53-2.16 5.32-5.2l7.68-30.48c0-1.25-.07-2.17-2.04-2.17-.53 0-1.32.13-1.84.26l-.13-1.05 10.38-1.56-1.18 4.53m-2.37 8.8l-3.02 13.15c.92 1.05 2.23 1.38 3.02 1.38 6.64 0 11.57-11.37 11.57-18.73 0-4.14-1.84-5.45-3.35-5.45-3.5 0-6.9 4-8.22 9.66"/><path d="M320 320.8h30.46V371H320z" fill="#fff" fill-opacity="0"/><path d="M350.43 326.1l-8.6 34.3c-.2.66-.2 1.3-.2 1.9 0 1.98 1.24 3.16 3.2 3.16h.93l-.2.8h-16.43l.2-.8h1.25c4.47 0 5.52-2.7 6.1-5.13l2.9-12.1h-.4c-4.4 6.12-8.34 6.78-10.7 6.78-4.2 0-5.85-3.8-5.85-7.55 0-8.08 5.26-16.16 11.1-19.97 2.04-1.38 4.15-2.24 6-2.24 3.14 0 4.6 1.7 4.72 3.42h.2l.45-2.56h5.33m-6.9 5.9c0-2.82-.86-4.85-3.22-4.85-1.37 0-2.7.72-4 1.77-4.2 3.42-8.1 12.16-8.1 17.94 0 1.78.6 4.14 3.43 4.14 1.12 0 2.63-.26 3.8-1.1 4.15-2.97 8.1-10.46 8.1-17.9"/><path d="M393.15 159.32H420v41.87h-26.85z" fill="#fff" fill-opacity="0"/><path d="M404.66 175.2l.32.06c.6-1.2 1.38-2.5 2.1-3.68 2.24-3.55 5.4-7.82 9-7.82 1.92 0 2.9 1.38 2.9 3.15 0 2.5-1.58 5.4-4.27 5.4-2.55 0-1.9-2.5-3.08-2.5-4 0-9.73 16.83-10.05 17.94l-1.38 5h-5.07l6.04-23.92c.2-.73.26-1.2.26-1.52 0-.85-.72-1.24-2.16-1.24-.46 0-1.38.13-1.78.2l-.14-1 10.32-1.5"/><path d="M53.55 291.74h32.9v58.52h-32.9z" fill="#fff" fill-opacity="0"/><path d="M79.45 341.8H61.3v-.98c4.87-.26 6.25-1.64 6.25-5.26v-29.5c0-2.24-.6-3.22-1.97-3.22-.66 0-1.77.32-2.96.78l-1.77.66v-.92l11.76-5.98.6.2v39.23c0 2.84 1.32 4.02 6.25 4.02v1"/><path d="M453.55 291.74h32.9v58.52h-32.9z" fill="#fff" fill-opacity="0"/><path d="M484.7 332.8l-3.54 9h-25.7v-.78l11.7-12.42c6.18-6.5 8.54-11.5 8.54-17.1 0-5.97-3.55-9.26-9.13-9.26-4.74 0-7.04 2.1-9.66 8.55l-1.37-.34c1.38-7.7 5.58-13.08 13.66-13.08 7.42 0 12.15 5.06 12.15 11.57 0 5.2-2.56 10.12-8.4 16.3L462.1 336.8h15.38c2.76 0 4.14-.7 6.3-4.4"/><path d="M980 317.88c0 27.62-22.4 50-50 50s-50-22.38-50-50c0-27.6 22.4-50 50-50s50 22.4 50 50z" stroke="#e81313" stroke-width="10" fill-opacity="0"/><path d="M980 617.88c0 27.62-22.4 50-50 50s-50-22.38-50-50c0-27.6 22.4-50 50-50s50 22.4 50 50zM1180 157.88c0 27.62-22.4 50-50 50s-50-22.38-50-50c0-27.6 22.4-50 50-50s50 22.4 50 50z" stroke="#635dff" stroke-width="10" fill-opacity="0"/><path d="M1180 777.88c0 27.62-22.4 50-50 50s-50-22.38-50-50c0-27.6 22.4-50 50-50s50 22.4 50 50zM1380 317.88c0 27.62-22.4 50-50 50s-50-22.38-50-50c0-27.6 22.4-50 50-50s50 22.4 50 50z" stroke="#e81313" stroke-width="10" fill-opacity="0"/><path d="M1380 617.88c0 27.62-22.4 50-50 50s-50-22.38-50-50c0-27.6 22.4-50 50-50s50 22.4 50 50z" stroke="#635dff" stroke-width="10" fill-opacity="0"/><path d="M934.05 259.95l136.9-99.13" stroke="#3a414a" stroke-width="10" fill="none"/><path d="M936.65 263.32l-1.1-.17-5.5-.27-3.66.13-1.76-2.4 6.58-4.78zM1075.23 153.1l-.23 4.75.14 4 .23 1.94-1.6 1.14-5.86-8.1 6.6-4.77z" stroke="#3a414a" stroke-width=".05" fill="#3a414a"/><path d="M1189.05 160.82l136.9 99.13" stroke="#3a414a" stroke-width="10" fill="none"/><path d="M1192.1 156.84l-5.88 8.1-1.55-1.12.06-.4.27-5.5-.14-4-.1-.82.75-1.03zM1335.36 260.6l-1.78 2.45-3.54-.17-4.02.14-2.7.33 5.46-7.53z" stroke="#3a414a" stroke-width=".05" fill="#3a414a"/><path d="M930 377.9v179.98" stroke="#3a414a" stroke-width="10" fill="none"/><path d="M935 378h-10v-5.36l4.96.25 4.02-.15 1.02-.13zM935 563.13l-4.96-.25-4.02.14-1.02.12v-5.4h10z" stroke="#3a414a" stroke-width=".05" fill="#3a414a"/><path d="M934.05 675.82l136.9 99.13" stroke="#3a414a" stroke-width="10" fill="none"/><path d="M931.22 679.94l-6.58-4.76 1.78-2.47 3.54.2 4.02-.15 2.7-.33zM1075.33 771.95l-.06.38-.27 5.52.14 4 .1.82-.75 1.02-6.6-4.78 5.88-8.1z" stroke="#3a414a" stroke-width=".05" fill="#3a414a"/><path d="M1189.05 774.95l136.9-99.13" stroke="#3a414a" stroke-width="10" fill="none"/><path d="M1192.1 778.92l-6.6 4.77-.73-1.03.23-4.75-.14-4-.23-1.94 1.6-1.15zM1324.45 672.6l5.5.3 3.66-.14 1.76 2.42-6.58 4.76-5.43-7.5z" stroke="#3a414a" stroke-width=".05" fill="#3a414a"/><path d="M1330 557.88v-180" stroke="#3a414a" stroke-width="10" fill="none"/><path d="M1335 563.13l-4.96-.25-4.02.14-1.02.12v-5.4h10zM1335 378h-10v-5.36l4.96.25 4.02-.15 1.02-.13z" stroke="#3a414a" stroke-width=".05" fill="#3a414a"/><path d="M988.48 321.48l283.04 292.8" stroke="#3a414a" stroke-width="10" fill="none"/><path d="M992.16 318.1l-7.2 6.94-.4-.43.17-1.17.27-5.5-.14-4.02v-.05l1.65-1.6zM1275.45 611.16l-.18 1.17-.27 5.52.14 4v.06l-1.65 1.6-5.66-5.83 7.2-6.95z" stroke="#3a414a" stroke-width=".05" fill="#3a414a"/><path d="M988.48 614.3l283.04-292.82" stroke="#3a414a" stroke-width="10" fill="none"/><path d="M992.16 617.67l-5.65 5.84-1.7-1.63.2-3.95-.14-4-.33-2.74.44-.46zM1275.2 313.9l-.2 3.95.14 4 .33 2.74-.44.44-7.2-6.95 5.66-5.85z" stroke="#3a414a" stroke-width=".05" fill="#3a414a"/><path d="M1130.13 97.88l.2-3.34.37-3.5.47-3.16.54-2.85.62-2.6.66-2.35.7-2.17.75-2 .77-1.85.8-1.7.85-1.62.86-1.5.9-1.4.92-1.32.95-1.23.97-1.18 1-1.12 1.03-1.05 1.07-1 1.1-.95 1.14-.9 1.18-.87 1.23-.8 1.27-.78 1.34-.73 1.4-.7 1.48-.66 1.54-.6 1.64-.58 1.73-.52 1.83-.48 1.95-.4 2.1-.36 2.25-.3 2.42-.2 2.62-.1h2.85l3.1.13 3.4.3 3.74.46 4.12.7 4.58.97 5.08 1.3 5.7 1.72 6.35 2.2 7.12 2.84 8.02 3.58 9 4.46 10.04 5.54 11.2 6.78 12.32 8.2 13.44 9.78 14.43 11.44 15.2 13.12 15.67 14.73 15.83 16.17 15.63 17.37 15.12 18.3 14.35 18.9 13.36 19.22 12.28 19.33 11.12 19.25 9.93 19 8.8 18.66 7.66 18.25 6.63 17.8 5.64 17.34 4.7 16.87 3.86 16.42 3.05 15.98 2.3 15.57 1.6 15.18.93 14.84.3 14.5-.3 14.5-.93 14.82-1.6 15.16-2.3 15.53-3.03 15.94-3.84 16.37-4.7 16.82-5.6 17.28-6.6 17.73-7.66 18.2-8.75 18.58-9.9 18.94-11.08 19.17-12.23 19.27-13.34 19.17-14.3 18.84-15.1 18.24-15.6 17.34-15.82 16.16-15.7 14.74-15.2 13.15-14.48 11.48-13.5 9.8-12.38 8.25-11.25 6.82-10.12 5.56-9.03 4.5-8.07 3.6-7.2 2.86-6.4 2.23-5.73 1.72-5.12 1.32-4.6.98-4.16.7-3.78.48-3.42.3-3.13.12h-2.86l-2.63-.1-2.44-.2-2.26-.3-2.1-.35-1.98-.42-1.86-.47-1.74-.53-1.64-.57-1.56-.62-1.47-.65-1.4-.7-1.35-.73-1.3-.78-1.23-.83-1.18-.86-1.15-.9-1.1-.95-1.07-1-1.04-1.07-1-1.1-.97-1.2-.95-1.24-.9-1.32-.9-1.4-.87-1.5-.83-1.62-.8-1.72-.8-1.85-.74-2-.7-2.18-.66-2.37-.6-2.6-.55-2.84-.47-3.15-.36-3.5-.22-3.34" stroke="#3a414a" stroke-width="10" fill="none"/><path d="M1135.1 97.85l-.1 5.28-4.96-.25-4.02.14-1.03.12.1-5.5zM1124.45 832.6l5.5.3 4.03-.15.47-.06.1 5.2-10 .2-.1-5.5z" stroke="#3a414a" stroke-width=".05" fill="#3a414a"/><path d="M880 427.88h30.46v50.2H880z" fill="#fff" fill-opacity="0"/><path d="M910.43 433.17l-8.6 34.3c-.2.66-.2 1.32-.2 1.9 0 1.98 1.24 3.17 3.2 3.17h.93l-.2.8h-16.43l.2-.8h1.25c4.47 0 5.52-2.7 6.1-5.13l2.9-12.08h-.4c-4.4 6.1-8.34 6.77-10.7 6.77-4.2 0-5.85-3.82-5.85-7.57 0-8.08 5.26-16.17 11.1-19.98 2.04-1.38 4.15-2.23 6-2.23 3.14 0 4.6 1.7 4.72 3.42h.2l.45-2.57h5.33m-6.9 5.92c0-2.84-.86-4.88-3.22-4.88-1.37 0-2.7.73-4 1.78-4.2 3.42-8.1 12.16-8.1 17.94 0 1.77.6 4.14 3.43 4.14 1.12 0 2.63-.26 3.8-1.12 4.15-2.95 8.1-10.45 8.1-17.87"/><path d="M1060 320.8h34.1V371H1060z" fill="#fff" fill-opacity="0"/><path d="M1078.57 329.9l.92-.85c2.55-2.43 5.1-3.8 7.4-3.8 4.02 0 6.2 3.54 6.2 10.18 0 8.47-7.24 19.58-16.7 19.58-1.58 0-2.76-.25-4-1.24l-1.6 6.57c-.2.86-.32 1.58-.32 2.3 0 1.45.72 2.83 4 2.83h1.06l-.2.8h-15.37l.2-.8c4.07-.2 4.53-2.17 5.32-5.2l7.68-30.48c0-1.25-.07-2.17-2.04-2.17-.53 0-1.32.14-1.84.27l-.13-1.05 10.38-1.58-1.18 4.54m-2.37 8.8l-3.02 13.15c.92 1.05 2.23 1.38 3.02 1.38 6.64 0 11.57-11.36 11.57-18.72 0-4.14-1.84-5.46-3.35-5.46-3.5 0-6.9 4-8.22 9.66"/><path d="M980 159.32h26.85v41.87H980z" fill="#fff" fill-opacity="0"/><path d="M991.5 175.2l.33.06c.6-1.2 1.38-2.5 2.1-3.68 2.24-3.55 5.4-7.82 9-7.82 1.9 0 2.9 1.38 2.9 3.15 0 2.5-1.58 5.4-4.27 5.4-2.57 0-1.9-2.5-3.1-2.5-4 0-9.72 16.83-10.05 17.94l-1.37 5h-5.06l6.05-23.92c.2-.73.26-1.2.26-1.52 0-.85-.72-1.24-2.17-1.24-.45 0-1.37.13-1.76.2l-.13-1 10.32-1.5"/><path d="M1340 422.67h26.62v62.68H1340z" fill="#fff" fill-opacity="0"/><path d="M1365.47 431.38c0 1.7-1.45 3.02-3.16 3.02-1.9 0-3.14-1.3-3.14-3.02 0-1.64 1.25-3.28 3.15-3.28 1.72 0 3.17 1.64 3.17 3.28m-1.38 8.22l-7.1 27.93c-1.46 5.78-5.14 13.34-12.24 13.34-3.48 0-4.8-2.17-4.8-4 0-1.46.8-3.43 3.1-3.43 1.24 0 2.3 1 2.3 2.5 0 .98-1.06 1.18-1.06 2.23 0 .26.33.66.66.66 3.02 0 5.2-5 6.77-11.3l6.05-23.86c0-.8-.66-1.45-2.1-1.45-.53 0-1.32.14-1.78.33l-.2-1.1"/><path d="M1200 317.7h20.47v54.34H1200z" fill="#fff" fill-opacity="0"/><path d="M1216.9 326.4c0 1.7-1.46 3.02-3.17 3.02-1.9 0-3.15-1.32-3.15-3.02 0-1.65 1.25-3.3 3.15-3.3 1.7 0 3.16 1.65 3.16 3.3m-1.98 8.2l-6.05 23.93c-.06.4-.06.66-.06.92 0 .46.4.66.86.66 1.45 0 1.84-.78 4.2-3.34l.86.65c-2.3 2.97-5.6 6.9-8.8 6.9-1.85 0-2.63-1.23-2.63-3 0-.8 0-2.05 5.18-22.22.06-.13.13-.6.13-.8 0-1.1-.52-1.44-2.03-1.44-.6 0-1.38.14-1.84.27l-.2-1.04"/><path d="M1260 151h35.65v58.5H1260z" fill="#fff" fill-opacity="0"/><path d="M1294.63 172.94l-.26.78c-4.4.47-6.24 1.65-8.74 3.82l-6.97 6.04 4.2 10c1 2.3 1.78 3.87 3.5 3.87 1.96 0 3.4-2.83 4.86-4.8l.98.72c-.8 1.38-3.88 8.42-8.34 8.42-3.03 0-4.4-3.5-5.13-5.2l-4.14-9.67-3.7 3.22-2.95 10.9h-5l9.73-38.7c.13-.4.2-.85.2-1.3 0-.73-.66-1.45-2.1-1.45-.6 0-1.25 0-1.78.13l-.2-.92 10.4-1.64-7.44 29.97 10.98-9.8c.72-.65 1.38-1.5 1.38-2.36 0-.78-1.05-1.25-1.7-1.25h-.8l.26-.78h12.75"/><path d="M913.55 288.63h32.9v58.5h-32.9z" fill="#fff" fill-opacity="0"/><path d="M944.7 329.7l-3.54 9h-25.7v-.8l11.7-12.42c6.18-6.5 8.54-11.5 8.54-17.1 0-5.97-3.55-9.25-9.13-9.25-4.74 0-7.04 2.1-9.66 8.54l-1.37-.33c1.38-7.7 5.58-13.08 13.66-13.08 7.42 0 12.15 5.06 12.15 11.57 0 5.2-2.56 10.12-8.4 16.3L922.1 333.7h15.38c2.76 0 4.14-.73 6.3-4.4"/><path d="M1313.55 288.63h32.9v58.5h-32.9z" fill="#fff" fill-opacity="0"/><path d="M1339.45 338.7h-18.14v-1c4.87-.26 6.25-1.64 6.25-5.25v-29.5c0-2.25-.6-3.23-1.97-3.23-.66 0-1.77.33-2.96.8l-1.77.64v-.92l11.76-5.98.6.2v39.23c0 2.82 1.32 4 6.25 4v1"/></g></svg>