<svg xmlns="http://www.w3.org/2000/svg" xmlns:lucid="lucid" width="672.21" height="935.82"><g lucid:page-tab-id="pfo0Lj.jd8HH"><path d="M120 317.88c0 27.62-22.4 50-50 50s-50-22.38-50-50c0-27.6 22.4-50 50-50s50 22.4 50 50z" stroke="#e81313" stroke-width="10" fill-opacity="0"/><path d="M120 617.88c0 27.62-22.4 50-50 50s-50-22.38-50-50c0-27.6 22.4-50 50-50s50 22.4 50 50zM320 157.88c0 27.62-22.4 50-50 50s-50-22.38-50-50c0-27.6 22.4-50 50-50s50 22.4 50 50z" stroke="#635dff" stroke-width="10" fill-opacity="0"/><path d="M320 777.88c0 27.62-22.4 50-50 50s-50-22.38-50-50c0-27.6 22.4-50 50-50s50 22.4 50 50zM520 317.88c0 27.62-22.4 50-50 50s-50-22.38-50-50c0-27.6 22.4-50 50-50s50 22.4 50 50z" stroke="#e81313" stroke-width="10" fill-opacity="0"/><path d="M520 617.88c0 27.62-22.4 50-50 50s-50-22.38-50-50c0-27.6 22.4-50 50-50s50 22.4 50 50z" stroke="#635dff" stroke-width="10" fill-opacity="0"/><path d="M74.05 259.95l136.9-99.13" stroke="#3a414a" stroke-width="10" fill="none"/><path d="M76.65 263.32l-1.1-.17-5.5-.27-3.66.13-1.76-2.4 6.58-4.78zM215.23 153.1l-.23 4.75.14 4 .23 1.94-1.6 1.14-5.86-8.1 6.6-4.77z" stroke="#3a414a" stroke-width=".05" fill="#3a414a"/><path d="M329.05 160.82l136.9 99.13" stroke="#3a414a" stroke-width="10" fill="none"/><path d="M332.1 156.84l-5.88 8.1-1.55-1.12.06-.4.27-5.5-.14-4-.1-.82.75-1.03zM475.36 260.6l-1.78 2.45-3.54-.17-4.02.14-2.7.33 5.46-7.53z" stroke="#3a414a" stroke-width=".05" fill="#3a414a"/><path d="M70 377.9v179.98" stroke="#3a414a" stroke-width="10" fill="none"/><path d="M75 378H65v-5.36l4.96.25 4.02-.15 1.02-.13zM75 563.13l-4.96-.25-4.02.14-1.02.12v-5.4h10z" stroke="#3a414a" stroke-width=".05" fill="#3a414a"/><path d="M74.05 675.82l136.9 99.13" stroke="#3a414a" stroke-width="10" fill="none"/><path d="M71.22 679.94l-6.58-4.76 1.78-2.47 3.54.2 4.02-.15 2.7-.33zM215.33 771.95l-.06.38-.27 5.52.14 4 .1.82-.75 1.02-6.6-4.78 5.88-8.1z" stroke="#3a414a" stroke-width=".05" fill="#3a414a"/><path d="M329.05 774.95l136.9-99.13" stroke="#3a414a" stroke-width="10" fill="none"/><path d="M332.1 778.92l-6.6 4.77-.73-1.03.23-4.75-.14-4-.23-1.94 1.6-1.15zM464.45 672.6l5.5.3 3.66-.14 1.76 2.42-6.58 4.76-5.43-7.5z" stroke="#3a414a" stroke-width=".05" fill="#3a414a"/><path d="M470 557.88v-180" stroke="#3a414a" stroke-width="10" fill="none"/><path d="M475 563.13l-4.96-.25-4.02.14-1.02.12v-5.4h10zM475 378h-10v-5.36l4.96.25 4.02-.15 1.02-.13z" stroke="#3a414a" stroke-width=".05" fill="#3a414a"/><path d="M128.48 321.48l283.04 292.8" stroke="#3a414a" stroke-width="10" fill="none"/><path d="M132.16 318.1l-7.2 6.94-.4-.43.17-1.17.27-5.5-.14-4.02v-.05l1.65-1.6zM415.45 611.16l-.18 1.17-.27 5.52.14 4v.06l-1.65 1.6-5.66-5.83 7.2-6.95z" stroke="#3a414a" stroke-width=".05" fill="#3a414a"/><path d="M128.48 614.3l283.04-292.82" stroke="#3a414a" stroke-width="10" fill="none"/><path d="M132.16 617.67l-5.65 5.84-1.7-1.63.2-3.95-.14-4-.33-2.74.44-.46zM415.2 313.9l-.2 3.95.14 4 .33 2.74-.44.44-7.2-6.95 5.66-5.85z" stroke="#3a414a" stroke-width=".05" fill="#3a414a"/><path d="M270.13 97.88l.2-3.34.37-3.5.47-3.16.54-2.85.62-2.6.66-2.35.7-2.17.75-2 .77-1.85.8-1.7.85-1.62.86-1.5.9-1.4.92-1.32.95-1.23.97-1.18 1-1.12 1.03-1.05 1.07-1 1.1-.95 1.14-.9 1.18-.87 1.23-.8 1.27-.78 1.34-.73 1.4-.7 1.48-.66 1.54-.6 1.64-.58 1.73-.52 1.83-.48 1.95-.4 2.1-.36 2.25-.3 2.42-.2 2.62-.1h2.85l3.1.13 3.4.3 3.74.46 4.12.7 4.58.97 5.08 1.3 5.7 1.72 6.35 2.2 7.12 2.84 8.02 3.58 9 4.46 10.04 5.54 11.2 6.78 12.32 8.2 13.44 9.78 14.43 11.44 15.2 13.12 15.67 14.73 15.83 16.17 15.63 17.37 15.12 18.3 14.35 18.9 13.36 19.22 12.28 19.33 11.12 19.25 9.93 19 8.8 18.66 7.66 18.25 6.63 17.8 5.64 17.34 4.7 16.87 3.86 16.42 3.05 15.98 2.3 15.57 1.6 15.18.93 14.84.3 14.5-.3 14.5-.93 14.82-1.6 15.16-2.3 15.53-3.03 15.94-3.84 16.37-4.7 16.82-5.6 17.28-6.6 17.73-7.66 18.2-8.75 18.58-9.9 18.94-11.08 19.17-12.23 19.27-13.34 19.17-14.3 18.84-15.1 18.24-15.6 17.34-15.82 16.16-15.7 14.74-15.2 13.15-14.48 11.48-13.5 9.8-12.38 8.25-11.25 6.82L375.9 866l-9.03 4.5-8.07 3.6-7.2 2.86-6.4 2.23-5.73 1.72-5.12 1.32-4.6.98-4.16.7-3.78.48-3.42.3-3.13.12h-2.86l-2.63-.1-2.44-.2-2.26-.3-2.1-.35-1.98-.42-1.86-.47-1.74-.53-1.64-.57-1.56-.62-1.47-.65-1.4-.7-1.35-.73-1.3-.78-1.23-.83-1.18-.86-1.15-.9-1.1-.95-1.07-1-1.04-1.07-1-1.1-.97-1.2-.95-1.24-.9-1.32-.9-1.4-.87-1.5-.83-1.62-.8-1.72-.8-1.85-.74-2-.7-2.18-.66-2.37-.6-2.6-.55-2.84-.47-3.15-.36-3.5-.22-3.34" stroke="#3a414a" stroke-width="10" fill="none"/><path d="M275.1 97.85l-.1 5.28-4.96-.25-4.02.14-1.03.12.1-5.5zM264.45 832.6l5.5.3 4.03-.15.47-.06.1 5.2-10 .2-.1-5.5z" stroke="#3a414a" stroke-width=".05" fill="#3a414a"/></g></svg>