<svg xmlns="http://www.w3.org/2000/svg" xmlns:lucid="lucid" width="472" height="183.75"><g lucid:page-tab-id="cGs9pQKPD-zk"><path d="M266 65.33h100v98.42H266z" stroke="#3a414a" stroke-width="5" fill-opacity="0"/><path d="M294.15 82.84h46.34v61.54h-46.35z" fill="#fff" fill-opacity="0"/><path d="M340.46 90.36l-3.18 12.37h-1.1c.13-1.17.34-3.04.34-4.9 0-4.57-4-4.9-6.85-4.9h-6.77l-9.2 37.17c-.13.62-.34 1.1-.34 1.73 0 1.45 1.1 2.56 5.26 2.56h1.45l-.28 1.1h-22.75l.28-1.1h1.24c5.4 0 6.78-1.95 7.33-4.3l9.2-37.18h-6.3c-5.74 0-10.57 4.2-11.82 9.8h-1.1l3.18-12.36h41.4" fill="#3a414a"/><path d="M106 65.33h100v98.42H106z" stroke="#3a414a" stroke-width="5" fill-opacity="0"/><path d="M134.15 85.5h47.03v61.53h-47.03z" fill="#fff" fill-opacity="0"/><path d="M181.15 91.98l-3.67 15.27h-1.1c.07-.55.07-1.1.07-1.66 0-5.8-3.32-11.07-11.06-11.07-2.98 0-8.37 1.8-8.37 6.7 0 4.78 4.2 7.68 8.08 11 4.1 3.38 8.17 7.4 8.17 13.4 0 6.85-6 13.2-16.87 13.2-6.5 0-8.64-2.62-13.9-2.62-1.72 0-2.68.77-3.8 2.64h-1.1l4.15-16.3h1.1c0 .68.08 1.44.08 2.13.2 5.46 2.76 11.54 11.82 11.54 8.77 0 10.78-4.9 10.78-9.4 0-2.4-1.25-4.7-3.18-6.62-2.08-2.15-5.4-4.63-7.88-7.05-1.94-1.94-5.05-5.67-5.05-9.06 0-5.6 4.5-12.1 15.42-12.1 5.73 0 9.67 2.56 12.64 2.56 1.4 0 2.35-1.52 2.56-2.55h1.1" fill="#3a414a"/><path d="M211 114.54h50" stroke="#3a414a" stroke-width="5" stroke-linejoin="round" fill="none"/><path d="M211.06 117.04h-2.56v-5h2.56zM263.5 117.04h-2.56v-5h2.56z" stroke="#3a414a" stroke-width=".05" fill="#3a414a"/><path d="M371 114.56l15.78.1 12.8-.75 9.3-1.14 6.98-1.33 5.37-1.4 4.24-1.38 3.4-1.37 2.78-1.33 2.3-1.28 1.93-1.26 1.63-1.2 1.4-1.2 1.2-1.15 1.04-1.14.9-1.12.78-1.13.68-1.12.6-1.13.5-1.15.4-1.17.36-1.2.28-1.23.2-1.28.12-1.34.04-1.4v-.1l-.03-.87-.06-.9-.1-.93-.15-.95-.2-.98-.24-1-.28-1-.35-1.05-.4-1.06-.48-1.1-.55-1.12-.6-1.14-.7-1.17-.8-1.2-.88-1.26-1-1.28-1.12-1.33-1.27-1.4-1.43-1.43-1.63-1.5-1.84-1.56-2.1-1.62-2.42-1.7-2.77-1.82-3.2-1.9-3.74-2-4.36-2.1-5.14-2.23-6.13-2.35-7.36-2.48-8.94-2.6-11-2.7L361 34.84l-17.4-2.76-22.46-2.6-29.66-2.16-40.16-1.25-16.66-.07-45.56 1.03-32.93 2.13-24.5 2.62-18.67 2.8-14.55 2.8-11.53 2.73-9.28 2.62-7.58 2.48-6.26 2.35-5.22 2.2-4.4 2.1-3.75 1.96-3.2 1.87-2.77 1.76-2.4 1.67L40 60.7l-1.82 1.5-1.6 1.46-1.42 1.4-1.25 1.33-1.1 1.28-1 1.24-.86 1.2-.77 1.17-.7 1.13-.6 1.1-.52 1.08-.47 1.07-.4 1.03-.35 1-.3 1-.25.98-.2.96-.15.94-.12.92-.06.9-.04.9v.37l.04 1.17.1 1.13.2 1.1.23 1.06.32 1.06.37 1.03.47 1.04.55 1.04.63 1.06.75 1.07.88 1.1 1.04 1.12 1.2 1.16 1.45 1.22 1.72 1.27 2.08 1.32 2.54 1.4 3.14 1.5 3.96 1.55 5.1 1.64 6.68 1.7 9 1.65 12.54 1.47 18.07.95 1.9.03" stroke="#3a414a" stroke-width="5" stroke-linejoin="round" fill="none"/><path d="M371.08 112.06l-.03 5-2.55-.02v-5zM103.5 112.04v5l-2.6-.04.08-5z" stroke="#3a414a" stroke-width=".05" fill="#3a414a"/></g></svg>