<svg xmlns="http://www.w3.org/2000/svg" xmlns:lucid="lucid" width="440" height="320"><g lucid:page-tab-id="0_0"><path d="M340 20v120l80-60z" stroke="#3a414a" stroke-width="5" fill-opacity="0"/><path d="M347.4 55.8h35v48.4h-35z" fill="#fff" fill-opacity="0"/><path d="M364.48 63.94l-6.15 22.53c-.2.7-.28 1.45-.28 2.2 0 2.64 1.38 4.58 4.15 4.58 7.46 0 12.3-7.8 14.5-14.03.56-1.66 1.05-3.4 1.05-5.12 0-5.1-4.22-4.5-4.22-7.53 0-2.35 1.73-2.9 3.73-2.9 2.9 0 3.25 3.52 3.25 5.73 0 6.84-2.68 13.82-6.7 19.35-2.96 4.15-8.3 7.2-13.4 7.2-4.42 0-8.02-1.4-8.02-6.44 0-1.44.2-2.9.62-4.27l4-14.52c.15-.54.36-1.16.36-1.7 0-1.4-3.04-1.4-3.94-1.4v-1.03c3.6-.9 7.33-1.38 10.78-2.9" fill="#3a414a"/><path d="M340 180v120l80-60z" stroke="#3a414a" stroke-width="5" fill-opacity="0"/><path d="M340 215.8h53.6v48.4H340z" fill="#fff" fill-opacity="0"/><path d="M376.7 224.22l-5.53 19.97c-.4 1.58-.83 3.17-.83 4.83 0 2.7 1.3 4.22 4.08 4.22 7.46 0 11.33-7.95 13.48-14.03.55-1.66 1.03-3.4 1.03-5.12 0-5.1-4.07-4.56-4.2-7.53-.15-2.5 2.06-2.9 3.72-2.9 2.9 0 3.25 3.52 3.25 5.73 0 10.1-7.26 26.54-19.08 26.54-4.77 0-7.67-1.93-7.67-6.9 0-2.9.83-5.88 1.6-8.65-2.77 6.14-8.44 15.54-16.18 15.54-3.87 0-5.4-2.35-5.4-6 0-2.3.77-4.44 1.32-6.58l3.24-12.23c.2-.62.34-1.3.34-2 0-1.66-2.62-1.53-3.73-1.53v-1.03c3.66-.62 7.26-1.6 10.7-3.04l.3.2-5.6 21.22c-.22.9-.77 3.1-.77 5.05 0 1.8.42 3.25 1.94 3.25 4-.07 8.9-7.88 10.57-10.44 3.65-5.6 5.45-10.98 7.6-18.58h5.8" fill="#3a414a"/><path d="M260 34.44h26.24V77.5H260z" fill="#fff" fill-opacity="0"/><path d="M285.5 50.58l-.2.58c-3.25.34-4.6 1.2-6.44 2.8l-5.13 4.46 3.1 7.35c.73 1.7 1.3 2.85 2.56 2.85 1.44 0 2.5-2.08 3.57-3.53l.73.52c-.58 1.02-2.86 6.2-6.14 6.2-2.23 0-3.24-2.57-3.78-3.83l-3.04-7.12-2.7 2.37-2.2 8.03h-3.66l7.15-28.48c.1-.3.15-.63.15-.97 0-.53-.48-1.07-1.55-1.07-.43 0-.92 0-1.3.1l-.15-.68 7.64-1.2-5.46 22.05 8.07-7.2c.54-.5 1.02-1.12 1.02-1.75 0-.58-.78-.92-1.26-.92h-.6l.2-.58h9.4" fill="#3a414a"/><path d="M264.6 194.44H280v43.06h-15.4z" fill="#fff" fill-opacity="0"/><path d="M278.04 198.98l-7.16 28.58s-.04.2-.04.53.2.62.58.62c1.1 0 2.56-1.9 3-2.66l.77.58c-1.66 1.93-3.74 5.12-6.54 5.12-1.45 0-1.9-1.25-1.9-2.46 0-.58.16-1.26.3-1.74l6.2-24.67c.14-.64.14-1.02.14-1.17 0-.58-.4-1.06-1.5-1.06-.34 0-.92.1-1.3.14l-.15-.7" fill="#3a414a"/><path d="M308.5 40.56h25.1V77.5h-25.1z" fill="#fff" fill-opacity="0"/><path d="M322.17 47.26l.67-.63c1.9-1.8 3.78-2.8 5.47-2.8 2.96 0 4.55 2.6 4.55 7.5 0 6.23-5.32 14.4-12.28 14.4-1.16 0-2.03-.2-2.95-.92l-1.16 4.85c-.15.63-.24 1.16-.24 1.7 0 1.06.53 2.07 2.95 2.07h.77l-.14.58h-11.32l.14-.58c3-.14 3.34-1.6 3.92-3.82l5.66-22.44c0-.92-.05-1.6-1.5-1.6-.4 0-.97.1-1.35.2l-.1-.77 7.64-1.17-.88 3.33m-1.74 6.48l-2.22 9.68c.67.77 1.64 1 2.22 1 4.88 0 8.5-8.36 8.5-13.77 0-3.05-1.34-4.02-2.45-4.02-2.57 0-5.08 2.95-6.05 7.1" fill="#3a414a"/><path d="M308.5 200.56h22.42v36.94H308.5z" fill="#fff" fill-opacity="0"/><path d="M330.9 204.45l-6.34 25.25c-.15.48-.15.97-.15 1.4 0 1.45.93 2.32 2.38 2.32h.68l-.14.58h-12.1l.15-.58h.92c3.28 0 4.05-1.98 4.5-3.77l2.12-8.9h-.3c-3.23 4.5-6.14 4.98-7.88 4.98-3.1 0-4.3-2.8-4.3-5.56 0-5.95 3.87-11.9 8.17-14.7 1.5-1.02 3.06-1.64 4.4-1.64 2.33 0 3.4 1.25 3.5 2.5h.14l.34-1.88h3.92m-5.08 4.36c0-2.07-.63-3.57-2.37-3.57-1.02 0-2 .53-2.95 1.3-3.1 2.52-5.95 8.95-5.95 13.2 0 1.3.43 3.05 2.5 3.05.84 0 1.95-.2 2.82-.82 3.05-2.17 5.95-7.7 5.95-13.15" fill="#3a414a"/><path d="M281.25 238.75h37.5v2.5h-37.5z" stroke="#3a414a" stroke-width="2.5" fill="none"/><path d="M335 240h-12.5" stroke="#3a414a" stroke-width="5" fill="none"/><path d="M337.5 242.5h-2.56v-5h2.56zM320 237.5h2.56v5H320z" stroke="#3a414a" stroke-width=".05" fill="#3a414a"/><path d="M281.25 78.75h37.5v2.5h-37.5z" stroke="#3a414a" stroke-width="2.5" fill="none"/><path d="M335 80h-12.5" stroke="#3a414a" stroke-width="5" fill="none"/><path d="M337.5 82.5h-2.56v-5h2.56zM320 77.5h2.56v5H320z" stroke="#3a414a" stroke-width=".05" fill="#3a414a"/><path d="M21.25 78.75h57.5v2.5h-57.5zM21.25 238.75h57.5v2.5h-57.5z" stroke="#3a414a" stroke-width="2.5" fill="none"/><path d="M277.5 80.05l-1.33.03-3.66.23-3.5.38-3.37.5-3.27.62-3.2.75-3.1.87-3.07 1-3.04 1.12-3 1.26-3 1.4-3 1.6-3.04 1.74-3.07 1.95-3.15 2.18-3.23 2.45-3.36 2.78-3.52 3.2-3.74 3.66-4.06 4.32-4.5 5.22-5.2 6.57-6.5 9-11.02 16.7-24.13 37.57-6.52 9-5.2 6.56-4.48 5.22-4.06 4.32-3.74 3.67-3.53 3.2-3.37 2.77-3.23 2.45-3.15 2.2-3.07 1.94-3.04 1.75-3 1.6-3 1.4-3 1.26-3.03 1.13-3.05.98-3.12.87-3.2.75-3.26.62-3.38.5-3.5.37-3.67.22-1.33.03" stroke="#3a414a" stroke-width="5" stroke-linejoin="round" fill="none"/><path d="M282.95 77.5H280v5h.02l-2.53.05-.12-5 5.56-.1zM82.56 242.5H77h3v-5h2.56z" stroke="#3a414a" stroke-width=".05" fill="#3a414a"/><path d="M277.5 239.95l-1.33-.03-3.66-.23-3.5-.38-3.37-.5-3.27-.62-3.2-.75-3.1-.87-3.07-1-3.04-1.12-3-1.26-3-1.4-3-1.6-3.04-1.74-3.07-1.95-3.15-2.18-3.23-2.45-3.36-2.78-3.52-3.2-3.74-3.66-4.06-4.32-4.5-5.22-5.2-6.57-6.5-9-11.02-16.7-24.13-37.57-6.52-9-5.2-6.56-4.48-5.22-4.06-4.32-3.74-3.67-3.53-3.2-3.37-2.77-3.23-2.45-3.15-2.2-3.07-1.94-3.04-1.75-3-1.6-3-1.4-3-1.26L107 84.4l-3.05-.98-3.12-.87-3.2-.75-3.26-.62-3.38-.5-3.5-.37-3.67-.22-1.33-.03" stroke="#3a414a" stroke-width="5" stroke-linejoin="round" fill="none"/><path d="M280.02 237.5H280v5h2.95v.06l-5.57-.1.1-5zM82.56 77.5v5H80v-5h-3z" stroke="#3a414a" stroke-width=".05" fill="#3a414a"/><path d="M20 37.5h15.06v40H20z" fill="#fff" fill-opacity="0"/><path d="M32.43 43.9c0 1.27-1.06 2.23-2.32 2.23-1.4 0-2.3-.96-2.3-2.22 0-1.2.9-2.4 2.3-2.4 1.27 0 2.33 1.2 2.33 2.4m-1.45 6.05l-4.45 17.6c-.05.3-.05.5-.05.68 0 .34.3.5.63.5 1.07 0 1.36-.6 3.1-2.48l.63.48c-1.7 2.18-4.1 5.08-6.48 5.08-1.35 0-1.93-.9-1.93-2.2 0-.6 0-1.5 3.82-16.36.05-.1.1-.43.1-.58 0-.82-.4-1.06-1.5-1.06-.44 0-1.02.1-1.36.2l-.14-.78" fill="#3a414a"/><path d="M20 191.37h19.6v46.13H20z" fill="#fff" fill-opacity="0"/><path d="M38.74 197.78c0 1.26-1.06 2.23-2.32 2.23-1.4 0-2.32-.96-2.32-2.22 0-1.2.92-2.42 2.32-2.42 1.26 0 2.32 1.2 2.32 2.42m-1.02 6.05l-5.22 20.55c-1.06 4.26-3.77 9.82-9 9.82-2.56 0-3.52-1.6-3.52-2.95 0-1.07.58-2.52 2.27-2.52.92 0 1.7.73 1.7 1.84 0 .73-.78.87-.78 1.64 0 .2.24.5.48.5 2.23 0 3.82-3.68 4.98-8.32l4.45-17.56c0-.58-.48-1.06-1.55-1.06-.38 0-.96.1-1.3.24l-.15-.82" fill="#3a414a"/></g></svg>