<svg xmlns="http://www.w3.org/2000/svg" xmlns:lucid="lucid" width="540" height="280"><g lucid:page-tab-id="dJycUICauajk"><path d="M159 20h1v20h-1z" stroke="#000" stroke-opacity="0" stroke-width="5" fill="#fff"/><path d="M160 260V80l-80 90z" stroke="#3a414a" stroke-width="5" fill-opacity="0"/><path d="M276.85 152.13h47.38v39.66h-47.38z" fill="#fff" fill-opacity="0"/><path d="M320.88 165.15h-40.7v-4.56h40.7v4.55m0 13.83h-40.7v-4.56h40.7v4.56" fill="#3a414a"/><path d="M440 80v180l80-90z" stroke="#3a414a" stroke-width="5" fill-opacity="0"/><path d="M165 169.9l2.7-.28 3.08-.55 3.47-.88 3.9-1.3 4.33-1.78 4.76-2.36 5.12-3 5.32-3.64 5.32-4.22 5.1-4.67 4.66-4.92 4.12-5 3.5-4.93 2.9-4.76 2.35-4.53 1.84-4.28 1.4-4.04 1.03-3.8.7-3.6.43-3.38.17-3.23V99.2l-.17-3.14-.4-3.28-.68-3.44-.98-3.63-1.34-3.83-1.74-4.08-2.23-4.32-2.76-4.55-3.35-4.76-4-4.88-4.6-4.9-5.15-4.75-5.5-4.4-5.62-3.9-5.5-3.26-5.2-2.62-4.77-1.98-4.26-1.44-3.78-1-3.34-.6-2.94-.34-.38-.02" stroke="#3a414a" stroke-width="5" stroke-linejoin="round" fill="none"/><path d="M165.15 172.4l-2.65.1v-5l2.47-.1zM162.57 27.5l-.02 5H160v-5zm-3.57 0v5h-2v-5z" stroke="#3a414a" stroke-width=".05" fill="#3a414a"/><path d="M21.25 28.75h137.5v2.5H21.25z" stroke="#3a414a" stroke-width="2.5" fill="none"/><path d="M109.92 147.75h35v48.42h-35z" fill="#fff" fill-opacity="0"/><path d="M127 155.9l-6.16 22.53c-.2.7-.28 1.45-.28 2.2 0 2.64 1.4 4.57 4.15 4.57 7.48 0 12.3-7.8 14.53-14.03.55-1.65 1.03-3.38 1.03-5.1 0-5.12-4.2-4.5-4.2-7.54 0-2.35 1.7-2.9 3.72-2.9 2.9 0 3.25 3.52 3.25 5.73 0 6.84-2.7 13.82-6.7 19.35-2.98 4.16-8.3 7.2-13.42 7.2-4.4 0-8-1.38-8-6.43 0-1.45.2-2.9.62-4.28l4-14.53c.15-.55.35-1.17.35-1.72 0-1.4-3.04-1.4-3.94-1.4v-1.02c3.6-.9 7.33-1.4 10.8-2.9" fill="#3a414a"/><path d="M435 170h-52.5" stroke="#3a414a" stroke-width="5" stroke-linejoin="round" fill="none"/><path d="M437.5 172.5h-2.56v-5h2.56z" stroke="#3a414a" stroke-width=".05" fill="#3a414a"/><path d="M382.56 170H380" stroke="#3a414a" stroke-width="5" fill="none"/><path d="M437.48 147.75h74.7v74.67h-74.7z" fill="#fff" fill-opacity="0"/><path d="M454.55 182.16l-6.15 22.53c-.2.68-.28 1.44-.28 2.2 0 2.63 1.4 4.56 4.15 4.56 7.47 0 12.3-7.8 14.5-14.03.57-1.66 1.05-3.4 1.05-5.1 0-5.13-4.2-4.5-4.2-7.55 0-2.35 1.7-2.9 3.72-2.9 2.9 0 3.25 3.52 3.25 5.74 0 6.84-2.7 13.82-6.72 19.35-2.97 4.15-8.3 7.2-13.4 7.2-4.43 0-8.02-1.4-8.02-6.44 0-1.45.2-2.9.62-4.3l4-14.5c.15-.55.35-1.18.35-1.73 0-1.38-3.04-1.38-3.94-1.38v-1.04c3.6-.9 7.32-1.38 10.78-2.9M505.2 156.6l-2.26 8.75h-.78c.1-.83.25-2.15.25-3.47 0-3.22-2.83-3.47-4.83-3.47h-4.8l-6.5 26.3c-.1.44-.23.8-.23 1.23 0 1.02.78 1.8 3.7 1.8h1.04l-.2.78H474.5l.2-.77h.88c3.8 0 4.8-1.37 5.18-3.03l6.5-26.3h-4.45c-4.04 0-7.46 3-8.34 6.95h-.8l2.26-8.74h29.27" fill="#3a414a"/></g></svg>