<svg xmlns="http://www.w3.org/2000/svg" xmlns:lucid="lucid" width="561.33" height="280"><g lucid:page-tab-id="8IycOVkap_AD"><path d="M94.33 20h1v20h-1z" stroke="#000" stroke-opacity="0" stroke-width="5" fill="#fff"/><path d="M95.58 28.75h139.17v2.5H95.58z" stroke="#3a414a" stroke-width="2.5" fill="none"/><path d="M95.33 80v180l80-90z" stroke="#3a414a" stroke-width="5" fill-opacity="0"/><path d="M107.93 145.8h35v48.4h-35z" fill="#fff" fill-opacity="0"/><path d="M125 153.94l-6.15 22.53c-.2.7-.27 1.45-.27 2.2 0 2.64 1.38 4.58 4.14 4.58 7.47 0 12.3-7.8 14.52-14.03.55-1.66 1.03-3.4 1.03-5.12 0-5.1-4.2-4.5-4.2-7.53 0-2.35 1.7-2.9 3.72-2.9 2.9 0 3.24 3.52 3.24 5.73 0 6.84-2.7 13.82-6.7 19.35-2.98 4.15-8.3 7.2-13.4 7.2-4.44 0-8.03-1.4-8.03-6.44 0-1.44.22-2.9.63-4.27l4-14.52c.15-.54.35-1.16.35-1.7 0-1.4-3.04-1.4-3.94-1.4v-1.03c3.6-.9 7.33-1.38 10.8-2.9" fill="#3a414a"/><path d="M90.34 169.87l-1.74-.18-2.54-.47-2.9-.74-3.32-1.1-3.8-1.57-4.33-2.15-4.83-2.84-5.28-3.63-5.52-4.38-5.48-5.03-5.13-5.45-4.56-5.56-3.85-5.45-3.13-5.17-2.47-4.8-1.88-4.4-1.4-4.03-1-3.7-.64-3.37-.38-3.1-.15-2.9v-.55l.1-2.78.33-2.98.58-3.22.9-3.48 1.3-3.8 1.73-4.13 2.3-4.52 2.93-4.9 3.68-5.2 4.45-5.44 5.14-5.45 5.66-5.18 5.86-4.64 5.72-3.9L72 36.64l4.76-2.33 4.17-1.67 3.6-1.16 3.13-.75 2.7-.45 1.48-.14" stroke="#3a414a" stroke-width="5" stroke-linejoin="round" fill="none"/><path d="M92.83 167.5v5l-2.65-.1.18-5zM94.33 32.5l-2.5.07-.13-5 2.63-.07zm3.07-.1l-2.07.07v-5l1.93-.05z" stroke="#3a414a" stroke-width=".05" fill="#3a414a"/><path d="M292.18 152.13h47.38v39.66h-47.38z" fill="#fff" fill-opacity="0"/><path d="M336.2 165.15h-40.7v-4.56h40.7v4.55m0 13.83h-40.7v-4.56h40.7v4.56" fill="#3a414a"/><path d="M475.33 260V80l-80 90z" stroke="#3a414a" stroke-width="5" fill-opacity="0"/><path d="M480.33 170h52.5" stroke="#3a414a" stroke-width="5" fill="none"/><path d="M480.4 172.5h-2.57v-5h2.57z" stroke="#3a414a" stroke-width=".05" fill="#3a414a"/><path d="M532.77 170h2.56" stroke="#3a414a" stroke-width="5" fill="none"/><path d="M405.57 120h74.68v74.67h-74.68z" fill="#fff" fill-opacity="0"/><path d="M422.64 154.4l-6.15 22.54c-.22.7-.3 1.45-.3 2.2 0 2.63 1.4 4.57 4.16 4.57 7.46 0 12.3-7.8 14.5-14.02.57-1.66 1.05-3.4 1.05-5.1 0-5.13-4.2-4.5-4.2-7.55 0-2.35 1.72-2.9 3.73-2.9 2.9 0 3.25 3.52 3.25 5.74 0 6.84-2.7 13.82-6.7 19.35-2.98 4.14-8.3 7.2-13.42 7.2-4.42 0-8-1.4-8-6.44 0-1.45.2-2.9.6-4.3l4.02-14.5c.13-.55.34-1.18.34-1.73 0-1.38-3.04-1.38-3.94-1.38v-1.04c3.6-.9 7.33-1.38 10.78-2.9M473.28 128.86l-2.25 8.74h-.78c.1-.83.25-2.15.25-3.47 0-3.22-2.84-3.47-4.84-3.47h-4.8l-6.5 26.3c-.1.43-.23.77-.23 1.2 0 1.04.78 1.82 3.7 1.82h1.04l-.2.78H442.6l.2-.78h.87c3.8 0 4.8-1.37 5.18-3.03l6.5-26.3h-4.45c-4.06 0-7.48 3-8.36 6.95h-.78l2.25-8.74h29.28" fill="#3a414a"/></g></svg>