<svg xmlns="http://www.w3.org/2000/svg" xmlns:lucid="lucid" width="420" height="220"><g lucid:page-tab-id="0_0"><path d="M200 100H20l90 80z" stroke="#3a414a" stroke-width="5" fill-opacity="0"/><path d="M110 95V42.5" stroke="#3a414a" stroke-width="5" fill="none"/><path d="M112.5 97.5h-5v-2.56h5z" stroke="#3a414a" stroke-width=".05" fill="#3a414a"/><path d="M110 42.56V40" stroke="#3a414a" stroke-width="5" fill="none"/><path d="M92.5 106.93h35v48.4h-35z" fill="#fff" fill-opacity="0"/><path d="M109.57 115.08l-6.15 22.53c-.2.7-.28 1.46-.28 2.22 0 2.63 1.38 4.56 4.15 4.56 7.45 0 12.3-7.8 14.5-14.03.55-1.66 1.04-3.38 1.04-5.1 0-5.13-4.22-4.5-4.22-7.55 0-2.35 1.73-2.9 3.73-2.9 2.9 0 3.25 3.53 3.25 5.74 0 6.84-2.7 13.82-6.7 19.35-2.97 4.14-8.3 7.18-13.4 7.18-4.43 0-8.03-1.38-8.03-6.43 0-1.45.2-2.9.63-4.28l4-14.52c.14-.55.35-1.17.35-1.73 0-1.38-3.04-1.38-3.94-1.38v-1.04c3.6-.9 7.34-1.38 10.8-2.9" fill="#3a414a"/><path d="M320 20v180l80-90z" stroke="#3a414a" stroke-width="5" fill-opacity="0"/><path d="M315 110h-52.5" stroke="#3a414a" stroke-width="5" fill="none"/><path d="M317.5 112.5h-2.56v-5h2.56z" stroke="#3a414a" stroke-width=".05" fill="#3a414a"/><path d="M262.56 110H260" stroke="#3a414a" stroke-width="5" fill="none"/><path d="M332.6 85.8h35v48.4h-35z" fill="#fff" fill-opacity="0"/><path d="M349.67 93.94l-6.15 22.53c-.2.7-.28 1.45-.28 2.2 0 2.64 1.38 4.58 4.15 4.58 7.45 0 12.3-7.8 14.5-14.03.56-1.66 1.04-3.4 1.04-5.12 0-5.1-4.22-4.5-4.22-7.53 0-2.35 1.73-2.9 3.74-2.9 2.9 0 3.24 3.52 3.24 5.73 0 6.84-2.7 13.82-6.7 19.35-2.97 4.15-8.3 7.2-13.4 7.2-4.43 0-8.03-1.4-8.03-6.44 0-1.44.2-2.9.63-4.27l4-14.52c.14-.54.35-1.16.35-1.7 0-1.4-3.04-1.4-3.94-1.4v-1.03c3.6-.9 7.34-1.38 10.8-2.9" fill="#3a414a"/></g></svg>