<svg xmlns="http://www.w3.org/2000/svg" xmlns:lucid="lucid" width="420" height="220"><g lucid:page-tab-id="6lj94MUjTf0m"><path d="M400 120H220l90-80z" stroke="#3a414a" stroke-width="5" fill-opacity="0"/><path d="M286.83 60h46.34v61.54h-46.34z" fill="#fff" fill-opacity="0"/><path d="M333.14 67.52l-3.18 12.37h-1.1c.13-1.18.34-3.05.34-4.92 0-4.56-4-4.9-6.85-4.9h-6.77l-9.2 37.18c-.13.62-.34 1.1-.34 1.73 0 1.44 1.1 2.55 5.26 2.55h1.45l-.28 1.1h-22.74l.28-1.1h1.25c5.4 0 6.78-1.94 7.33-4.3l9.2-37.17h-6.3c-5.73 0-10.57 4.2-11.82 9.8h-1.1l3.18-12.36h41.4" fill="#3a414a"/><path d="M100 200V20l-80 90z" stroke="#3a414a" stroke-width="5" fill-opacity="0"/><path d="M55.43 85.8h35v48.4h-35z" fill="#fff" fill-opacity="0"/><path d="M72.5 93.94l-6.15 22.53c-.2.7-.27 1.45-.27 2.2 0 2.64 1.38 4.58 4.14 4.58 7.47 0 12.3-7.8 14.52-14.03.55-1.66 1.03-3.4 1.03-5.12 0-5.1-4.2-4.5-4.2-7.53 0-2.35 1.72-2.9 3.72-2.9 2.9 0 3.24 3.52 3.24 5.73 0 6.84-2.7 13.82-6.7 19.35-2.98 4.15-8.3 7.2-13.4 7.2-4.44 0-8.03-1.4-8.03-6.44 0-1.44.22-2.9.63-4.27l4-14.52c.15-.54.36-1.16.36-1.7 0-1.4-3.06-1.4-3.95-1.4v-1.03c3.6-.9 7.32-1.38 10.78-2.9" fill="#3a414a"/><path d="M105 110h52.5" stroke="#3a414a" stroke-width="5" fill="none"/><path d="M105.06 112.5h-2.56v-5h2.56z" stroke="#3a414a" stroke-width=".05" fill="#3a414a"/><path d="M157.44 110H160M279.67 125v52.5" stroke="#3a414a" stroke-width="5" fill="none"/><path d="M282.17 125.06h-5v-2.56h5z" stroke="#3a414a" stroke-width=".05" fill="#3a414a"/><path d="M279.67 177.44V180M340.33 125v52.5" stroke="#3a414a" stroke-width="5" fill="none"/><path d="M342.83 125.06h-5v-2.56h5z" stroke="#3a414a" stroke-width=".05" fill="#3a414a"/><path d="M340.33 177.44V180" stroke="#3a414a" stroke-width="5" fill="none"/></g></svg>