<svg xmlns="http://www.w3.org/2000/svg" xmlns:lucid="lucid" width="666" height="206.96"><g lucid:page-tab-id="tbnfktzVn3op"><path d="M240 103.5c0 22.1-17.9 40-40 40s-40-17.9-40-40 17.9-40 40-40 40 17.9 40 40zm-80 0h80m-40-40v80" stroke="#3a414a" stroke-width="5" fill-opacity="0"/><path d="M297.5 180.87l-2.34-.08-4.3-.48-3.9-.7-3.6-.95-3.45-1.16-3.34-1.4-3.35-1.7-3.44-2.1-3.7-2.63-4.24-3.5-5.5-5.26-23.63-26.5" stroke="#3a414a" stroke-width="5" stroke-linejoin="round" fill="none"/><path d="M300.04 178.46H300v5h2.9v.1l-5.55-.2.18-5zM234.6 132.8l-3.73 3.32-1.66-1.86 1.9-1.8 1.54-1.86z" stroke="#3a414a" stroke-width=".05" fill="#3a414a"/><path d="M376.22 85.86h47.38v39.67h-47.38z" fill="#fff" fill-opacity="0"/><path d="M420.25 98.9h-40.7v-4.57h40.7v4.56m0 13.8h-40.7v-4.55h40.7v4.56" fill="#3a414a"/><path d="M100 162.5v-118l-80 59z" stroke="#3a414a" stroke-width="5" fill-opacity="0"/><path d="M46.77 55.22h62.16v74.67H46.77z" fill="#fff" fill-opacity="0"/><path d="M71.86 113.27l.97.9c-4.84 5.94-9.54 7.6-13.83 7.6-6.77 0-9.46-5.8-9.46-10.78 0-1.6.07-2.57.4-4.16 1.74-7.67 9.34-16.3 18.12-16.3 2.9 0 7.05.95 7.05 5.24 0 8.78-11.53 12.16-19.76 12.58v1.93c0 4.42 3.6 7.4 7.8 7.4 2.9 0 6.23-1.25 8.72-4.43m-16.52-6.85h.62c7.2 0 13.7-4.77 13.7-10.85 0-1.73-1.32-2.97-3.05-2.97-5.1 0-9.25 7.95-11.26 13.82M96.78 96h-13.5v-.75c3.63-.2 4.66-1.22 4.66-3.9V69.4c0-1.66-.44-2.4-1.47-2.4-.5 0-1.32.26-2.2.6l-1.32.5v-.7l8.75-4.44.44.14v29.17c0 2.1.98 2.98 4.64 2.98V96" fill="#3a414a"/><path d="M155 103.5h-50" stroke="#3a414a" stroke-width="5" fill="none"/><path d="M157.5 103.47l.1 2.53h-2.67v-5h2.72zM105.06 106h-2.56v-5h2.56z" stroke="#3a414a" stroke-width=".05" fill="#3a414a"/><path d="M301.25 24.75h17.5v2.5h-17.5z" stroke="#3a414a" stroke-width="2.5" fill="none"/><path d="M232.33 72.3l9.48-9.7 18.55-19.88 4.78-4.22 3.88-2.95 3.48-2.27 3.3-1.82 3.23-1.5 3.28-1.23 3.4-1 3.6-.8 3.9-.57 4.32-.3" stroke="#3a414a" stroke-width="5" stroke-linejoin="round" fill="none"/><path d="M234.17 74l-1.86 1.92-3.33-3.53-.12-.1 1.74-1.78zM302.95 23.5H300v5h.02l-2.54.05-.1-5 5.57-.1z" stroke="#3a414a" stroke-width=".05" fill="#3a414a"/><path d="M301.25 179.7h17.5v2.5h-17.5z" stroke="#3a414a" stroke-width="2.5" fill="none"/><path d="M480 54.3h100v98.4H480z" stroke="#3a414a" stroke-width="5" fill-opacity="0"/><path d="M502 72.75h56v61.54h-56z" fill="#fff" fill-opacity="0"/><path d="M557.97 80.27l-.27 1.1h-.28c-4.77 0-6.77 2.22-9.33 5.12l-12.93 14.7 6.63 18.4c.83 2.35 2 4.7 5.46 4.7h.97l-.28 1.1h-19.42l.28-1.1h.77c2.62 0 4.63-.28 4.63-2.84 0-.55-.07-1.1-.28-1.8l-4.77-13.4-12.5 13.9c-.63.68-.84 1.3-.84 1.93 0 1.3 1.26 2.2 3.88 2.2h1.53l-.27 1.1h-17.2l.27-1.1c3.73-.5 7.1-2.56 9.67-5.32l14.38-15.9-5.88-15.97c-.76-2.13-1.93-5.72-7.05-5.72h-.62l.28-1.1h19.56l-.28 1.1h-1.3c-2.1 0-3.6.27-3.6 2.42 0 .55.13 1.17.4 1.93l4.15 12.37 11.35-12.7c.62-.77 1.04-1.6 1.04-2.36-.08-1.1-.9-1.66-3.12-1.66h-.63l.28-1.1h15.34" fill="#3a414a"/><path d="M585 74.05l52.5.23" stroke="#3a414a" stroke-width="5" stroke-linejoin="round" fill="none"/><path d="M585.08 71.55l-.03 5h-2.55v-5z" stroke="#3a414a" stroke-width=".05" fill="#3a414a"/><path d="M637.44 74.28H640" stroke="#3a414a" stroke-width="5" fill="none"/><path d="M585 134.05l52.5.23" stroke="#3a414a" stroke-width="5" stroke-linejoin="round" fill="none"/><path d="M585.08 131.55l-.03 5h-2.55v-5z" stroke="#3a414a" stroke-width=".05" fill="#3a414a"/><path d="M637.44 134.28H640" stroke="#3a414a" stroke-width="5" fill="none"/></g></svg>