<svg xmlns="http://www.w3.org/2000/svg" xmlns:lucid="lucid" width="646" height="318"><g lucid:page-tab-id="Ybef9h4EWyDy"><path d="M166 160c0 22.1-17.9 40-40 40s-40-17.9-40-40 17.9-40 40-40 40 17.9 40 40zm-80 0h80m-40-40v80" stroke="#3a414a" stroke-width="5" fill-opacity="0"/><path d="M81 160H28.5" stroke="#3a414a" stroke-width="5" fill="none"/><path d="M83.5 159.97l.1 2.53h-2.67v-5h2.72z" stroke="#3a414a" stroke-width=".05" fill="#3a414a"/><path d="M28.56 160H26" stroke="#3a414a" stroke-width="5" fill="none"/><path d="M245.8 20v118l80-59z" stroke="#3a414a" stroke-width="5" fill-opacity="0"/><path d="M245.8 52.6h62.16v52.8H245.8z" fill="#fff" fill-opacity="0"/><path d="M270.88 80l.97.9c-4.84 5.95-9.54 7.6-13.82 7.6-6.77 0-9.47-5.8-9.47-10.77 0-1.6.07-2.56.42-4.15 1.72-7.67 9.33-16.3 18.1-16.3 2.9 0 7.05.96 7.05 5.24 0 8.78-11.54 12.17-19.76 12.58v1.94c0 4.42 3.6 7.4 7.8 7.4 2.9 0 6.23-1.25 8.7-4.43m-16.5-6.83h.62c7.18 0 13.67-4.77 13.67-10.85 0-1.73-1.3-2.98-3.04-2.98-5.1 0-9.26 7.95-11.26 13.83M295.8 98.12h-13.48v-.74c3.6-.2 4.64-1.22 4.64-3.9V71.54c0-1.67-.44-2.4-1.47-2.4-.5 0-1.33.25-2.2.6l-1.32.48v-.7l8.74-4.43.44.13V94.4c0 2.1.98 2.98 4.64 2.98v.74" fill="#3a414a"/><path d="M245.8 180v118l80-59z" stroke="#3a414a" stroke-width="5" fill-opacity="0"/><path d="M245.8 212.6h62.16v52.8H245.8z" fill="#fff" fill-opacity="0"/><path d="M270.88 240l.97.9c-4.84 5.95-9.54 7.6-13.82 7.6-6.77 0-9.47-5.8-9.47-10.77 0-1.6.07-2.56.42-4.15 1.72-7.67 9.33-16.3 18.1-16.3 2.9 0 7.05.96 7.05 5.24 0 8.78-11.54 12.17-19.76 12.58v1.94c0 4.42 3.6 7.4 7.8 7.4 2.9 0 6.23-1.25 8.7-4.43m-16.5-6.83h.62c7.18 0 13.67-4.77 13.67-10.85 0-1.73-1.3-2.98-3.04-2.98-5.1 0-9.26 7.95-11.26 13.83M299.8 242c0 8.4-3.07 16.8-11.03 16.8-8.36 0-11.05-9.1-11.05-17.1 0-8.65 3.38-16.6 11.24-16.6 6.4 0 10.85 6.87 10.85 16.9m-4.68.24c0-10.17-2.15-15.88-6.45-15.88-4.06 0-6.25 5.76-6.25 15.68s2.15 15.5 6.35 15.5c4.15 0 6.35-5.63 6.35-15.3" fill="#3a414a"/><path d="M240.8 79.07l-3.2.1-5.1.43-4.67.67-4.33.88-4.12 1.1-3.96 1.28-3.9 1.53-3.92 1.8-4.04 2.13-4.3 2.6-4.76 3.28-5.74 4.47-8.4 7.36-22.46 21.66" stroke="#3a414a" stroke-width="5" stroke-linejoin="round" fill="none"/><path d="M243.3 81.5l-2.5.07-.14-5 2.64-.07zM159.68 130.1l-1.86 1.8-2.85-3-.66-.55 1.9-1.84z" stroke="#3a414a" stroke-width=".05" fill="#3a414a"/><path d="M240.8 238.93l-3.7-.1-5.53-.48-5-.73-4.64-.95-4.37-1.17-4.2-1.38-4.1-1.63-4.1-1.9-4.2-2.26-4.4-2.7-4.8-3.37-5.6-4.4-7.26-6.46-15.77-15.9-4.38-4.64" stroke="#3a414a" stroke-width="5" stroke-linejoin="round" fill="none"/><path d="M243.3 236.5v5l-2.64-.07.14-5zM160.6 189.2l-3.63 3.42-1.76-1.86 1.9-1.8 1.54-1.86z" stroke="#3a414a" stroke-width=".05" fill="#3a414a"/><path d="M382.2 142.36h47.4v39.67h-47.4z" fill="#fff" fill-opacity="0"/><path d="M426.23 155.4h-40.7v-4.57h40.7v4.56m0 13.8h-40.7v-4.55h40.7v4.56" fill="#3a414a"/><path d="M546 101v118l80-59z" stroke="#3a414a" stroke-width="5" fill-opacity="0"/><path d="M546 133.6h62.16v52.8H546z" fill="#fff" fill-opacity="0"/><path d="M571.1 161l.96.9c-4.84 5.95-9.54 7.6-13.83 7.6-6.77 0-9.47-5.8-9.47-10.77 0-1.6.07-2.56.42-4.15 1.73-7.67 9.33-16.3 18.1-16.3 2.9 0 7.06.96 7.06 5.24 0 8.78-11.55 12.17-19.77 12.58v1.94c0 4.42 3.6 7.4 7.8 7.4 2.9 0 6.23-1.25 8.72-4.43m-16.53-6.83h.62c7.18 0 13.68-4.77 13.68-10.85 0-1.73-1.32-2.98-3.04-2.98-5.12 0-9.27 7.95-11.27 13.83M596 179.12h-13.48v-.74c3.62-.2 4.64-1.22 4.64-3.9v-21.94c0-1.67-.44-2.4-1.46-2.4-.5 0-1.32.25-2.2.6l-1.32.48v-.7l8.75-4.43.44.13v29.17c0 2.1.97 2.98 4.64 2.98v.74" fill="#3a414a"/><path d="M541 160h-52.5" stroke="#3a414a" stroke-width="5" fill="none"/><path d="M543.5 162.5h-2.56v-5h2.56z" stroke="#3a414a" stroke-width=".05" fill="#3a414a"/><path d="M488.56 160H486" stroke="#3a414a" stroke-width="5" fill="none"/></g></svg>