<svg xmlns="http://www.w3.org/2000/svg" xmlns:lucid="lucid" width="618.27" height="206.96"><g lucid:page-tab-id="slnf-3qm31cN"><path d="M240 103.5c0 22.1-17.9 40-40 40s-40-17.9-40-40 17.9-40 40-40 40 17.9 40 40zm-80 0h80m-40-40v80" stroke="#3a414a" stroke-width="5" fill-opacity="0"/><path d="M297.5 180.87l-2.34-.08-4.3-.48-3.9-.7-3.6-.95-3.45-1.16-3.34-1.4-3.35-1.7-3.44-2.1-3.7-2.63-4.24-3.5-5.5-5.26-23.63-26.5" stroke="#3a414a" stroke-width="5" stroke-linejoin="round" fill="none"/><path d="M300.04 178.46H300v5h2.9v.1l-5.55-.2.18-5zM234.6 132.8l-3.73 3.32-1.66-1.86 1.9-1.8 1.54-1.86z" stroke="#3a414a" stroke-width=".05" fill="#3a414a"/><path d="M376.22 85.86h47.38v39.67h-47.38z" fill="#fff" fill-opacity="0"/><path d="M420.25 98.9h-40.7v-4.57h40.7v4.56m0 13.8h-40.7v-4.55h40.7v4.56" fill="#3a414a"/><path d="M100 162.5v-118l-80 59z" stroke="#3a414a" stroke-width="5" fill-opacity="0"/><path d="M41.73 55.22h62.16v74.67H41.72z" fill="#fff" fill-opacity="0"/><path d="M66.82 113.27l.97.9c-4.85 5.94-9.55 7.6-13.83 7.6-6.78 0-9.47-5.8-9.47-10.78 0-1.6.07-2.57.4-4.16 1.74-7.67 9.34-16.3 18.12-16.3 2.9 0 7.05.95 7.05 5.24 0 8.78-11.54 12.16-19.77 12.58v1.93c0 4.42 3.6 7.4 7.8 7.4 2.92 0 6.23-1.25 8.72-4.43m-16.52-6.85h.62c7.2 0 13.7-4.77 13.7-10.85 0-1.73-1.32-2.97-3.05-2.97-5.12 0-9.26 7.95-11.27 13.82M95.75 79.86c0 8.4-3.08 16.8-11.05 16.8-8.35 0-11.04-9.08-11.04-17.1 0-8.64 3.37-16.6 11.24-16.6 6.4 0 10.85 6.88 10.85 16.9m-4.7.25c0-10.16-2.14-15.87-6.44-15.87-4.05 0-6.25 5.76-6.25 15.68 0 9.93 2.15 15.5 6.35 15.5 4.16 0 6.36-5.62 6.36-15.3" fill="#3a414a"/><path d="M155 103.5h-50" stroke="#3a414a" stroke-width="5" fill="none"/><path d="M157.5 103.47l.1 2.53h-2.67v-5h2.72zM105.06 106h-2.56v-5h2.56z" stroke="#3a414a" stroke-width=".05" fill="#3a414a"/><path d="M301.25 24.75h17.5v2.5h-17.5z" stroke="#3a414a" stroke-width="2.5" fill="none"/><path d="M232.33 72.3l9.48-9.7 18.55-19.88 4.78-4.22 3.88-2.95 3.48-2.27 3.3-1.82 3.23-1.5 3.28-1.23 3.4-1 3.6-.8 3.9-.57 4.32-.3" stroke="#3a414a" stroke-width="5" stroke-linejoin="round" fill="none"/><path d="M234.17 74l-1.86 1.92-3.33-3.53-.12-.1 1.74-1.78zM302.95 23.5H300v5h.02l-2.54.05-.1-5 5.57-.1z" stroke="#3a414a" stroke-width=".05" fill="#3a414a"/><path d="M301.25 179.7h17.5v2.5h-17.5z" stroke="#3a414a" stroke-width="2.5" fill="none"/><path d="M558.27 33.5h40v140h-40z" stroke="#000" stroke-opacity="0" stroke-width="5" fill-opacity="0"/><path d="M555.77 53.3l-4.65.13-6.47.48-5.9.74-5.36.95-4.9 1.1-4.47 1.26-4.1 1.37-3.74 1.47-3.44 1.55-3.15 1.62-2.88 1.66-2.64 1.7-2.43 1.76-2.23 1.76-2.03 1.8-1.88 1.8-1.7 1.84-1.54 1.85-1.4 1.85-1.27 1.86-1.13 1.86-1 1.87-.9 1.86-.8 1.87-.68 1.87-.6 1.87-.47 1.88-.38 1.87-.28 1.88-.2 1.87-.08 1.88v1.87l.1 1.88.17 1.87.3 1.88.37 1.87.48 1.88.57 1.87.68 1.88.8 1.87.9 1.87 1 1.85 1.15 1.87 1.26 1.85 1.4 1.86 1.55 1.84 1.7 1.83 1.86 1.8 2.05 1.8 2.23 1.78 2.43 1.75 2.66 1.7 2.9 1.67 3.14 1.62 3.43 1.54 3.75 1.47 4.1 1.37 4.48 1.26 4.9 1.1 5.36.96 5.9.73 6.48.48 4.57.1" stroke="#3a414a" stroke-width="5" stroke-linejoin="round" fill="none"/><path d="M558.27 55.75l-2.5.06-.13-5 2.63-.05zM558.27 151v5l-2.63-.06.13-5z" stroke="#3a414a" stroke-width=".05" fill="#3a414a"/></g></svg>