<svg xmlns="http://www.w3.org/2000/svg" xmlns:lucid="lucid" width="246" height="127"><g lucid:page-tab-id="GKCf.fyGRdrl"><path d="M166 63.5c0 22.1-17.9 40-40 40s-40-17.9-40-40 17.9-40 40-40 40 17.9 40 40z" stroke="#3a414a" stroke-width="5" fill-opacity="0"/><path d="M187.25 24.75h37.5v2.5h-37.5zM187.25 99.75h37.5v2.5h-37.5z" stroke="#3a414a" stroke-width="2.5" fill="none"/><path d="M104.56 33.74h42.88v52.8h-42.88z" fill="#fff" fill-opacity="0"/><path d="M145.27 79.64h-4.5L125.9 49.78l-14.85 29.86h-4.35l18.87-39.05h.7" fill="#3a414a"/><path d="M81 63.5H28.5" stroke="#3a414a" stroke-width="5" stroke-linejoin="round" fill="none"/><path d="M83.5 63.47l.1 2.53h-2.67v-5h2.72z" stroke="#3a414a" stroke-width=".05" fill="#3a414a"/><path d="M28.56 63.5H26" stroke="#3a414a" stroke-width="5" fill="none"/><path d="M157.83 31.8l1.82-1.47 3.47-1.94 3.74-1.34 5.17-.88 11.47-.15" stroke="#3a414a" stroke-width="5" stroke-linejoin="round" fill="none"/><path d="M159.45 33.7l-1.84 1.48-2.63-2.8-.93-.74 2.27-1.83zM188.97 23.5H186v5h.02l-2.55.03-.07-5 5.57-.07z" stroke="#3a414a" stroke-width=".05" fill="#3a414a"/><path d="M160.2 92.64l5.58 3.9 5.52 2.44 6.16 1.47 6.05.4" stroke="#3a414a" stroke-width="5" stroke-linejoin="round" fill="none"/><path d="M161.67 90.63l-2.86 4.1-2.35-1.64.66-.63 2.62-3.2zM186.08 98.5H186v5h2.84v.2l-5.56-.37.32-5z" stroke="#3a414a" stroke-width=".05" fill="#3a414a"/></g></svg>