<svg xmlns="http://www.w3.org/2000/svg" xmlns:lucid="lucid" width="557.5" height="315.66"><g lucid:page-tab-id="tzDfQyb1wR48"><path d="M160 98v118l80-59z" stroke="#3a414a" stroke-width="5" fill-opacity="0"/><path d="M162.52 130.6h52.93v52.8h-52.93z" fill="#fff" fill-opacity="0"/><path d="M187.6 158l.98.9c-4.84 5.95-9.54 7.6-13.83 7.6-6.77 0-9.47-5.8-9.47-10.77 0-1.6.07-2.56.42-4.15 1.73-7.67 9.33-16.3 18.1-16.3 2.9 0 7.06.96 7.06 5.24 0 8.78-11.55 12.17-19.77 12.58v1.94c0 4.42 3.58 7.4 7.8 7.4 2.9 0 6.22-1.25 8.7-4.43m-16.5-6.83h.6c7.2 0 13.7-4.77 13.7-10.85 0-1.73-1.32-2.98-3.04-2.98-5.12 0-9.27 7.95-11.27 13.83M205.83 148.46c0 1.27-1.07 2.25-2.34 2.25-1.43 0-2.36-.97-2.36-2.24 0-1.22.93-2.44 2.35-2.44 1.26 0 2.33 1.22 2.33 2.44m-1.46 6.1l-4.5 17.8c-.05.3-.05.48-.05.68 0 .34.3.5.64.5 1.07 0 1.37-.6 3.13-2.5l.62.48c-1.7 2.2-4.15 5.13-6.55 5.13-1.36 0-1.95-.92-1.95-2.24 0-.58 0-1.5 3.86-16.5.05-.1.1-.45.1-.6 0-.83-.4-1.07-1.52-1.07-.44 0-1.02.1-1.37.2l-.15-.8" fill="#3a414a"/><path d="M79.06 146.54l-18.1-13.82-4.67-2.4-4.27-1.58-4.46-1.05-5.07-.55" stroke="#3a414a" stroke-width="5" stroke-linejoin="round" fill="none"/><path d="M83.07 146.45l-1.92 1.48-1.62 2.1-2.04-1.54 3.03-4zM42.62 124.64l-.12 5-2.53-.06H40v-5h-2.94v-.07z" stroke="#3a414a" stroke-width=".05" fill="#3a414a"/><path d="M79.65 167.48l-10.1 9.23-5.65 3.95-4.7 2.48-4.56 1.74-4.95 1.22-5.93.7-1.27.05" stroke="#3a414a" stroke-width="5" stroke-linejoin="round" fill="none"/><path d="M79.9 164.18l2.7 2.72.9.45-2.2 2.02-3.4-3.7 1.88-1.7zM42.64 189.34l-5.56.17v-.08H40v-5h-.04l2.53-.08z" stroke="#3a414a" stroke-width=".05" fill="#3a414a"/><path d="M100 156.78c0 5.53-4.48 10-10 10s-10-4.47-10-10c0-5.52 4.48-10 10-10s10 4.48 10 10z" stroke="#3a414a" stroke-width="5" fill="#3a414a"/><path d="M21.25 125.83h17.5v2.5h-17.5zM21.25 185.67h17.5v2.5h-17.5z" stroke="#3a414a" stroke-width="2.5" fill="none"/><path d="M155 157h-50" stroke="#3a414a" stroke-width="5" fill="none"/><path d="M157.5 159.5h-2.56v-5h2.56zM105.06 159.5h-2.97l.43-2.68-.3-2.32h2.83z" stroke="#3a414a" stroke-width=".05" fill="#3a414a"/><path d="M296.7 138h47.37v39.66H296.7z" fill="#fff" fill-opacity="0"/><path d="M340.72 151.03h-40.7v-4.56h40.7v4.56m0 13.82h-40.7v-4.56h40.7v4.55" fill="#3a414a"/><path d="M457.5 20v118l80-59z" stroke="#3a414a" stroke-width="5" fill-opacity="0"/><path d="M460.02 52.6h52.93v52.8h-52.93z" fill="#fff" fill-opacity="0"/><path d="M485.1 80l.98.9c-4.84 5.95-9.54 7.6-13.82 7.6-6.78 0-9.47-5.8-9.47-10.77 0-1.6.06-2.56.4-4.15 1.73-7.67 9.33-16.3 18.1-16.3 2.9 0 7.06.96 7.06 5.24 0 8.78-11.54 12.17-19.77 12.58v1.94c0 4.42 3.6 7.4 7.8 7.4 2.9 0 6.22-1.25 8.7-4.43m-16.5-6.83h.6c7.2 0 13.7-4.77 13.7-10.85 0-1.73-1.3-2.98-3.04-2.98-5.12 0-9.26 7.95-11.27 13.83M503.34 70.46c0 1.27-1.08 2.25-2.35 2.25-1.43 0-2.35-.97-2.35-2.24 0-1.22.92-2.44 2.34-2.44 1.26 0 2.34 1.22 2.34 2.44m-1.47 6.1l-4.5 17.8c-.04.3-.04.48-.04.68 0 .34.3.5.63.5 1.08 0 1.37-.6 3.13-2.5l.62.48c-1.7 2.2-4.15 5.13-6.54 5.13-1.37 0-1.96-.92-1.96-2.24 0-.58 0-1.5 3.86-16.5.05-.1.1-.45.1-.6 0-.83-.4-1.07-1.52-1.07-.44 0-1.02.1-1.36.2l-.15-.8" fill="#3a414a"/><path d="M452.5 79h-50" stroke="#3a414a" stroke-width="5" fill="none"/><path d="M455 81.5h-2.56v-5H455z" stroke="#3a414a" stroke-width=".05" fill="#3a414a"/><path d="M402.56 79H400" stroke="#3a414a" stroke-width="5" fill="none"/><path d="M457.5 177.66v118l80-59z" stroke="#3a414a" stroke-width="5" fill-opacity="0"/><path d="M460.02 210.27h52.93v52.8h-52.93z" fill="#fff" fill-opacity="0"/><path d="M485.1 237.67l.98.9c-4.84 5.95-9.54 7.6-13.82 7.6-6.78 0-9.47-5.8-9.47-10.78 0-1.6.06-2.56.4-4.15 1.73-7.68 9.33-16.3 18.1-16.3 2.9 0 7.06.95 7.06 5.24 0 8.77-11.54 12.15-19.77 12.57v1.93c0 4.43 3.6 7.4 7.8 7.4 2.9 0 6.22-1.25 8.7-4.43m-16.5-6.84h.6c7.2 0 13.7-4.77 13.7-10.85 0-1.73-1.3-2.97-3.04-2.97-5.12 0-9.26 7.96-11.27 13.83M503.34 228.12c0 1.28-1.08 2.25-2.35 2.25-1.43 0-2.35-.97-2.35-2.25 0-1.22.92-2.44 2.34-2.44 1.26 0 2.34 1.22 2.34 2.44m-1.47 6.1l-4.5 17.8c-.04.3-.04.5-.04.68 0 .35.3.5.63.5 1.08 0 1.37-.6 3.13-2.5l.62.5c-1.7 2.2-4.15 5.12-6.54 5.12-1.37 0-1.96-.93-1.96-2.25 0-.58 0-1.5 3.86-16.5.05-.1.1-.45.1-.6 0-.83-.4-1.08-1.52-1.08-.44 0-1.02.1-1.36.2l-.15-.8" fill="#3a414a"/><path d="M452.5 236.66h-50" stroke="#3a414a" stroke-width="5" fill="none"/><path d="M455 239.16h-2.56v-5H455z" stroke="#3a414a" stroke-width=".05" fill="#3a414a"/><path d="M402.56 236.66H400" stroke="#3a414a" stroke-width="5" fill="none"/></g></svg>