<svg xmlns="http://www.w3.org/2000/svg" xmlns:lucid="lucid" width="186" height="111.84"><g lucid:page-tab-id="G~Cfkxw3SPp4" stroke="#3a414a"><path d="M100 55.7c0 5.53-4.48 10-10 10s-10-4.47-10-10c0-5.52 4.48-10 10-10s10 4.48 10 10z" stroke-width="5" fill="#3a414a"/><path d="M21.25 24.75h17.5v2.5h-17.5zM21.25 84.6h17.5v2.5h-17.5z" stroke-width="2.5" fill="none"/><path d="M105.02 55.7h52.48" stroke-width="5" fill="none"/><path d="M105.1 58.2h-2.97l.4-2.46-.34-2.53h2.9z" stroke-width=".05" fill="#3a414a"/><path d="M157.44 55.7H160" stroke-width="5" fill="none"/><path d="M79.06 45.46l-18.1-13.82-4.67-2.4-4.27-1.58-4.46-1.04-5.07-.55" stroke-width="5" stroke-linejoin="round" fill="none"/><path d="M83.07 45.37l-1.92 1.48-1.62 2.1-2.04-1.54 3.03-3.97zM42.62 23.56l-.12 5-2.53-.06H40v-5h-2.94v-.07z" stroke-width=".05" fill="#3a414a"/><path d="M79.65 66.4l-10.1 9.24-5.65 3.93-4.7 2.48-4.56 1.74L49.7 85l-5.93.73-1.27.04" stroke-width="5" stroke-linejoin="round" fill="none"/><path d="M79.9 63.1l2.7 2.72.9.46-2.2 2-3.4-3.68 1.88-1.7zM42.64 88.26l-5.56.17v-.1H40v-5h-.04l2.53-.06z" stroke-width=".05" fill="#3a414a"/></g></svg>