<svg xmlns="http://www.w3.org/2000/svg" xmlns:lucid="lucid" width="1786.05" height="440"><g lucid:page-tab-id="uNTZ78~KO-fL"><path d="M190.45 70c0 27.6-22.38 50-50 50-27.6 0-50-22.4-50-50s22.4-50 50-50c27.62 0 50 22.4 50 50zM190.45 370c0 27.6-22.38 50-50 50-27.6 0-50-22.4-50-50s22.4-50 50-50c27.62 0 50 22.4 50 50z" stroke="#3a414a" stroke-width="10" fill-opacity="0"/><path d="M97.04 111.4l-.97.9-4.4 4.4-4.2 4.54-3.95 4.67-3.74 4.82-3.52 4.94-3.3 5.07-3.08 5.2-2.86 5.33-2.64 5.45-2.42 5.58-2.2 5.7-1.94 5.78-1.72 5.9-1.48 6-1.24 6.1-.98 6.17-.73 6.24-.47 6.3-.2 6.33.06 6.38.33 6.4.6 6.38.86 6.38L54 248.7l1.4 6.3 1.67 6.27 1.93 6.18 2.2 6.1 2.44 6.03 2.7 5.9 2.95 5.8 3.18 5.67 3.43 5.54 3.67 5.4 3.9 5.26 4.13 5.1 4.36 4.96 4.6 4.8.57.55" stroke="#e81313" stroke-width="10" fill="none"/><path d="M101 108.32l3.37 3.15-4.04 3.7-6.76-7.36 3.86-3.54zM104.35 328.6l-2.22 1.94-3.77 4.04-.93 1.23-3.87-3.72 6.95-7.2z" stroke="#e81313" stroke-width=".05" fill="#e81313"/><path d="M140.45 130v180" stroke="#ba23f6" stroke-width="10" fill="none"/><path d="M145.45 130.13h-10v-5.37l4.97.24 4-.14 1.03-.12zM145.45 315.24l-4.96-.24-4.03.14-1.02.12v-5.4h10z" stroke="#ba23f6" stroke-width=".05" fill="#ba23f6"/><path d="M186.64 108.3l.6.45 4.28 3.72 4.1 3.86 3.88 4 3.7 4.12 3.52 4.27 3.34 4.42 3.15 4.56 3 4.7 2.77 4.86 2.6 5 2.42 5.16 2.2 5.3 2.02 5.46 1.8 5.6 1.6 5.74 1.36 5.9 1.13 6 .9 6.13.65 6.25.38 6.35.12 6.42-.15 6.5-.43 6.54-.7 6.58-1 6.58-1.26 6.56-1.53 6.53-1.82 6.47-2.1 6.4-2.35 6.3-2.62 6.17-2.86 6.04-3.1 5.9-3.33 5.74-3.57 5.58-3.76 5.4-3.98 5.2-4.18 5.02-4.36 4.82-4.54 4.62-2.1 1.98" stroke="#635dff" stroke-width="10" fill="none"/><path d="M189.86 104.45l-6.23 7.83-4.3-3.42 3.2-3.44 3.23-4.23zM189.88 335.22l-4.13 3.67-2.2-3.07-3.64-4.15-.53-.5 3.87-3.44z" stroke="#635dff" stroke-width=".05" fill="#635dff"/><path d="M489.9 70c0 27.6-22.38 50-50 50-27.6 0-50-22.4-50-50s22.4-50 50-50c27.62 0 50 22.4 50 50zM489.9 370c0 27.6-22.38 50-50 50-27.6 0-50-22.4-50-50s22.4-50 50-50c27.62 0 50 22.4 50 50z" stroke="#3a414a" stroke-width="10" fill-opacity="0"/><path d="M396.5 111.4l-.98.9-4.4 4.4-4.2 4.54-3.95 4.67-3.74 4.82-3.52 4.94-3.3 5.07-3.07 5.2-2.86 5.33-2.64 5.45-2.42 5.58-2.18 5.7-1.95 5.78-1.72 5.9-1.48 6-1.24 6.1-.98 6.17-.73 6.24-.46 6.3-.2 6.33.05 6.38.34 6.4.6 6.38.87 6.38 1.15 6.35 1.4 6.3 1.67 6.27 1.94 6.18 2.2 6.1 2.44 6.03 2.7 5.9 2.94 5.8 3.2 5.67 3.42 5.54 3.67 5.4 3.9 5.26 4.12 5.1 4.36 4.96 4.6 4.8.58.55" stroke="#e81313" stroke-width="10" fill="none"/><path d="M400.44 108.32l3.38 3.15-4.04 3.7-6.76-7.36 3.86-3.54zM403.8 328.6l-2.22 1.94-3.76 4.04-.94 1.23-3.86-3.72 6.94-7.2z" stroke="#e81313" stroke-width=".05" fill="#e81313"/><path d="M439.9 130v180" stroke="#635dff" stroke-width="10" fill="none"/><path d="M444.9 130.13h-10v-5.37l4.97.24 4-.14 1.03-.12zM444.9 315.24l-4.96-.24-4 .14-1.04.12v-5.4h10z" stroke="#635dff" stroke-width=".05" fill="#635dff"/><path d="M486.1 108.3l.58.45 4.3 3.72 4.08 3.86 3.9 4 3.7 4.12 3.5 4.27 3.35 4.42 3.16 4.56 2.98 4.7 2.8 4.86 2.6 5 2.4 5.16 2.2 5.3 2.03 5.46 1.8 5.6 1.6 5.74 1.36 5.9 1.13 6 .9 6.13.64 6.25.38 6.35.12 6.42-.15 6.5-.42 6.54-.7 6.58-1 6.58-1.26 6.56-1.55 6.53-1.82 6.47-2.1 6.4-2.35 6.3-2.62 6.17-2.86 6.04-3.1 5.9-3.33 5.74-3.56 5.58-3.76 5.4-3.97 5.2-4.17 5.02-4.36 4.82-4.55 4.62-2.1 1.98" stroke="#ba23f6" stroke-width="10" fill="none"/><path d="M489.3 104.45l-6.22 7.83-4.3-3.42 3.2-3.44 3.23-4.23zM489.33 335.22l-4.13 3.67-2.2-3.07-3.63-4.15-.54-.5 3.86-3.44z" stroke="#ba23f6" stroke-width=".05" fill="#ba23f6"/><path d="M789.9 70c0 27.6-22.38 50-50 50-27.6 0-50-22.4-50-50s22.4-50 50-50c27.62 0 50 22.4 50 50zM789.9 370c0 27.6-22.38 50-50 50-27.6 0-50-22.4-50-50s22.4-50 50-50c27.62 0 50 22.4 50 50z" stroke="#3a414a" stroke-width="10" fill-opacity="0"/><path d="M696.5 111.4l-.98.9-4.4 4.4-4.2 4.54-3.95 4.67-3.74 4.82-3.52 4.94-3.3 5.07-3.07 5.2-2.86 5.33-2.64 5.45-2.42 5.58-2.18 5.7-1.95 5.78-1.72 5.9-1.48 6-1.24 6.1-.98 6.17-.73 6.24-.46 6.3-.2 6.33.05 6.38.34 6.4.6 6.38.87 6.38 1.15 6.35 1.4 6.3 1.67 6.27 1.94 6.18 2.2 6.1 2.44 6.03 2.7 5.9 2.94 5.8 3.2 5.67 3.42 5.54 3.67 5.4 3.9 5.26 4.12 5.1 4.36 4.96 4.6 4.8.58.55" stroke="#ba23f6" stroke-width="10" fill="none"/><path d="M700.44 108.32l3.38 3.15-4.04 3.7-6.76-7.36 3.86-3.54zM703.8 328.6l-2.22 1.94-3.76 4.04-.94 1.23-3.86-3.72 6.94-7.2z" stroke="#ba23f6" stroke-width=".05" fill="#ba23f6"/><path d="M739.9 130v180" stroke="#e81313" stroke-width="10" fill="none"/><path d="M744.9 130.13h-10v-5.37l4.97.24 4-.14 1.03-.12zM744.9 315.24l-4.96-.24-4 .14-1.04.12v-5.4h10z" stroke="#e81313" stroke-width=".05" fill="#e81313"/><path d="M786.1 108.3l.58.45 4.3 3.72 4.08 3.86 3.9 4 3.7 4.12 3.5 4.27 3.35 4.42 3.16 4.56 2.98 4.7 2.8 4.86 2.6 5 2.4 5.16 2.2 5.3 2.03 5.46 1.8 5.6 1.6 5.74 1.36 5.9 1.13 6 .9 6.13.64 6.25.38 6.35.12 6.42-.15 6.5-.42 6.54-.7 6.58-1 6.58-1.26 6.56-1.55 6.53-1.82 6.47-2.1 6.4-2.35 6.3-2.62 6.17-2.86 6.04-3.1 5.9-3.33 5.74-3.56 5.58-3.76 5.4-3.97 5.2-4.17 5.02-4.36 4.82-4.55 4.62-2.1 1.98" stroke="#635dff" stroke-width="10" fill="none"/><path d="M789.3 104.45l-6.22 7.83-4.3-3.42 3.2-3.44 3.23-4.23zM789.33 335.22l-4.13 3.67-2.2-3.07-3.63-4.15-.54-.5 3.86-3.44z" stroke="#635dff" stroke-width=".05" fill="#635dff"/><path d="M1089.36 70c0 27.6-22.4 50-50 50-27.62 0-50-22.4-50-50s22.38-50 50-50c27.6 0 50 22.4 50 50zM1089.36 370c0 27.6-22.4 50-50 50-27.62 0-50-22.4-50-50s22.38-50 50-50c27.6 0 50 22.4 50 50z" stroke="#3a414a" stroke-width="10" fill-opacity="0"/><path d="M995.94 111.4l-.96.9-4.42 4.4-4.18 4.54-3.96 4.67-3.74 4.82-3.52 4.94-3.3 5.07-3.08 5.2-2.86 5.33-2.64 5.45-2.4 5.58-2.2 5.7-1.96 5.78-1.72 5.9-1.48 6-1.23 6.1-1 6.17-.72 6.24-.47 6.3-.2 6.33.06 6.38.33 6.4.6 6.38.86 6.38 1.14 6.35 1.4 6.3 1.67 6.27 1.94 6.18 2.2 6.1 2.45 6.03 2.7 5.9 2.94 5.8 3.18 5.67 3.43 5.54 3.68 5.4 3.9 5.26 4.13 5.1 4.37 4.96 4.6 4.8.56.55" stroke="#ba23f6" stroke-width="10" fill="none"/><path d="M999.9 108.32l3.37 3.15-4.04 3.7-6.76-7.36 3.86-3.54zM1003.25 328.6l-2.2 1.94-3.78 4.04-.94 1.23-3.86-3.72 6.95-7.2z" stroke="#ba23f6" stroke-width=".05" fill="#ba23f6"/><path d="M1039.36 130v180" stroke="#635dff" stroke-width="10" fill="none"/><path d="M1044.36 130.13h-10v-5.37l4.96.24 4-.14 1.04-.12zM1044.36 315.24l-4.97-.24-4.02.14-1.02.12v-5.4h10z" stroke="#635dff" stroke-width=".05" fill="#635dff"/><path d="M1085.55 108.3l.58.45 4.3 3.72 4.08 3.86 3.9 4 3.7 4.12 3.53 4.27 3.33 4.42 3.16 4.56 2.97 4.7 2.78 4.86 2.6 5 2.4 5.16 2.23 5.3 2.02 5.46 1.8 5.6 1.6 5.74 1.36 5.9 1.13 6 .9 6.13.65 6.25.38 6.35.12 6.42-.15 6.5-.42 6.54-.7 6.58-1 6.58-1.26 6.56-1.55 6.53-1.82 6.47-2.1 6.4-2.35 6.3-2.6 6.17-2.88 6.04-3.1 5.9-3.33 5.74-3.56 5.58-3.77 5.4-3.97 5.2-4.17 5.02-4.36 4.82-4.55 4.62-2.1 1.98" stroke="#e81313" stroke-width="10" fill="none"/><path d="M1088.76 104.45l-6.23 7.83-4.3-3.42 3.2-3.44 3.23-4.23zM1088.8 335.22l-4.15 3.67-2.18-3.07-3.65-4.15-.54-.5 3.87-3.44z" stroke="#e81313" stroke-width=".05" fill="#e81313"/><path d="M1389.9 70c0 27.6-22.38 50-50 50-27.6 0-50-22.4-50-50s22.4-50 50-50c27.62 0 50 22.4 50 50zM1389.9 370c0 27.6-22.38 50-50 50-27.6 0-50-22.4-50-50s22.4-50 50-50c27.62 0 50 22.4 50 50z" stroke="#3a414a" stroke-width="10" fill-opacity="0"/><path d="M1296.5 111.4l-.98.9-4.4 4.4-4.2 4.54-3.95 4.67-3.74 4.82-3.52 4.94-3.3 5.07-3.07 5.2-2.86 5.33-2.64 5.45-2.42 5.58-2.18 5.7-1.95 5.78-1.72 5.9-1.48 6-1.24 6.1-.98 6.17-.73 6.24-.46 6.3-.2 6.33.05 6.38.34 6.4.6 6.38.87 6.38 1.15 6.35 1.4 6.3 1.67 6.27 1.94 6.18 2.2 6.1 2.44 6.03 2.7 5.9 2.94 5.8 3.2 5.67 3.42 5.54 3.67 5.4 3.9 5.26 4.12 5.1 4.36 4.96 4.6 4.8.58.55" stroke="#635dff" stroke-width="10" fill="none"/><path d="M1300.44 108.32l3.38 3.15-4.04 3.7-6.76-7.36 3.86-3.54zM1303.8 328.6l-2.22 1.94-3.76 4.04-.94 1.23-3.86-3.72 6.94-7.2z" stroke="#635dff" stroke-width=".05" fill="#635dff"/><path d="M1339.9 130v180" stroke="#e81313" stroke-width="10" fill="none"/><path d="M1344.9 130.13h-10v-5.37l4.97.24 4-.14 1.03-.12zM1344.9 315.24l-4.96-.24-4 .14-1.04.12v-5.4h10z" stroke="#e81313" stroke-width=".05" fill="#e81313"/><path d="M1386.1 108.3l.58.45 4.3 3.72 4.08 3.86 3.9 4 3.7 4.12 3.5 4.27 3.35 4.42 3.16 4.56 2.98 4.7 2.8 4.86 2.6 5 2.4 5.16 2.2 5.3 2.03 5.46 1.8 5.6 1.6 5.74 1.36 5.9 1.13 6 .9 6.13.64 6.25.38 6.35.12 6.42-.15 6.5-.42 6.54-.7 6.58-1 6.58-1.26 6.56-1.55 6.53-1.82 6.47-2.1 6.4-2.35 6.3-2.62 6.17-2.86 6.04-3.1 5.9-3.33 5.74-3.56 5.58-3.76 5.4-3.97 5.2-4.17 5.02-4.36 4.82-4.55 4.62-2.1 1.98" stroke="#ba23f6" stroke-width="10" fill="none"/><path d="M1389.3 104.45l-6.22 7.83-4.3-3.42 3.2-3.44 3.23-4.23zM1389.33 335.22l-4.13 3.67-2.2-3.07-3.63-4.15-.54-.5 3.86-3.44z" stroke="#ba23f6" stroke-width=".05" fill="#ba23f6"/><path d="M1689.36 70c0 27.6-22.4 50-50 50-27.62 0-50-22.4-50-50s22.38-50 50-50c27.6 0 50 22.4 50 50zM1689.36 370c0 27.6-22.4 50-50 50-27.62 0-50-22.4-50-50s22.38-50 50-50c27.6 0 50 22.4 50 50z" stroke="#3a414a" stroke-width="10" fill-opacity="0"/><path d="M1595.94 111.4l-.96.9-4.42 4.4-4.18 4.54-3.96 4.67-3.74 4.82-3.52 4.94-3.3 5.07-3.08 5.2-2.86 5.33-2.64 5.45-2.4 5.58-2.2 5.7-1.96 5.78-1.72 5.9-1.48 6-1.23 6.1-1 6.17-.72 6.24-.47 6.3-.2 6.33.06 6.38.33 6.4.6 6.38.86 6.38 1.14 6.35 1.4 6.3 1.67 6.27 1.94 6.18 2.2 6.1 2.45 6.03 2.7 5.9 2.94 5.8 3.18 5.67 3.43 5.54 3.68 5.4 3.9 5.26 4.13 5.1 4.37 4.96 4.6 4.8.56.55" stroke="#635dff" stroke-width="10" fill="none"/><path d="M1599.9 108.32l3.37 3.15-4.04 3.7-6.76-7.36 3.86-3.54zM1603.25 328.6l-2.2 1.94-3.78 4.04-.94 1.23-3.86-3.72 6.95-7.2z" stroke="#635dff" stroke-width=".05" fill="#635dff"/><path d="M1639.36 130v180" stroke="#ba23f6" stroke-width="10" fill="none"/><path d="M1644.36 130.13h-10v-5.37l4.96.24 4-.14 1.04-.12zM1644.36 315.24l-4.97-.24-4.02.14-1.02.12v-5.4h10z" stroke="#ba23f6" stroke-width=".05" fill="#ba23f6"/><path d="M1685.55 108.3l.58.45 4.3 3.72 4.08 3.86 3.9 4 3.7 4.12 3.53 4.27 3.33 4.42 3.16 4.56 2.97 4.7 2.78 4.86 2.6 5 2.4 5.16 2.23 5.3 2.02 5.46 1.8 5.6 1.6 5.74 1.36 5.9 1.13 6 .9 6.13.65 6.25.38 6.35.12 6.42-.15 6.5-.42 6.54-.7 6.58-1 6.58-1.26 6.56-1.55 6.53-1.82 6.47-2.1 6.4-2.35 6.3-2.6 6.17-2.88 6.04-3.1 5.9-3.33 5.74-3.56 5.58-3.77 5.4-3.97 5.2-4.17 5.02-4.36 4.82-4.55 4.62-2.1 1.98" stroke="#e81313" stroke-width="10" fill="none"/><path d="M1688.76 104.45l-6.23 7.83-4.3-3.42 3.2-3.44 3.23-4.23zM1688.8 335.22l-4.15 3.67-2.18-3.07-3.65-4.15-.54-.5 3.87-3.44z" stroke="#e81313" stroke-width=".05" fill="#e81313"/></g></svg>