<svg xmlns="http://www.w3.org/2000/svg" xmlns:lucid="lucid" width="318.11" height="440"><g lucid:page-tab-id="aiUZ5Vt1pIPS"><path d="M198.76 70c0 27.6-22.4 50-50 50s-50-22.4-50-50 22.4-50 50-50 50 22.4 50 50zM198.76 370c0 27.6-22.4 50-50 50s-50-22.4-50-50 22.4-50 50-50 50 22.4 50 50z" stroke="#3a414a" stroke-width="10" fill-opacity="0"/><path d="M105.35 111.4l-.97.9-4.4 4.4-4.2 4.54-3.96 4.67-3.73 4.82-3.53 4.94-3.3 5.07-3.08 5.2-2.87 5.33-2.64 5.45-2.43 5.58-2.2 5.7-1.95 5.78-1.72 5.9-1.48 6-1.23 6.1-1 6.17-.72 6.24-.47 6.3-.2 6.33.07 6.38.33 6.4.6 6.38.87 6.38 1.13 6.35 1.4 6.3 1.68 6.27 1.93 6.18 2.2 6.1 2.45 6.03 2.7 5.9 2.95 5.8 3.2 5.67 3.42 5.54 3.66 5.4 3.9 5.26 4.13 5.1 4.37 4.96 4.6 4.8.57.55" stroke="#3a414a" stroke-width="10" fill="none"/><path d="M109.3 108.32l3.37 3.15-4.04 3.7-6.76-7.36 3.86-3.54zM112.65 328.6l-2.2 1.94-3.78 4.04-.93 1.23-3.87-3.72 6.95-7.2z" stroke="#3a414a" stroke-width=".05" fill="#3a414a"/><path d="M148.76 130v180" stroke="#3a414a" stroke-width="10" fill="none"/><path d="M153.76 130.13h-10v-5.37l4.96.24 4.02-.14 1.02-.12zM153.76 315.24l-4.96-.24-4.02.14-1.02.12v-5.4h10z" stroke="#3a414a" stroke-width=".05" fill="#3a414a"/><path d="M194.95 108.3l.6.45 4.28 3.72 4.08 3.86 3.9 4 3.7 4.12 3.53 4.27 3.34 4.42 3.15 4.56 2.97 4.7 2.78 4.86 2.6 5 2.4 5.16 2.23 5.3 2.02 5.46 1.8 5.6 1.6 5.74 1.37 5.9 1.12 6 .9 6.13.63 6.25.4 6.35.1 6.42-.14 6.5-.42 6.54-.7 6.58-1 6.58-1.26 6.56-1.54 6.53-1.83 6.47-2.1 6.4-2.35 6.3-2.6 6.17-2.87 6.04-3.1 5.9-3.34 5.74-3.56 5.58-3.77 5.4-3.97 5.2-4.17 5.02-4.36 4.82-4.54 4.62-2.12 1.98" stroke="#3a414a" stroke-width="10" fill="none"/><path d="M198.16 104.45l-6.22 7.83-4.3-3.42 3.2-3.44 3.22-4.23zM198.2 335.22l-4.14 3.67-2.2-3.07-3.64-4.15-.54-.5 3.87-3.44z" stroke="#3a414a" stroke-width=".05" fill="#3a414a"/><path d="M125.95 40h45.62v60h-45.62z" fill="#fff" fill-opacity="0"/><path d="M167.76 52.85l-1.32.76c-2.36-3.38-5.65-4.42-11.3-4.42-5.93 0-13.1 4.14-13.1 10.64 0 3 3.12 4.8 7.36 4.8 1.97 0 3.48-.84 5.83-.84 2.07 0 3.58.66 3.58 1.88 0 1.6-.93 2.92-4.04 2.92-.85 0-3.76-.57-5.74-.57-4.62 0-12.53 3.12-12.53 9.7 0 5.76 6.12 7.36 11.77 7.36 5 0 11.1-2.45 14.2-6.88l1.24.94c-3.95 5.56-9.3 9.8-19.77 9.8-11.67 0-15.63-4.7-15.63-9.6 0-6.88 4.62-11.3 10.93-12.9-3.3-1.14-5.47-3.1-5.47-6.22 0-7.63 7.82-13.84 21.2-13.84 5.83 0 11.57 3.1 12.8 6.5"/><path d="M125.95 340h45.62v60h-45.62z" fill="#fff" fill-opacity="0"/><path d="M167.76 352.85l-1.32.76c-2.36-3.38-5.65-4.42-11.3-4.42-5.93 0-13.1 4.14-13.1 10.64 0 3 3.12 4.8 7.36 4.8 1.97 0 3.48-.84 5.83-.84 2.07 0 3.58.66 3.58 1.88 0 1.6-.93 2.92-4.04 2.92-.85 0-3.76-.57-5.74-.57-4.62 0-12.53 3.12-12.53 9.7 0 5.76 6.12 7.36 11.77 7.36 5 0 11.1-2.45 14.2-6.88l1.24.94c-3.95 5.56-9.3 9.8-19.77 9.8-11.67 0-15.63-4.7-15.63-9.6 0-6.88 4.62-11.3 10.93-12.9-3.3-1.14-5.47-3.1-5.47-6.22 0-7.63 7.82-13.84 21.2-13.84 5.83 0 11.57 3.1 12.8 6.5"/><path d="M20 182.3h22.6v60H20z" fill="#fff" fill-opacity="0"/><path d="M38.64 191.9c0 1.9-1.6 3.34-3.48 3.34-2.1 0-3.48-1.45-3.48-3.33 0-1.8 1.38-3.62 3.48-3.62 1.9 0 3.48 1.8 3.48 3.63M36.47 201l-6.68 26.4c-.08.44-.08.73-.08 1.02 0 .5.44.72.94.72 1.6 0 2.03-.87 4.65-3.7l.95.73c-2.54 3.26-6.17 7.6-9.72 7.6-2.03 0-2.9-1.36-2.9-3.32 0-.87 0-2.25 5.73-24.52.07-.14.14-.64.14-.86 0-1.24-.58-1.6-2.25-1.6-.65 0-1.52.15-2.03.3l-.2-1.17"/><path d="M158.76 180h29.38v69.2h-29.38z" fill="#fff" fill-opacity="0"/><path d="M186.87 189.6c0 1.9-1.6 3.35-3.48 3.35-2.12 0-3.5-1.45-3.5-3.34 0-1.8 1.38-3.62 3.5-3.62 1.87 0 3.47 1.82 3.47 3.63m-1.52 9.08l-7.84 30.83c-1.58 6.4-5.65 14.74-13.48 14.74-3.85 0-5.3-2.4-5.3-4.43 0-1.58.87-3.76 3.4-3.76 1.4 0 2.55 1.1 2.55 2.76 0 1.08-1.16 1.3-1.16 2.46 0 .3.37.73.74.73 3.33 0 5.73-5.53 7.47-12.5l6.68-26.32c0-.87-.72-1.6-2.32-1.6-.58 0-1.45.15-1.96.36l-.22-1.23"/><path d="M258.76 180h39.35v64.6h-39.34z" fill="#fff" fill-opacity="0"/><path d="M297 204.2l-.3.9c-4.86.5-6.9 1.8-9.65 4.2l-7.7 6.67L284 227c1.1 2.53 1.96 4.27 3.85 4.27 2.18 0 3.77-3.12 5.37-5.3l1.1.8c-.9 1.53-4.3 9.3-9.23 9.3-3.34 0-4.87-3.85-5.67-5.74l-4.57-10.66-4.06 3.55-3.26 12.04h-5.52l10.74-42.72c.15-.44.22-.95.22-1.46 0-.8-.73-1.6-2.32-1.6-.66 0-1.38 0-1.96.15l-.22-1 11.46-1.83-8.2 33.08 12.12-10.8c.8-.73 1.52-1.67 1.52-2.62 0-.87-1.16-1.37-1.88-1.37h-.87l.3-.9h14.06"/></g></svg>