<svg xmlns="http://www.w3.org/2000/svg" xmlns:lucid="lucid" width="287.15" height="440"><g lucid:page-tab-id="0_0" stroke="#3a414a"><path d="M190.45 70c0 27.6-22.38 50-50 50-27.6 0-50-22.4-50-50s22.4-50 50-50c27.62 0 50 22.4 50 50zM190.45 370c0 27.6-22.38 50-50 50-27.6 0-50-22.4-50-50s22.4-50 50-50c27.62 0 50 22.4 50 50z" stroke-width="10" fill-opacity="0"/><path d="M97.04 111.4l-.97.9-4.4 4.4-4.2 4.54-3.95 4.67-3.74 4.82-3.52 4.94-3.3 5.07-3.08 5.2-2.86 5.33-2.64 5.45-2.42 5.58-2.2 5.7-1.94 5.78-1.72 5.9-1.48 6-1.24 6.1-.98 6.17-.73 6.24-.47 6.3-.2 6.33.06 6.38.33 6.4.6 6.38.86 6.38L54 248.7l1.4 6.3 1.67 6.27 1.93 6.18 2.2 6.1 2.44 6.03 2.7 5.9 2.95 5.8 3.18 5.67 3.43 5.54 3.67 5.4 3.9 5.26 4.13 5.1 4.36 4.96 4.6 4.8.57.55" stroke-width="10" fill="none"/><path d="M101 108.32l3.37 3.15-4.04 3.7-6.76-7.36 3.86-3.54zM104.35 328.6l-2.22 1.94-3.77 4.04-.93 1.23-3.87-3.72 6.95-7.2z" stroke-width=".05" fill="#3a414a"/><path d="M140.45 130v180" stroke-width="10" fill="none"/><path d="M145.45 130.13h-10v-5.37l4.97.24 4-.14 1.03-.12zM145.45 315.24l-4.96-.24-4.03.14-1.02.12v-5.4h10z" stroke-width=".05" fill="#3a414a"/><path d="M186.64 108.3l.6.45 4.28 3.72 4.1 3.86 3.88 4 3.7 4.12 3.52 4.27 3.34 4.42 3.15 4.56 3 4.7 2.77 4.86 2.6 5 2.42 5.16 2.2 5.3 2.02 5.46 1.8 5.6 1.6 5.74 1.36 5.9 1.13 6 .9 6.13.65 6.25.38 6.35.12 6.42-.15 6.5-.43 6.54-.7 6.58-1 6.58-1.26 6.56-1.53 6.53-1.82 6.47-2.1 6.4-2.35 6.3-2.62 6.17-2.86 6.04-3.1 5.9-3.33 5.74-3.57 5.58-3.76 5.4-3.98 5.2-4.18 5.02-4.36 4.82-4.54 4.62-2.1 1.98" stroke-width="10" fill="none"/><path d="M189.86 104.45l-6.23 7.83-4.3-3.42 3.2-3.44 3.23-4.23zM189.88 335.22l-4.13 3.67-2.2-3.07-3.64-4.15-.53-.5 3.87-3.44z" stroke-width=".05" fill="#3a414a"/></g></svg>