<svg xmlns="http://www.w3.org/2000/svg" xmlns:lucid="lucid" width="723.5" height="261.5"><g lucid:page-tab-id="Fjeftjf.mxoI"><path d="M240 103.5c0 22.1-17.9 40-40 40s-40-17.9-40-40 17.9-40 40-40 40 17.9 40 40zm-80 0h80m-40-40v80M319.8 123.5v118l80-59z" stroke="#3a414a" stroke-width="5" fill-opacity="0"/><path d="M319.8 156.1h62.16v52.8H319.8z" fill="#fff" fill-opacity="0"/><path d="M344.88 183.5l.97.9c-4.84 5.95-9.54 7.6-13.82 7.6-6.77 0-9.47-5.8-9.47-10.77 0-1.6.07-2.56.42-4.15 1.72-7.67 9.33-16.3 18.1-16.3 2.9 0 7.05.96 7.05 5.24 0 8.78-11.54 12.17-19.76 12.58v1.94c0 4.42 3.6 7.4 7.8 7.4 2.9 0 6.23-1.25 8.7-4.43m-16.5-6.83h.62c7.18 0 13.67-4.77 13.67-10.85 0-1.73-1.3-2.98-3.04-2.98-5.1 0-9.26 7.95-11.26 13.83M373.8 185.5c0 8.4-3.07 16.8-11.03 16.8-8.36 0-11.05-9.1-11.05-17.1 0-8.65 3.38-16.6 11.24-16.6 6.4 0 10.85 6.87 10.85 16.9m-4.68.24c0-10.17-2.15-15.88-6.45-15.88-4.06 0-6.25 5.76-6.25 15.68s2.15 15.5 6.35 15.5c4.15 0 6.35-5.63 6.35-15.3" fill="#3a414a"/><path d="M314.8 182.43l-3.7-.1-5.53-.48-5-.73-4.64-.95-4.37-1.17-4.2-1.38-4.1-1.63-4.1-1.9-4.2-2.26-4.4-2.7-4.8-3.37-5.6-4.4-7.26-6.46-15.77-15.9-4.38-4.64" stroke="#3a414a" stroke-width="5" stroke-linejoin="round" fill="none"/><path d="M317.3 180v5l-2.64-.07.14-5zM234.6 132.7l-3.63 3.42-1.76-1.86 1.9-1.8 1.54-1.86z" stroke="#3a414a" stroke-width=".05" fill="#3a414a"/><path d="M456.2 85.86h47.4v39.67h-47.4z" fill="#fff" fill-opacity="0"/><path d="M500.23 98.9h-40.7v-4.57h40.7v4.56m0 13.8h-40.7v-4.55h40.7v4.56" fill="#3a414a"/><path d="M100 162.5v-118l-80 59z" stroke="#3a414a" stroke-width="5" fill-opacity="0"/><path d="M46.77 55.22h62.16v74.67H46.77z" fill="#fff" fill-opacity="0"/><path d="M71.86 113.27l.97.9c-4.84 5.94-9.54 7.6-13.83 7.6-6.77 0-9.46-5.8-9.46-10.78 0-1.6.07-2.57.4-4.16 1.74-7.67 9.34-16.3 18.12-16.3 2.9 0 7.05.95 7.05 5.24 0 8.78-11.53 12.16-19.76 12.58v1.93c0 4.42 3.6 7.4 7.8 7.4 2.9 0 6.23-1.25 8.72-4.43m-16.52-6.85h.62c7.2 0 13.7-4.77 13.7-10.85 0-1.73-1.32-2.97-3.05-2.97-5.1 0-9.25 7.95-11.26 13.82M96.78 96h-13.5v-.75c3.63-.2 4.66-1.22 4.66-3.9V69.4c0-1.66-.44-2.4-1.47-2.4-.5 0-1.32.26-2.2.6l-1.32.5v-.7l8.75-4.44.44.14v29.17c0 2.1.98 2.98 4.64 2.98V96" fill="#3a414a"/><path d="M155 103.5h-50" stroke="#3a414a" stroke-width="5" fill="none"/><path d="M157.5 103.47l.1 2.53h-2.67v-5h2.72zM105.06 106h-2.56v-5h2.56z" stroke="#3a414a" stroke-width=".05" fill="#3a414a"/><path d="M301.25 24.75h17.5v2.5h-17.5z" stroke="#3a414a" stroke-width="2.5" fill="none"/><path d="M232.33 72.3l9.48-9.7 18.55-19.88 4.78-4.22 3.88-2.95 3.48-2.27 3.3-1.82 3.23-1.5 3.28-1.23 3.4-1 3.6-.8 3.9-.57 4.32-.3" stroke="#3a414a" stroke-width="5" stroke-linejoin="round" fill="none"/><path d="M234.17 74l-1.86 1.92-3.33-3.53-.12-.1 1.74-1.78zM302.95 23.5H300v5h.02l-2.54.05-.1-5 5.57-.1z" stroke="#3a414a" stroke-width=".05" fill="#3a414a"/><path d="M640 162.5v-118l-80 59z" stroke="#3a414a" stroke-width="5" fill-opacity="0"/><path d="M586.77 55.22h62.16v74.67h-62.16z" fill="#fff" fill-opacity="0"/><path d="M611.86 113.27l.97.9c-4.84 5.94-9.54 7.6-13.83 7.6-6.77 0-9.46-5.8-9.46-10.78 0-1.6.07-2.57.4-4.16 1.74-7.67 9.34-16.3 18.12-16.3 2.9 0 7.05.95 7.05 5.24 0 8.78-11.53 12.16-19.76 12.58v1.93c0 4.42 3.6 7.4 7.8 7.4 2.9 0 6.23-1.25 8.72-4.43m-16.52-6.85h.62c7.2 0 13.7-4.77 13.7-10.85 0-1.73-1.32-2.97-3.05-2.97-5.1 0-9.25 7.95-11.26 13.82M636.78 96h-13.5v-.75c3.63-.2 4.66-1.22 4.66-3.9V69.4c0-1.66-.44-2.4-1.47-2.4-.5 0-1.32.26-2.2.6l-1.32.5v-.7l8.75-4.44.44.14v29.17c0 2.1.98 2.98 4.64 2.98V96" fill="#3a414a"/><path d="M695 103.5h-50M694.93 103.5h2.57" stroke="#3a414a" stroke-width="5" fill="none"/><path d="M645.06 106h-2.56v-5h2.56z" stroke="#3a414a" stroke-width=".05" fill="#3a414a"/></g></svg>