<svg xmlns="http://www.w3.org/2000/svg" xmlns:lucid="lucid" width="620" height="206.96"><g lucid:page-tab-id="bLSf9YueOrpj"><path d="M240 103.5c0 22.1-17.9 40-40 40s-40-17.9-40-40 17.9-40 40-40 40 17.9 40 40zm-80 0h80m-40-40v80" stroke="#3a414a" stroke-width="5" fill-opacity="0"/><path d="M297.5 180.87l-2.34-.08-4.3-.48-3.9-.7-3.6-.95-3.45-1.16-3.34-1.4-3.35-1.7-3.44-2.1-3.7-2.63-4.24-3.5-5.5-5.26-23.63-26.5" stroke="#3a414a" stroke-width="5" stroke-linejoin="round" fill="none"/><path d="M300.04 178.46H300v5h2.9v.1l-5.55-.2.18-5zM234.6 132.8l-3.73 3.32-1.66-1.86 1.9-1.8 1.54-1.86z" stroke="#3a414a" stroke-width=".05" fill="#3a414a"/><path d="M100 162.5v-118l-80 59z" stroke="#3a414a" stroke-width="5" fill-opacity="0"/><path d="M46.77 55.22h62.16v74.67H46.77z" fill="#fff" fill-opacity="0"/><path d="M71.86 113.27l.97.9c-4.84 5.94-9.54 7.6-13.83 7.6-6.77 0-9.46-5.8-9.46-10.78 0-1.6.07-2.57.4-4.16 1.74-7.67 9.34-16.3 18.12-16.3 2.9 0 7.05.95 7.05 5.24 0 8.78-11.53 12.16-19.76 12.58v1.93c0 4.42 3.6 7.4 7.8 7.4 2.9 0 6.23-1.25 8.72-4.43m-16.52-6.85h.62c7.2 0 13.7-4.77 13.7-10.85 0-1.73-1.32-2.97-3.05-2.97-5.1 0-9.25 7.95-11.26 13.82M96.78 96h-13.5v-.75c3.63-.2 4.66-1.22 4.66-3.9V69.4c0-1.66-.44-2.4-1.47-2.4-.5 0-1.32.26-2.2.6l-1.32.5v-.7l8.75-4.44.44.14v29.17c0 2.1.98 2.98 4.64 2.98V96" fill="#3a414a"/><path d="M155 103.5h-50" stroke="#3a414a" stroke-width="5" fill="none"/><path d="M157.5 103.47l.1 2.53h-2.67v-5h2.72zM105.06 106h-2.56v-5h2.56z" stroke="#3a414a" stroke-width=".05" fill="#3a414a"/><path d="M301.25 24.75h17.5v2.5h-17.5z" stroke="#3a414a" stroke-width="2.5" fill="none"/><path d="M232.33 72.3l9.48-9.7 18.55-19.88 4.78-4.22 3.88-2.95 3.48-2.27 3.3-1.82 3.23-1.5 3.28-1.23 3.4-1 3.6-.8 3.9-.57 4.32-.3" stroke="#3a414a" stroke-width="5" stroke-linejoin="round" fill="none"/><path d="M234.17 74l-1.86 1.92-3.33-3.53-.12-.1 1.74-1.78zM302.95 23.5H300v5h.02l-2.54.05-.1-5 5.57-.1z" stroke="#3a414a" stroke-width=".05" fill="#3a414a"/><path d="M301.25 179.7h17.5v2.5h-17.5z" stroke="#3a414a" stroke-width="2.5" fill="none"/><path d="M460 103.5c0 22.1-17.9 40-40 40s-40-17.9-40-40 17.9-40 40-40 40 17.9 40 40zm-80 0h80m-40-40v80" stroke="#3a414a" stroke-width="5" fill-opacity="0"/><path d="M388.96 71.03l-25.6-27.35-5.07-4.33-4.2-3.1-3.8-2.42-3.6-1.95-3.55-1.6-3.6-1.34-3.74-1.08-3.97-.86-4.34-.6-4.84-.35h-.16" stroke="#3a414a" stroke-width="5" stroke-linejoin="round" fill="none"/><path d="M392.48 71.13l-3.6 3.4-.02.05-1.77-1.9 3.64-3.4zM322.6 23.55l-.08 5-2.54-.05h.02v-5h-2.96v-.05z" stroke="#3a414a" stroke-width=".05" fill="#3a414a"/><path d="M388.9 136l-31.27 31.3-4.28 3.28-3.75 2.46-3.5 1.96-3.42 1.6-3.42 1.32-3.54 1.1-3.73.85-4.04.63-4.47.38-1 .02" stroke="#3a414a" stroke-width="5" stroke-linejoin="round" fill="none"/><path d="M391.03 134.6l1.53 1.26-1.94 1.94-3.53-3.53 1.85-1.87zM322.62 183.4l-5.56.13v-.07H320v-5h-.03l2.53-.06z" stroke="#3a414a" stroke-width=".05" fill="#3a414a"/><path d="M520 44.5v118l80-59z" stroke="#3a414a" stroke-width="5" fill-opacity="0"/><path d="M520 77.1h62.16v52.8H520z" fill="#fff" fill-opacity="0"/><path d="M545.1 104.5l.96.9c-4.84 5.95-9.54 7.6-13.83 7.6-6.77 0-9.47-5.8-9.47-10.77 0-1.6.07-2.56.42-4.15 1.73-7.67 9.33-16.3 18.1-16.3 2.9 0 7.06.96 7.06 5.24 0 8.78-11.55 12.17-19.77 12.58v1.94c0 4.42 3.6 7.4 7.8 7.4 2.9 0 6.23-1.25 8.72-4.43m-16.53-6.83h.62c7.18 0 13.68-4.77 13.68-10.85 0-1.73-1.32-2.98-3.04-2.98-5.12 0-9.27 7.95-11.27 13.83M570 122.62h-13.48v-.74c3.62-.2 4.64-1.22 4.64-3.9V96.04c0-1.67-.44-2.4-1.46-2.4-.5 0-1.32.25-2.2.6l-1.32.48v-.7l8.75-4.43.44.13v29.17c0 2.1.97 2.98 4.64 2.98v.74" fill="#3a414a"/><path d="M465 103.5h50" stroke="#3a414a" stroke-width="5" stroke-linejoin="round" fill="none"/><path d="M465.07 106h-2.72l.15-2.47-.1-2.53h2.67zM517.5 106h-2.56v-5h2.56z" stroke="#3a414a" stroke-width=".05" fill="#3a414a"/></g></svg>