<svg xmlns="http://www.w3.org/2000/svg" xmlns:lucid="lucid" width="246" height="127"><g lucid:page-tab-id="0_0" stroke="#3a414a"><path d="M166 63.5c0 22.1-17.9 40-40 40s-40-17.9-40-40 17.9-40 40-40 40 17.9 40 40zm-80 0h80m-40-40v80" stroke-width="5" fill-opacity="0"/><path d="M81 63.5H28.5" stroke-width="5" fill="none"/><path d="M83.5 63.47l.1 2.53h-2.67v-5h2.72z" stroke-width=".05" fill="#3a414a"/><path d="M28.56 63.5H26" stroke-width="5" fill="none"/><path d="M187.25 24.75h37.5v2.5h-37.5zM187.25 99.75h37.5v2.5h-37.5z" stroke-width="2.5" fill="none"/><path d="M158.3 32.3l2.1-1.7 3.7-2.05 4.04-1.4 5.83-.93 9.53-.17" stroke-width="5" stroke-linejoin="round" fill="none"/><path d="M159.92 34.2l-1.84 1.48-3.1-3.3-.4-.3 2.2-1.78zM188.95 23.5H186v5h.02l-2.54.05-.1-5 5.57-.1z" stroke-width=".05" fill="#3a414a"/><path d="M158.78 94.3l1.8 1.62 3.4 2.12 3.7 1.48 5.04 1.05 10.78.35" stroke-width="5" stroke-linejoin="round" fill="none"/><path d="M160.5 92.5l-3.34 3.7-2.06-1.83 2-1.9 1.43-1.74zM186.04 98.5H186v5h2.92v.1l-5.56-.18.16-5z" stroke-width=".05" fill="#3a414a"/></g></svg>