<svg xmlns="http://www.w3.org/2000/svg" xmlns:lucid="lucid" width="246" height="127.24"><g lucid:page-tab-id="lsofd9b0R78o" stroke="#3a414a"><path d="M160 63.74c0 22.1-17.9 40-40 40s-40-17.9-40-40 17.9-40 40-40 40 17.9 40 40zm-80 0h80m-40-40v80" stroke-width="5" fill-opacity="0"/><path d="M165 63.74h52.5" stroke-width="5" fill="none"/><path d="M165.07 66.24h-2.72l.15-2.47-.1-2.53h2.67z" stroke-width=".05" fill="#3a414a"/><path d="M217.44 63.74H220" stroke-width="5" fill="none"/><path d="M21.25 25h37.5v2.5h-37.5zM21.25 100h37.5v2.5h-37.5z" stroke-width="2.5" fill="none"/><path d="M88.73 31.5l-1.15-1.05-2.83-1.8-3.02-1.3-3.73-.9-6.92-.45-8.58.18" stroke-width="5" stroke-linejoin="round" fill="none"/><path d="M92.4 31.44l-3.5 3.33-.12.14L87 33.3l3.36-3.7zM62.62 28.68l-5.57.12v-.06H60v-5h-.03l2.54-.06z" stroke-width=".05" fill="#3a414a"/><path d="M88.73 96.04l-1.53 1.23-3.22 1.82-3.44 1.24-4.5.83-13.54.06" stroke-width="5" stroke-linejoin="round" fill="none"/><path d="M91.03 94.84l1.57 1.3L90.25 98l-3.14-3.9 1.85-1.47zM62.57 103.73l-5.56.02h3v-5l2.55-.02z" stroke-width=".05" fill="#3a414a"/></g></svg>