<svg xmlns="http://www.w3.org/2000/svg" xmlns:lucid="lucid" width="700" height="340.77"><g lucid:page-tab-id="D-s9Ej1-y97m"><path d="M200 40v120l80-60z" stroke="#3a414a" stroke-width="5" fill-opacity="0"/><path d="M200 73.6h62.16v52.8H200z" fill="#fff" fill-opacity="0"/><path d="M225.1 101l.96.9c-4.84 5.95-9.54 7.6-13.83 7.6-6.77 0-9.47-5.8-9.47-10.77 0-1.6.07-2.56.42-4.15 1.73-7.67 9.33-16.3 18.1-16.3 2.9 0 7.06.96 7.06 5.24 0 8.78-11.55 12.17-19.77 12.58v1.94c0 4.42 3.6 7.4 7.8 7.4 2.9 0 6.23-1.25 8.72-4.43m-16.53-6.83h.62c7.18 0 13.68-4.77 13.68-10.85 0-1.73-1.32-2.98-3.04-2.98-5.12 0-9.27 7.95-11.27 13.83M250 119.12h-13.48v-.74c3.62-.2 4.64-1.22 4.64-3.9V92.54c0-1.67-.44-2.4-1.46-2.4-.5 0-1.32.25-2.2.6l-1.32.48v-.7l8.75-4.43.44.13v29.17c0 2.1.97 2.98 4.64 2.98v.74" fill="#3a414a"/><path d="M200 180v120l80-60z" stroke="#3a414a" stroke-width="5" fill-opacity="0"/><path d="M200 213.6h62.16v52.8H200z" fill="#fff" fill-opacity="0"/><path d="M225.1 241l.96.9c-4.84 5.95-9.54 7.6-13.83 7.6-6.77 0-9.47-5.8-9.47-10.77 0-1.6.07-2.56.42-4.15 1.73-7.67 9.33-16.3 18.1-16.3 2.9 0 7.06.96 7.06 5.24 0 8.78-11.55 12.17-19.77 12.58v1.94c0 4.42 3.6 7.4 7.8 7.4 2.9 0 6.23-1.25 8.72-4.43m-16.53-6.83h.62c7.18 0 13.68-4.77 13.68-10.85 0-1.73-1.32-2.98-3.04-2.98-5.12 0-9.27 7.95-11.27 13.83M253.92 252.42l-2.64 6.7h-19.1v-.6l8.7-9.22c4.58-4.84 6.34-8.56 6.34-12.7 0-4.46-2.64-6.9-6.8-6.9-3.5 0-5.22 1.56-7.17 6.35l-1.03-.24c1.03-5.7 4.16-9.7 10.17-9.7 5.5 0 9.03 3.75 9.03 8.6 0 3.85-1.9 7.5-6.26 12.1l-8.06 8.6h11.44c2.05 0 3.08-.53 4.7-3.27" fill="#3a414a"/><path d="M120 40v120l-80-60zM120 180v120l-80-60z" stroke="#3a414a" stroke-width="5" fill-opacity="0"/><path d="M60 51.72h62.16v74.67H60z" fill="#fff" fill-opacity="0"/><path d="M85.1 109.77l.96.9c-4.84 5.94-9.54 7.6-13.83 7.6-6.77 0-9.47-5.8-9.47-10.78 0-1.6.07-2.57.42-4.16 1.73-7.67 9.33-16.3 18.1-16.3 2.9 0 7.06.95 7.06 5.24 0 8.78-11.55 12.16-19.77 12.58v1.93c0 4.42 3.6 7.4 7.8 7.4 2.9 0 6.23-1.25 8.72-4.43m-16.53-6.85h.62c7.18 0 13.68-4.77 13.68-10.85 0-1.73-1.32-2.97-3.04-2.97-5.12 0-9.27 7.95-11.27 13.82M110 92.5H96.53v-.75c3.62-.2 4.64-1.22 4.64-3.9V65.9c0-1.66-.44-2.4-1.46-2.4-.5 0-1.32.26-2.2.6l-1.32.5v-.7l8.75-4.44.44.14v29.17c0 2.1.97 2.98 4.64 2.98v.74" fill="#3a414a"/><path d="M60 191.72h62.16v74.67H60z" fill="#fff" fill-opacity="0"/><path d="M85.1 249.77l.96.9c-4.84 5.94-9.54 7.6-13.83 7.6-6.77 0-9.47-5.8-9.47-10.78 0-1.6.07-2.57.42-4.16 1.73-7.67 9.33-16.3 18.1-16.3 2.9 0 7.06.95 7.06 5.24 0 8.78-11.55 12.16-19.77 12.58v1.93c0 4.42 3.6 7.4 7.8 7.4 2.9 0 6.23-1.25 8.72-4.43m-16.53-6.85h.62c7.18 0 13.68-4.77 13.68-10.85 0-1.73-1.32-2.97-3.04-2.97-5.12 0-9.27 7.95-11.27 13.82M113.92 225.8l-2.64 6.7h-19.1v-.6l8.7-9.23c4.58-4.84 6.34-8.56 6.34-12.7 0-4.46-2.64-6.9-6.8-6.9-3.5 0-5.22 1.56-7.17 6.35l-1.03-.24c1.03-5.72 4.16-9.72 10.17-9.72 5.5 0 9.03 3.76 9.03 8.6 0 3.86-1.9 7.52-6.26 12.1l-8.06 8.6h11.44c2.05 0 3.08-.52 4.7-3.26" fill="#3a414a"/><path d="M20 30a10 10 0 0 1 10-10h100a10 10 0 0 1 10 10v280a10 10 0 0 1-10 10H30a10 10 0 0 1-10-10z" fill-opacity="0"/><path d="M46.2 20.1l15.24-.02m10.16 0l15.24-.03m10.15 0l15.23-.03m10.15 0L130 20l1.56.12 1.53.37 1.44.6 1.34.8 1.2 1.03 1 1.2.83 1.33.6 1.45.38 1.54v7.67m0 10.25V61.7m.02 10.25V87.3m0 10.25v15.35m.02 10.24v15.36m0 10.24l.02 15.36m0 10.24v15.36m0 10.23l.02 15.36m0 10.23v15.36m0 10.23l.02 15.36m0 10.22v15.36m.02 10.24V310l-.12 1.56-.37 1.53-.6 1.44-.8 1.34-1.03 1.2-1.2 1-1.33.83-1.45.6-1.54.38h-7.6m-10.17.02l-15.24.02m-10.16 0l-15.24.03m-10.15 0l-15.23.03m-10.15 0L30 320l-1.56-.12-1.53-.37-1.44-.6-1.34-.8-1.2-1.03-1-1.2-.83-1.33-.6-1.45-.38-1.54v-7.67m0-10.25V278.3m-.02-10.25V252.7m0-10.25V227.1m-.02-10.24V201.5m0-10.24l-.02-15.36m0-10.24V150.3m0-10.23l-.02-15.36m0-10.23V99.1m0-10.23L20 73.5m0-10.22V47.92M20 37.68V30l.12-1.56.37-1.53.6-1.44.8-1.34 1.03-1.2 1.2-1 1.33-.83 1.45-.6 1.54-.38h7.6" stroke="#3a414a" stroke-width="5" fill="none"/><path d="M23.94 140h46.34v61.54H23.94z" fill="#fff" fill-opacity="0"/><path d="M70.24 147.52l-3.18 12.37h-1.1c.14-1.18.34-3.05.34-4.92 0-4.56-4-4.9-6.84-4.9H52.7l-9.2 37.18c-.14.62-.35 1.1-.35 1.73 0 1.44 1.1 2.55 5.25 2.55h1.45l-.27 1.1H26.84l.28-1.1h1.24c5.4 0 6.77-1.94 7.33-4.3l9.18-37.17h-6.3c-5.73 0-10.57 4.2-11.8 9.8h-1.12l3.18-12.36h41.4" fill="#3a414a"/><path d="M195 100h-70" stroke="#3a414a" stroke-width="5" fill="none"/><path d="M197.5 102.5h-2.56v-5h2.56zM125.06 102.5h-2.56v-5h2.56z" stroke="#3a414a" stroke-width=".05" fill="#3a414a"/><path d="M195 240h-70.34" stroke="#3a414a" stroke-width="5" fill="none"/><path d="M197.5 242.5h-2.56v-5h2.56zM124.73 242.5h-2.57v-5h2.57z" stroke="#3a414a" stroke-width=".05" fill="#3a414a"/><path d="M600 40.77v120l80-60z" stroke="#3a414a" stroke-width="5" fill-opacity="0"/><path d="M600 74.37h62.16v52.8H600z" fill="#fff" fill-opacity="0"/><path d="M625.1 101.78l.96.9c-4.84 5.94-9.54 7.6-13.83 7.6-6.77 0-9.47-5.8-9.47-10.78 0-1.6.07-2.56.42-4.15 1.73-7.67 9.33-16.3 18.1-16.3 2.9 0 7.06.96 7.06 5.24 0 8.77-11.55 12.16-19.77 12.57v1.94c0 4.43 3.6 7.4 7.8 7.4 2.9 0 6.23-1.24 8.72-4.42m-16.53-6.84h.62c7.18 0 13.68-4.77 13.68-10.85 0-1.74-1.32-3-3.04-3-5.12 0-9.27 7.96-11.27 13.84M653.92 113.2l-2.64 6.7h-19.1v-.6l8.7-9.23c4.58-4.84 6.34-8.56 6.34-12.7 0-4.46-2.64-6.9-6.8-6.9-3.5 0-5.22 1.56-7.17 6.35l-1.03-.24c1.03-5.72 4.16-9.73 10.17-9.73 5.5 0 9.03 3.77 9.03 8.6 0 3.87-1.9 7.53-6.26 12.12l-8.06 8.6h11.44c2.05 0 3.08-.53 4.7-3.27" fill="#3a414a"/><path d="M600 180.77v120l80-60z" stroke="#3a414a" stroke-width="5" fill-opacity="0"/><path d="M600 214.37h62.16v52.8H600z" fill="#fff" fill-opacity="0"/><path d="M625.1 241.78l.96.9c-4.84 5.94-9.54 7.6-13.83 7.6-6.77 0-9.47-5.8-9.47-10.78 0-1.6.07-2.56.42-4.15 1.73-7.67 9.33-16.3 18.1-16.3 2.9 0 7.06.96 7.06 5.24 0 8.77-11.55 12.16-19.77 12.57v1.94c0 4.43 3.6 7.4 7.8 7.4 2.9 0 6.23-1.24 8.72-4.42m-16.53-6.84h.62c7.18 0 13.68-4.77 13.68-10.85 0-1.74-1.32-3-3.04-3-5.12 0-9.27 7.96-11.27 13.84M650 259.9h-13.48v-.75c3.62-.2 4.64-1.22 4.64-3.9V233.3c0-1.66-.44-2.4-1.46-2.4-.5 0-1.32.25-2.2.6l-1.32.5v-.7l8.75-4.45.44.15v29.17c0 2.1.97 2.98 4.64 2.98v.74" fill="#3a414a"/><path d="M520 40.77v120l-80-60zM520 180.77v120l-80-60z" stroke="#3a414a" stroke-width="5" fill-opacity="0"/><path d="M460 52.5h62.16v74.66H460z" fill="#fff" fill-opacity="0"/><path d="M485.1 110.54l.96.9c-4.84 5.94-9.54 7.6-13.83 7.6-6.77 0-9.47-5.8-9.47-10.8 0-1.57.07-2.54.42-4.13 1.73-7.66 9.33-16.3 18.1-16.3 2.9 0 7.06.96 7.06 5.25 0 8.78-11.55 12.16-19.77 12.58v1.93c0 4.43 3.6 7.4 7.8 7.4 2.9 0 6.23-1.25 8.72-4.42m-16.53-6.85h.62c7.18 0 13.68-4.78 13.68-10.86 0-1.73-1.32-2.97-3.04-2.97-5.12 0-9.27 7.95-11.27 13.82M510 93.26h-13.48v-.74c3.62-.2 4.64-1.22 4.64-3.9V66.67c0-1.67-.44-2.4-1.46-2.4-.5 0-1.32.25-2.2.6l-1.32.48v-.7l8.75-4.44.44.15v29.17c0 2.1.97 2.98 4.64 2.98v.74" fill="#3a414a"/><path d="M460 192.5h62.16v74.66H460z" fill="#fff" fill-opacity="0"/><path d="M485.1 250.54l.96.9c-4.84 5.94-9.54 7.6-13.83 7.6-6.77 0-9.47-5.8-9.47-10.8 0-1.57.07-2.54.42-4.13 1.73-7.66 9.33-16.3 18.1-16.3 2.9 0 7.06.96 7.06 5.25 0 8.78-11.55 12.16-19.77 12.58v1.93c0 4.43 3.6 7.4 7.8 7.4 2.9 0 6.23-1.25 8.72-4.42m-16.53-6.85h.62c7.18 0 13.68-4.78 13.68-10.86 0-1.73-1.32-2.97-3.04-2.97-5.12 0-9.27 7.95-11.27 13.82M513.92 226.56l-2.64 6.7h-19.1v-.6l8.7-9.22c4.58-4.84 6.34-8.56 6.34-12.7 0-4.46-2.64-6.9-6.8-6.9-3.5 0-5.22 1.56-7.17 6.35l-1.03-.25c1.03-5.72 4.16-9.73 10.17-9.73 5.5 0 9.03 3.77 9.03 8.6 0 3.87-1.9 7.53-6.26 12.12l-8.06 8.6h11.44c2.05 0 3.08-.53 4.7-3.27" fill="#3a414a"/><path d="M420 30.77a10 10 0 0 1 10-10h100a10 10 0 0 1 10 10v280a10 10 0 0 1-10 10H430a10 10 0 0 1-10-10z" fill-opacity="0"/><path d="M446.2 20.87l15.24-.02m10.16 0l15.24-.03m10.15 0l15.23-.03m10.15-.02H530l1.56.1 1.53.38 1.44.6 1.34.82 1.2 1.02 1 1.2.83 1.33.6 1.45.38 1.53v7.68m0 10.24v15.36m.02 10.24v15.36m0 10.24v15.35m.02 10.24v15.37m0 10.24l.02 15.37m0 10.24v15.37m0 10.23l.02 15.36m0 10.24v15.36m0 10.24l.02 15.36m0 10.23v15.35m.02 10.24v7.67l-.12 1.56-.37 1.53-.6 1.45-.8 1.35-1.03 1.2-1.2 1-1.33.83-1.45.6-1.54.37h-7.6m-10.17.02l-15.24.02m-10.16 0l-15.24.02m-10.15 0l-15.23.03m-10.15 0l-7.62.02-1.56-.12-1.53-.37-1.44-.6-1.34-.82-1.2-1.02-1-1.2-.83-1.33-.6-1.44-.38-1.53v-7.67m0-10.24v-15.36m-.02-10.24v-15.36m0-10.24v-15.36m-.02-10.23v-15.36m0-10.24l-.02-15.36m0-10.24v-15.36m0-10.23l-.02-15.36m0-10.24V99.88m0-10.24L420 74.28m0-10.23V48.7M420 38.44v-7.68l.12-1.56.37-1.52.6-1.45.8-1.34 1.03-1.2 1.2-1.02 1.33-.82 1.45-.6 1.54-.37 7.6-.02" stroke="#3a414a" stroke-width="5" fill="none"/><path d="M423.94 140.77h46.34v61.54h-46.34z" fill="#fff" fill-opacity="0"/><path d="M470.24 148.3l-3.18 12.36h-1.1c.14-1.17.34-3.04.34-4.9 0-4.57-4-4.9-6.84-4.9h-6.77l-9.2 37.17c-.14.62-.35 1.1-.35 1.73 0 1.45 1.1 2.56 5.25 2.56h1.45l-.27 1.1h-22.74l.28-1.1h1.24c5.4 0 6.77-1.94 7.33-4.3l9.18-37.17h-6.3c-5.73 0-10.57 4.2-11.8 9.8h-1.12l3.18-12.36h41.4" fill="#3a414a"/><path d="M595 100.77h-70" stroke="#3a414a" stroke-width="5" fill="none"/><path d="M597.5 103.27h-2.56v-5h2.56zM525.06 103.27h-2.56v-5h2.56z" stroke="#3a414a" stroke-width=".05" fill="#3a414a"/><path d="M595 240.77h-70.34" stroke="#3a414a" stroke-width="5" fill="none"/><path d="M597.5 243.27h-2.56v-5h2.56zM524.73 243.27h-2.57v-5h2.57z" stroke="#3a414a" stroke-width=".05" fill="#3a414a"/><path d="M320 134.85h47.38v70.3H320z" fill="#fff" fill-opacity="0"/><path d="M364.03 179.2H341.5l-8.3 19.1h-3.73l8.3-19.1H323.3v-4.55h16.45l4.07-9.26h-20.52v-4.57h22.53l8.3-19.08h3.72l-8.36 19.08h14.53v4.56h-16.45l-4.08 9.25h20.53v4.56" fill="#3a414a"/></g></svg>