<svg xmlns="http://www.w3.org/2000/svg" xmlns:lucid="lucid" width="440.43" height="220"><g lucid:page-tab-id="0_0"><path d="M86.57 60h100v98.4h-100z" stroke="#3a414a" stroke-width="5" fill-opacity="0"/><path d="M114.72 77.5h46.34v61.55h-46.34z" fill="#fff" fill-opacity="0"/><path d="M161.03 85.03l-3.18 12.37h-1.1c.13-1.18.34-3.04.34-4.9 0-4.57-4.02-4.92-6.85-4.92h-6.77l-9.2 37.2c-.14.6-.34 1.1-.34 1.72 0 1.45 1.1 2.55 5.25 2.55h1.44l-.28 1.1h-22.73l.27-1.1h1.25c5.4 0 6.77-1.93 7.32-4.28l9.2-37.2h-6.3c-5.73 0-10.57 4.23-11.8 9.83h-1.12l3.18-12.37h41.4" fill="#3a414a"/><path d="M81.57 109.2H28.5" stroke="#3a414a" stroke-width="5" fill="none"/><path d="M84.07 111.7H81.5v-5h2.57z" stroke="#3a414a" stroke-width=".05" fill="#3a414a"/><path d="M28.56 109.2H26" stroke="#3a414a" stroke-width="5" fill="none"/><path d="M340.43 20v180l80-90z" stroke="#3a414a" stroke-width="5" fill-opacity="0"/><path d="M353.02 85.8h35v48.4h-35z" fill="#fff" fill-opacity="0"/><path d="M370.1 93.94l-6.16 22.53c-.2.7-.27 1.45-.27 2.2 0 2.64 1.38 4.58 4.14 4.58 7.48 0 12.32-7.8 14.53-14.03.55-1.66 1.04-3.4 1.04-5.12 0-5.1-4.22-4.5-4.22-7.53 0-2.35 1.73-2.9 3.73-2.9 2.9 0 3.25 3.52 3.25 5.73 0 6.84-2.7 13.82-6.7 19.35-2.98 4.15-8.3 7.2-13.4 7.2-4.44 0-8.03-1.4-8.03-6.44 0-1.44.2-2.9.62-4.27l4-14.52c.15-.54.36-1.16.36-1.7 0-1.4-3.04-1.4-3.94-1.4v-1.03c3.6-.9 7.32-1.38 10.78-2.9" fill="#3a414a"/><path d="M191.57 109.2H335.42" stroke="#3a414a" stroke-width="5" fill="none"/><path d="M191.64 111.7h-2.57v-5h2.57zM337.93 111.7h-2.57v-5h2.57z" stroke="#3a414a" stroke-width=".05" fill="#3a414a"/><path d="M196.87 63.06h15.06v40h-15.06z" fill="#fff" fill-opacity="0"/><path d="M209.3 69.47c0 1.26-1.07 2.22-2.33 2.22-1.4 0-2.32-.97-2.32-2.23 0-1.2.92-2.42 2.32-2.42 1.26 0 2.33 1.2 2.33 2.42m-1.46 6.04l-4.45 17.62c-.05.3-.05.48-.05.68 0 .33.3.48.63.48 1.06 0 1.35-.58 3.1-2.47l.62.5c-1.7 2.17-4.1 5.07-6.48 5.07-1.36 0-1.94-.9-1.94-2.22 0-.58 0-1.5 3.82-16.35.05-.1.1-.43.1-.58 0-.82-.4-1.06-1.5-1.06-.43 0-1 .1-1.35.2l-.15-.78" fill="#3a414a"/><path d="M306 60h26.24v43.06H306z" fill="#fff" fill-opacity="0"/><path d="M331.5 76.14l-.2.58c-3.25.34-4.6 1.2-6.44 2.8L319.73 84l3.1 7.35c.73 1.7 1.3 2.85 2.56 2.85 1.44 0 2.5-2.08 3.57-3.53l.73.53c-.58 1.02-2.86 6.2-6.14 6.2-2.23 0-3.24-2.57-3.78-3.83l-3.04-7.1-2.7 2.36-2.2 8.04h-3.66l7.15-28.48c.1-.3.15-.63.15-.97 0-.54-.48-1.07-1.55-1.07-.43 0-.92 0-1.3.1l-.15-.68 7.64-1.2-5.46 22.04 8.07-7.22c.54-.48 1.02-1.1 1.02-1.74 0-.58-.78-.92-1.26-.92h-.6l.2-.58h9.4" fill="#3a414a"/></g></svg>