<svg xmlns="http://www.w3.org/2000/svg" xmlns:lucid="lucid" width="443.5" height="220"><g lucid:page-tab-id="7kr9PJF2BM6k"><path d="M257.5 60.8h100v98.4h-100z" stroke="#3a414a" stroke-width="5" fill-opacity="0"/><path d="M284.33 80h46.34v61.54h-46.34z" fill="#fff" fill-opacity="0"/><path d="M330.64 87.52l-3.18 12.37h-1.1c.13-1.18.34-3.05.34-4.92 0-4.56-4-4.9-6.85-4.9h-6.77l-9.2 37.18c-.13.62-.34 1.1-.34 1.73 0 1.44 1.1 2.55 5.26 2.55h1.45l-.28 1.1h-22.74l.28-1.1h1.25c5.4 0 6.78-1.94 7.33-4.3l9.2-37.17h-6.3c-5.73 0-10.57 4.2-11.82 9.8h-1.1l3.18-12.36h41.4" fill="#3a414a"/><path d="M100 200V20l-80 90z" stroke="#3a414a" stroke-width="5" fill-opacity="0"/><path d="M252.5 110H105" stroke="#3a414a" stroke-width="5" fill="none"/><path d="M255 112.5h-2.56v-5H255zM105.06 112.5h-2.56v-5h2.56z" stroke="#3a414a" stroke-width=".05" fill="#3a414a"/><path d="M362.5 110H415" stroke="#3a414a" stroke-width="5" fill="none"/><path d="M362.56 112.5H360v-5h2.56z" stroke="#3a414a" stroke-width=".05" fill="#3a414a"/><path d="M414.94 110h2.56" stroke="#3a414a" stroke-width="5" fill="none"/><path d="M36.54 70.24h67.5v65.92h-67.5z" fill="#fff" fill-opacity="0"/><path d="M53.6 95.88l-6.14 22.54c-.2.7-.28 1.45-.28 2.2 0 2.63 1.38 4.57 4.15 4.57 7.46 0 12.3-7.82 14.5-14.04.56-1.66 1.05-3.4 1.05-5.12 0-5.1-4.22-4.5-4.22-7.53 0-2.34 1.73-2.9 3.73-2.9 2.9 0 3.24 3.53 3.24 5.74 0 6.85-2.7 13.83-6.7 19.36-2.97 4.14-8.3 7.18-13.4 7.18-4.43 0-8.03-1.38-8.03-6.42 0-1.45.22-2.9.63-4.3l4-14.5c.15-.56.36-1.18.36-1.73 0-1.38-3.05-1.38-3.95-1.38V98.5c3.6-.9 7.32-1.37 10.78-2.9M93.84 85.78c0 .53-.4 1.12-1.08 1.5-1.22.74-4.05.74-7.57 2.75 3.07 1.8 6.2 1.95 7.5 2.73.7.4 1.04.98 1.04 1.57 0 .97-.68 1.9-1.9 1.9-2 0-3.23-3.42-7-5.57 0 3.37 1.42 6.4 1.42 7.92 0 1.02-.97 2.05-1.85 2.05-.92 0-1.85-1.03-1.85-2.05 0-1.52 1.42-4.55 1.42-7.92-2.54 1.47-4.84 4.55-5.9 5.13-.45.24-.9.38-1.33.38-1.18 0-1.8-.73-1.8-1.56 0-.68.28-1.47 1-1.9 1.33-.74 4.95-1.23 7.5-2.7-2.55-1.46-6.3-1.95-7.68-2.78-.64-.4-.98-.93-.98-1.46 0-1.03.73-2.06 1.76-2.06.34 0 .68.1 1.08.3 1.4.83 3.56 3.8 6.35 5.27 0-3.38-1.42-6.6-1.42-8.12 0-1.02.93-1.95 1.86-1.95.9 0 1.86.93 1.86 1.95 0 1.52-1.4 4.7-1.4 8.07 3.5-1.86 4.82-4.45 6.14-5.23.4-.2.74-.3 1.08-.3 1.03 0 1.76 1.03 1.76 2.06" fill="#3a414a"/><path d="M108.98 59.33h26.23v43.06H109z" fill="#fff" fill-opacity="0"/><path d="M134.46 75.48l-.2.58c-3.23.34-4.58 1.2-6.42 2.8l-5.13 4.45 3.1 7.36c.73 1.7 1.3 2.86 2.57 2.86 1.45 0 2.5-2.08 3.58-3.53l.72.52c-.58 1-2.85 6.2-6.14 6.2-2.22 0-3.24-2.58-3.77-3.83l-3.05-7.12-2.7 2.37-2.17 8.03h-3.68l7.16-28.5c.1-.28.16-.62.16-.96 0-.53-.5-1.06-1.55-1.06-.43 0-.9 0-1.3.1l-.14-.68 7.64-1.2-5.47 22.04 8.08-7.2c.54-.5 1.03-1.12 1.03-1.74 0-.58-.78-.92-1.26-.92h-.58l.18-.58h9.38" fill="#3a414a"/><path d="M228.66 59.33h19.6v46.13h-19.6z" fill="#fff" fill-opacity="0"/><path d="M247.4 65.74c0 1.26-1.06 2.23-2.32 2.23-1.4 0-2.32-.97-2.32-2.23 0-1.2.92-2.42 2.32-2.42 1.26 0 2.32 1.2 2.32 2.42m-1 6.05l-5.24 20.54c-1.06 4.26-3.77 9.82-9 9.82-2.56 0-3.52-1.6-3.52-2.95 0-1.06.58-2.5 2.27-2.5.93 0 1.7.72 1.7 1.83 0 .73-.77.87-.77 1.64 0 .2.24.5.48.5 2.24 0 3.83-3.7 5-8.33l4.44-17.56c0-.58-.48-1.06-1.54-1.06-.4 0-.97.1-1.3.24l-.16-.82" fill="#3a414a"/></g></svg>