<svg xmlns="http://www.w3.org/2000/svg" xmlns:lucid="lucid" width="442.93" height="300"><g lucid:page-tab-id="eqr90qHAb-JZ"><path d="M86.57 40h100v220h-100z" stroke="#3a414a" stroke-width="5" fill-opacity="0"/><path d="M113.4 119.23h46.34v61.54H113.4z" fill="#fff" fill-opacity="0"/><path d="M159.7 126.75l-3.17 12.37h-1.1c.13-1.17.34-3.04.34-4.9 0-4.57-4-4.9-6.84-4.9h-6.77l-9.2 37.17c-.14.6-.34 1.1-.34 1.72 0 1.45 1.1 2.56 5.25 2.56h1.45l-.28 1.1H116.3l.28-1.1h1.25c5.4 0 6.77-1.94 7.32-4.3l9.2-37.17h-6.3c-5.73 0-10.57 4.22-11.8 9.82h-1.12l3.18-12.37h41.4" fill="#3a414a"/><path d="M342.93 20v120l80-60z" stroke="#3a414a" stroke-width="5" fill-opacity="0"/><path d="M341.04 45.98h66.37v57.17h-66.36z" fill="#fff" fill-opacity="0"/><path d="M358.1 54.13l-6.14 22.53c-.2.7-.28 1.46-.28 2.22 0 2.62 1.38 4.56 4.15 4.56 7.46 0 12.3-7.8 14.5-14.03.56-1.65 1.05-3.38 1.05-5.1 0-5.12-4.22-4.5-4.22-7.54 0-2.35 1.73-2.9 3.73-2.9 2.9 0 3.24 3.52 3.24 5.73 0 6.84-2.7 13.82-6.7 19.35-2.97 4.14-8.3 7.18-13.4 7.18-4.43 0-8.03-1.38-8.03-6.42 0-1.45.22-2.9.63-4.28l4-14.5c.15-.57.36-1.2.36-1.74 0-1.38-3.05-1.38-3.95-1.38v-1.04c3.6-.9 7.33-1.38 10.78-2.9M395.26 95.88h-13.5v-.73c3.63-.2 4.66-1.23 4.66-3.9V69.3c0-1.67-.44-2.4-1.47-2.4-.5 0-1.32.25-2.2.6l-1.32.48v-.7l8.75-4.43.44.14v29.16c0 2.1.98 3 4.64 3v.72" fill="#3a414a"/><path d="M342.93 160v120l80-60z" stroke="#3a414a" stroke-width="5" fill-opacity="0"/><path d="M341.04 184.57h66.37v57.16h-66.36z" fill="#fff" fill-opacity="0"/><path d="M358.1 192.72l-6.14 22.53c-.2.7-.28 1.45-.28 2.2 0 2.63 1.38 4.57 4.15 4.57 7.46 0 12.3-7.8 14.5-14.03.56-1.67 1.05-3.4 1.05-5.12 0-5.12-4.22-4.5-4.22-7.54 0-2.35 1.73-2.9 3.73-2.9 2.9 0 3.24 3.52 3.24 5.74 0 6.84-2.7 13.82-6.7 19.35-2.97 4.14-8.3 7.2-13.4 7.2-4.43 0-8.03-1.4-8.03-6.44 0-1.46.22-2.9.63-4.3l4-14.5c.15-.56.36-1.2.36-1.74 0-1.38-3.05-1.38-3.95-1.38v-1.04c3.6-.9 7.33-1.38 10.78-2.9M399.17 227.77l-2.64 6.7h-19.1v-.6l8.7-9.23c4.6-4.84 6.35-8.55 6.35-12.7 0-4.45-2.64-6.9-6.8-6.9-3.52 0-5.23 1.57-7.18 6.36l-1.03-.25c1.03-5.7 4.16-9.72 10.17-9.72 5.52 0 9.04 3.76 9.04 8.6 0 3.86-1.9 7.52-6.26 12.12l-8.06 8.6h11.43c2.05 0 3.07-.54 4.7-3.28" fill="#3a414a"/><path d="M337.93 80H191.58" stroke="#3a414a" stroke-width="5" fill="none"/><path d="M340.43 82.5h-2.57v-5h2.57zM191.64 82.5h-2.57v-5h2.57z" stroke="#3a414a" stroke-width=".05" fill="#3a414a"/><path d="M337.93 220H191.57" stroke="#3a414a" stroke-width="5" fill="none"/><path d="M340.43 222.5h-2.57v-5h2.57zM191.64 222.5h-2.57v-5h2.57z" stroke="#3a414a" stroke-width=".05" fill="#3a414a"/><path d="M81.57 150H28.5" stroke="#3a414a" stroke-width="5" fill="none"/><path d="M84.07 152.5H81.5v-5h2.57z" stroke="#3a414a" stroke-width=".05" fill="#3a414a"/><path d="M28.56 150H26" stroke="#3a414a" stroke-width="5" fill="none"/><path d="M193.72 33.4h37v46.1h-37z" fill="#fff" fill-opacity="0"/><path d="M206.15 39.8c0 1.25-1.07 2.22-2.33 2.22-1.4 0-2.32-.97-2.32-2.23 0-1.22.92-2.42 2.32-2.42 1.26 0 2.33 1.2 2.33 2.4m-1.46 6.06l-4.45 17.6c-.05.3-.05.5-.05.68 0 .34.3.48.63.48 1.06 0 1.35-.58 3.1-2.46l.62.48c-1.7 2.18-4.1 5.08-6.48 5.08-1.36 0-1.94-.92-1.94-2.23 0-.58 0-1.5 3.83-16.34.04-.1.1-.44.1-.58 0-.82-.4-1.07-1.5-1.07-.44 0-1.02.1-1.36.2l-.15-.78M222.23 74.42h-9.44v-.5c2.52-.15 3.24-.87 3.24-2.75V55.82c0-1.16-.3-1.67-1.03-1.67-.33 0-.9.17-1.52.4l-.93.35v-.48l6.12-3.1.3.1v20.4c0 1.47.7 2.1 3.26 2.1v.5" fill="#3a414a"/><path d="M193.72 171.97h37v46.13h-37z" fill="#fff" fill-opacity="0"/><path d="M206.15 178.38c0 1.25-1.07 2.22-2.33 2.22-1.4 0-2.32-.97-2.32-2.22 0-1.2.92-2.42 2.32-2.42 1.26 0 2.33 1.2 2.33 2.42m-1.46 6.04l-4.45 17.6c-.05.3-.05.5-.05.68 0 .34.3.5.63.5 1.06 0 1.35-.6 3.1-2.48l.62.48c-1.7 2.18-4.1 5.08-6.48 5.08-1.36 0-1.94-.92-1.94-2.22 0-.58 0-1.5 3.83-16.35.04-.1.1-.43.1-.57 0-.82-.4-1.06-1.5-1.06-.44 0-1.02.1-1.36.2l-.15-.78M224.96 208.32l-1.84 4.68h-13.37v-.4l6.08-6.47c3.22-3.38 4.45-5.98 4.45-8.9 0-3.1-1.85-4.8-4.75-4.8-2.46 0-3.66 1.08-5.03 4.43l-.72-.17c.72-4 2.9-6.8 7.1-6.8 3.88 0 6.34 2.62 6.34 6 0 2.7-1.33 5.27-4.38 8.5l-5.64 6h8c1.44 0 2.16-.37 3.3-2.3" fill="#3a414a"/><path d="M294.74 30.32h48.2v49.2h-48.2z" fill="#fff" fill-opacity="0"/><path d="M320.22 46.47l-.2.58c-3.23.34-4.58 1.2-6.42 2.8l-5.13 4.45 3.1 7.35c.72 1.7 1.3 2.86 2.56 2.86 1.45 0 2.52-2.07 3.58-3.52l.74.53c-.58 1.02-2.86 6.2-6.15 6.2-2.23 0-3.25-2.56-3.78-3.82l-3.05-7.1-2.7 2.36-2.18 8.03h-3.7l7.17-28.5c.1-.28.15-.62.15-.96 0-.52-.5-1.05-1.55-1.05-.44 0-.92 0-1.3.1l-.15-.68 7.64-1.2-5.47 22.04 8.07-7.2c.53-.48 1.02-1.1 1.02-1.73 0-.58-.8-.92-1.27-.92h-.58l.2-.58h9.37M334.42 74.42h-9.44v-.5c2.54-.15 3.25-.87 3.25-2.75V55.82c0-1.16-.3-1.67-1.02-1.67-.33 0-.92.17-1.53.4l-.92.35v-.48l6.12-3.1.3.1v20.4c0 1.47.7 2.1 3.25 2.1v.5" fill="#3a414a"/><path d="M294.74 170.44h48.2v49.2h-48.2z" fill="#fff" fill-opacity="0"/><path d="M320.22 186.58l-.2.58c-3.23.34-4.58 1.2-6.42 2.8l-5.13 4.46 3.1 7.35c.72 1.7 1.3 2.85 2.56 2.85 1.45 0 2.52-2.08 3.58-3.53l.74.52c-.58 1.02-2.86 6.2-6.15 6.2-2.23 0-3.25-2.57-3.78-3.83l-3.05-7.12-2.7 2.37-2.18 8.03h-3.7l7.17-28.5c.1-.28.15-.6.15-.95 0-.53-.5-1.07-1.55-1.07-.44 0-.92 0-1.3.1l-.15-.68 7.64-1.2-5.47 22.05 8.07-7.2c.53-.5 1.02-1.12 1.02-1.75 0-.58-.8-.92-1.27-.92h-.58l.2-.58h9.37M337.16 209.85l-1.85 4.68h-13.36v-.4l6.1-6.47c3.2-3.38 4.43-5.98 4.43-8.9 0-3.1-1.84-4.8-4.75-4.8-2.46 0-3.66 1.08-5.03 4.44l-.72-.18c.7-4 2.9-6.8 7.1-6.8 3.87 0 6.33 2.63 6.33 6.02 0 2.7-1.32 5.26-4.36 8.48l-5.64 6.02h8c1.43 0 2.15-.38 3.28-2.3" fill="#3a414a"/></g></svg>