<svg xmlns="http://www.w3.org/2000/svg" xmlns:lucid="lucid" width="420" height="220"><g lucid:page-tab-id="v9i986EprX.O"><path d="M200 100H20l90 80z" stroke="#3a414a" stroke-width="5" fill-opacity="0"/><path d="M92.5 100.63h46.34v61.54H92.5z" fill="#fff" fill-opacity="0"/><path d="M138.8 108.15l-3.18 12.37h-1.1c.14-1.17.34-3.04.34-4.9 0-4.57-4-4.9-6.84-4.9h-6.77l-9.2 37.17c-.13.6-.34 1.1-.34 1.72 0 1.45 1.12 2.56 5.26 2.56h1.45l-.26 1.1H95.4l.28-1.1h1.24c5.4 0 6.77-1.94 7.33-4.3l9.2-37.17h-6.3c-5.74 0-10.58 4.22-11.82 9.82h-1.1l3.17-12.37h41.4" fill="#3a414a"/><path d="M320 20v180l80-90z" stroke="#3a414a" stroke-width="5" fill-opacity="0"/><path d="M315 110h-52.5" stroke="#3a414a" stroke-width="5" fill="none"/><path d="M317.5 112.5h-2.56v-5h2.56z" stroke="#3a414a" stroke-width=".05" fill="#3a414a"/><path d="M262.56 110H260" stroke="#3a414a" stroke-width="5" fill="none"/><path d="M323.15 80h47.03v61.54h-47.03z" fill="#fff" fill-opacity="0"/><path d="M370.15 86.48l-3.67 15.28h-1.1c.07-.56.07-1.1.07-1.66 0-5.8-3.32-11.06-11.06-11.06-2.98 0-8.37 1.8-8.37 6.7 0 4.77 4.2 7.68 8.08 11 4.1 3.38 8.17 7.4 8.17 13.4 0 6.84-6 13.2-16.87 13.2-6.5 0-8.63-2.62-13.9-2.62-1.72 0-2.68.76-3.8 2.62h-1.1l4.15-16.3h1.1c0 .68.08 1.44.08 2.13.2 5.46 2.76 11.55 11.82 11.55 8.77 0 10.78-4.9 10.78-9.4 0-2.42-1.25-4.7-3.18-6.64-2.08-2.14-5.4-4.63-7.88-7.05-1.94-1.93-5.05-5.67-5.05-9.05 0-5.6 4.5-12.1 15.42-12.1 5.73 0 9.67 2.56 12.64 2.56 1.4 0 2.35-1.52 2.56-2.56h1.1" fill="#3a414a"/><path d="M80.3 95V42.5" stroke="#3a414a" stroke-width="5" fill="none"/><path d="M82.8 97.5h-5v-2.56h5z" stroke="#3a414a" stroke-width=".05" fill="#3a414a"/><path d="M80.3 42.56V40M140.12 95V42.5" stroke="#3a414a" stroke-width="5" fill="none"/><path d="M142.62 97.5h-5v-2.56h5z" stroke="#3a414a" stroke-width=".05" fill="#3a414a"/><path d="M140.12 42.56V40M315 59.94h-52.5" stroke="#3a414a" stroke-width="5" fill="none"/><path d="M317.5 62.44h-2.56v-5h2.56z" stroke="#3a414a" stroke-width=".05" fill="#3a414a"/><path d="M262.56 59.94H260M315 159.83h-52.5" stroke="#3a414a" stroke-width="5" fill="none"/><path d="M317.5 162.33h-2.56v-5h2.56z" stroke="#3a414a" stroke-width=".05" fill="#3a414a"/><path d="M262.56 159.83H260" stroke="#3a414a" stroke-width="5" fill="none"/></g></svg>